<svg xmlns="http://www.w3.org/2000/svg" width="1000" height="570" viewBox="0 0 1000 570"><path d="M374.8,44.8l-.5,2-1,1.4-.7.4-4.4.4-.6.5-.5.8-.3,1.2-.3,3.6-.4,1.7-.8,1.5-.9,1.2-1.1.8-1.3.3-1.2-.3-7.7-8-1.1-.5-.8.2-.5,1.2L349,62.8l-1.9,1.8L346,66.5l-.3,1.2v2.4l-.2,1-.4.8-3.3,3.2-.6.8-2.7,7-2.1,1.3-.7.8-.5.9-.2,1,.2,1.3,8.3,26.2,10.5,8.7,1.1,5.3-1,.7-1,1.7-.3,1.9v1.4l-.2,1.9-.5,1.8-.5,1-.9.7-1.2.7-4.3,3.6-2.2,1.1-1.5-.3-2-.9-1.2-.2-.5.5-.2.9.3.9.9,3v.9l-.1,2.2.9,3.2-.1,1.4-.8,1.1-1,2.7-1.2,1.7-1.2.7-1.1.2-2.6-.2-4.2.4-1.1.3-1.2.8-3.2,2.7-1.9.7-4.8-1.8-11.6,2-3-.4-3.4-1.2-3.7-.8-6.1.2-1.8.5-1.2.5-.6,1-.3,1-.2,2.3.2,1.4-.4,1.7-.8,1.3-1.2.5-1.2.1-2-.1-1.4.5-8.8,5.5-1.8,2.3-.8.9-1.7,1.3-1,.2-1.1-.4-1-.8-1.2-.5-1.2.1-14.1,7.4-2.6.7h-.7l-1.5-.7-1-.2h-1.6l-1.2.4-1.6,1.1-1.4,1.4-6.3,4.1-8.7,3.6-1.7,1-.8,1-2,3.1-1.4,3.4-1.4,1.8-1.7,1.2-3.8,3.8-1.5.7-2.3.6-1.8,1-1.6,2.2-3.1,2.3-2-.1-6.7-1.6-1.3-.7-1-1-1.6-2.3-1.3-1.5-1.8-1.6-3.1-2.2-1.1-1.1-.4-.7.5-1.5,2.2-2.8,1.1-2-.4-1.9-1-2.5-3.1-4.8-1.1-2.3-.5-1.9.7-2.2.1-1.2-.2-2.4-.5-3-.3-2.7v-1.5l.3-5-.1-2-.2-2-.8-3.1-.7-1.5-1-1.1-2.2-1.2-4.2-1.1-4.5-.2-3.7-.8-1.8-1.4-1.1-1.4-1-2-.7-1-.9-.7-9.7-1.1-2.5-1.4-4.9-4.2,3.2-3.1,2.1-2.5.9-4.3,1-9.4,1.2-.9,1.2-.3,1.3.3,1.1.9,1.3.3,1.4.2,1.4-.1,1.4-.4,4.1-1.5,7.8.5,3.6-2.7,2.1-3.9,5-13.2,2.8.3,2.4,1.7,2.5,1.1,3.1-1.6,1.5-4.7.9-1.5,5.5-4,.9-.9.1-.9.4-.2,1.8.6.8.9,2.1,3.5.9,1.2,3.3,1.7,2.8-.7,2.5-2.3,2.5-3.2,1.5-.8.9-1.1.1-1.4-.8-1.9,2.4-1.9,2-2.5.6-3.2-1.7-3.5,6-3.7,6.7-1.3,13.3.1,2.8-.6,5.6-2.1,3.2-.3,6.8.8,2.6-.6,4.3-2.6.9-.1.9-.3,1-1.4.1-1.2-.4-1.7-.2-2,.6-2.2,1.4-1.7,1.3-.1,1.4.5,1.9-.3,1.5-1.1,2.2-2.9,1.6-1.2,2.9-.6,5.4.7,2.8-.2,23-10.6,1.8-1.7,2.7-4.1,1.6-1.5,5.3-1.2,11.6,1,4.4-3.7.8-5.9-3.9-2.2L332,25l-3.8-3.7.1-2.5,1.3-.8.2-.5-2.9-1.2-5-.7-1.7-1.1,1.6-2.4,2.1-6.7,3.5-3.7,4.7-.7,5.5,1.8,1.1,1,.8,1.3,1,1.3,1.6.9h1.6l4.1-1.8,5.4.3,1.7-.9,1.2-3.2.9,2,.3,1.4.5,1.4,1.4,1.9L361,9.7l4,1,1.8,1.4,1.8,2.2,1.1,1.8.5,2.3-.3,3.6-1.1,2.8L367,28.1l-.8,2.9,1.7,1.3,8.2-3.4,1.7.1.8,2.6-.8,3.1-2.5,5.9-.5,4.2Z" fill="#7c7c7c" stroke="#fff" stroke-linecap="round" stroke-linejoin="round" stroke-width="2"/><path d="M197.2,222.5l1.8,4.6v2.2l-1,2.4-.6,1.6v1l.5.7.8.3,1.5.1,1.6-.4,3-1.7,1.6-.2,2,.8,2.4.6,2.6,1.2,7.1,6.9,1.3.9,2.7.3,2-.2,2-.5,1.2-.1,1.5.1,2.8.8,1.6.8,1.3.8,3.8,4.3,1,.8.9.5,4.9,1.5.9.6.6.9.5,1.9,7.7,4,1.3,1.3.7,1.1-.3.8v2l.2,1.2,1.5,4.9.1,1.1-.2,1-1.8.8-1.8.2-.7,1.1v4l-.3,1.5-1.8,4.7.1,1.5.5,2.3-.1,1.1-1.5,5.1-.2,1.2-.1,1.3.6.9,1.4.6,1.1.6.3.8.1.7-.5,1-3.7,4.1L251,308l-1.1.6-4.4,1-1.8.8-1.7,1.1-1.7,1.7-.8,1-.4,1.1.6,1,2.2,2,.2.8-.2.7-1.2.7-.9.7v.3l1.9,1.2.5,1.2-.3.6-1.3,1.3-.1.8.4,1.8.5.8.8.5,1.4.6,1,.7,1.3,1.5.5,1.2.3,1.2-.1,5.7.2,2.3.4,1.4.5,1,1.4,1.8,1,1.5.3,1.6v1.3l-.4,2.2-1.1,3.4v2.1l2.1,4.7,1.9,7.3.2,2-.2,1.1-1,4.3-.3,3.5.4,2.8.8,4,.2,1.9-.2,1.5-.7,1.4-2.8,4.8-1.3,2.9-.8,2.9-1.1,2.5-.8.6-2.5,1.6-1.3,1.4-.2,1.6.9,2.2v1.3l-.2.8-.5.9-1.4,2.1-.1.9.2.8.6.8,2,2.1.7,1.6-.1.9-.8.7-1.2.4-1.6,1-1.3,1.3-3.9,7.4-1.4,2-1.2.5-1.8-.3-1.4.6-1.5,1.8-1.9,4.9-.6,3.3.1,2.4.4,2.4-.1,2-.4,1.3-.7,1.2-3.2,3.2-3.4,5.3-3.2,6.9.2,2.1-1-.2-2,1-1.4,2.4-1.6,4-3.4-1.7-4.7-3.4-4.2-3.9-2.1-3.5-.1-6.3-1.7-3.9-6.2-6.4-4.5-6.1-1.8-1.5-3-1.2-8.9-.4-4.2-2.4-2.3-3.8-2-4.5-13.8-18.8-1.8-1-4.8-5.7-.6-2.1-.2-2.2-.9-1.8-2.5-1.1-4.2-4.4-2.1-1.8-2.5-1.3-5.7-1.6-2,.7.7,2.9-2.8.4-8.7-1.3-2.9-1.1-2.3-2.4-4.9-10.9-3-3-6.8-3.3-2.8-2.4-1.7-3.2-.8-3.7-.6-11.3-1.1-.9-1.5.2-1.7-.5-1.6-1.7L74.6,350l-.9-2-.9-2.7-.6-2.7-.7-5.1-1.1-2.4-1.5-1.7-3.5-2-1.5-1.8.8-2.4-1.6-.9,1.3-2.7-.2-3.1L63,318.1,61,317l-4.9-2.3-2.3-1.6-2.1-1.9-3.1-4.4-1.5-2.9-.7-2.4,1.7-3.5,6.1-2.6,2.4-2.4.4-3.7.1-4.8.9-3.2,3,.9,1.1-3.6,3.4-6.3,1.2-3.5.4-4.4,7,1.3,1.4-.3,1.1-.6,4-4,.8-.4h.8l4.4,1.6,2.5.3,2.1-.4.7-.4,4.5-5.3,1-.5,11.4.2,3.3,3.4,1.1.5.5-.2,3.7-2.7,1.6-.3,4,2,2.4.6.9-.3.7-.8,1.9-9.7.6-1.2.8-.7,13.7-7.4,3.2-3.5,1.5-1,.7-.1,10.2,2,5.2,5.9,2,.8,1.9-.1.8-.3.6-.6.2-.9-1.7-6.8-.1-1.3V232l.3-.9.6-.6,8.6-1.9.6-.6-.1-.9-1-2.4-.4-1.4-.1-1.4.1-1.4.6-1.2.9-1,1.6-.7,1.3,1.5,1.6,2.3,1,1,1.3.7,6.7,1.6,2,.1,3.1-2.3Z" fill="#7c7c7c" stroke="#fff" stroke-linecap="round" stroke-linejoin="round" stroke-width="2"/><path d="M696.7,332.3l-.6,2.7-.7,1.7-.8.9-.9.3-4.7-1.2-1.1.4-.4.9.2,1.3.5,1.6,2,3.4,6.3,6.3.4,1.3-.4.5-1.7.8-.3,1,.1,1.2.4,1.6,3.6,9.4.2,1.3v1.2l-.2,1.1-.5,1.2-.7,1-.9,1-.7,1,.1,1.1.8,1.2,8,6.2h1.2l1.4-.6,1.3-1,2.3-2.7,1.8-2.7.4-1.2.1-1.4-.1-1.5-.4-1.4-1-2.7L709,363l-.3-1.8.2-2.7.6-1.4.9-.8,1.3-.3,1.4.1,5.8,2.4,1,.9,1.8,2.9,1.4,3.4.9,5.3.5,1.2.8,1.2,6.8,6.7.9,1.8.2,1.2-.2,4.4.4,1.2.9,1.1,2.4,1.4,5.5,1.7,3,2.9L748,400l1.8,4.1.2,1.6V407l-.3,1.5-.2.5-2.4,4.3-.3,1.5.1,1.9,1.3,4.4,2,4.2,1.9,2.7,3.9,2.3.6.6.5.9.4,1.3.1,1.3-.3,1.1-.6.9-1.9,1.3-4,1.5-.7.7-3.8,5.5-2.3,2-.2,1,.3,1.1.8,1,1.1.9,2.7,1.2h2.6l7.2-2.5,1.1.1.8.6.4,1.1.1,1.5-.4,7,.3,1.2.6.9.8.7,6.1,2.8,9.1,1.9.7.5.6.9.7,2.4.5,3.2,5.2,2.2,2.7,2.2,1.6,2.4.9.6,1.1.1,1.2-.2,4.7-2.6,4.3.6,3.4,1.4.6.5.9,1.6.8,2.1.4,2.4.5,1,.9.7,8,2.3,1.4,1,1.2,1.4.9,1.8,1.4,4,1.1,5.1-16.3,6.4-5.4-.8-4.5-4.8-2.2-1-3.5,1-5.6,3.7-2.6.5-16.8-8.6-7.1-1.9-6.6,1.5-7.9,5.8-1.4,2-.8,4.3-2.2,2.7-5,4.4-3.7,6.2-7.4,21.6-1.7,3.1-2.4,2.8-.3,4.3-5.1-6-2.1-14.8L709,533l-2.4-.2-5.7,2-2.8.4-2.7-1-5.4-3.6-2.2-.8-5.6.3-2.4-.4-1.9-1.4-1.1-2.7-.5-3.2-1.2-2.7-2.8-1.1-2.7-.3-8.9-2.6-2.5-1.6-1.3-.5-1.4.2-2.7,1.1-1.5.1-4.2-.6-2.6,1.7L637,529l-1.6,1.5-2.3.7-.9-.3-1.9-1.6-3.1.5-.1.1-20.7-3.1-13.6.9-7.8-3.4-14.9-10.9-.2-1.1v-1.5l-.8-1-2.5.6-.1-2.3-1.1-1-1.7-.1-1.9.4,1.6-2-1.3.1L561,505l-1.6-1.2-2.8-.2-1-.4-.8-1.2-.6-2.7-.8-.7h-4.5l-1.3.4-5.3,2.7-2.4.8h-3.4l-3.4-.8-11.4-6.4-8.8-3.5.4-2.1.6-1.4.5-1.8,2.3-5.7.7-2.3v-1l.4-1,.7-.6.9-.2,1,.1,1,.6,1.1.9,2.8,4.5.9.4.8-.1.8-.7,1.2-1.7.4-1,1.1-1.3,1.5-1.2.9-.4H534l1,.4,4.4,3.8.9.3.9-.1,10.7-9.7,4.1-1.9,5.1.5,1-.5.7-1,.8-3.2.5-1,.8-.7.7-.3,1.4.1.6.2,3.8-4.8,1.1-.6,1,.1.8,1,.6,1.4.7.9.8.7,1.8.5,4.4-.2.9-.4,2.6-2,.7-.2,10.2,1.7,1.5-.5,1.2-1,3.1-4.6.6-.5,10.4-3.4,3.2-3.9,1-2.3.3-1v-1.1l-.3-1-1.2-2.9-.2-2,.3-1.1.6-1.2,2.1-2.5.7-1.2.3-1.2v-1.1l-.3-1-.6-.8-.7-.6-1.9-1-.6-.8-.3-1.1-.2-1.3.2-2.8.7-2.8.5-1,.7-.7,3.2-1.3.4-.5.2-.7-.4-1.6-1-1.9-.4-1.9.1-1.4.3-1.6.6-1.4,1.5-2.5,1.9-1.9,12.9-7.9.6-1.1.1-1.4-.2-1.6-2.7-8.7-.3-1.6-.4-10.4-.8-3v-1.1l.4-.7.7-.5,4.4-.8.6-.7.4-1.1.3-1.3.1-1.4-.2-1.4-.3-1.3-.5-1.1-4.1-4-.3-1v-1.2l1.8-4.6.7-2.6.3-2.5,3.6.3,17.5-1.7,1.3-1.1.5-.9.2-1.5.2-1.9.8-1,1.3-.6h7.8l1.2.3,1.8.9,1.4.2,4.9-.4,3.7.3,3.5,1.3,7.4,3.7,1.6-.3Z" fill="#7c7c7c" stroke="#fff" stroke-linecap="round" stroke-linejoin="round" stroke-width="2"/><path d="M932.5,384.6l-.3,8-8.9,7.1-19.9,7.7-4.3,4.2-3.6,5.8-2.7,6.8-1.9,7.5-.5,6,.2,11.5-1,4.9-3.1,5.2-4.3,4.1-4.9,2.2-7.9-.6-3.6.6-3.1,2-1.9,3.9-1,3.3-1.1,7-1.2,3.1-2.7,2.6-2.8.2-3.2-.5-3.6.6-2.4,2-5.1,8.8-2.6,2.1-12,4.8-1.1-5.1-1.4-4-.9-1.8-1.2-1.4-1.4-1-8-2.3-.9-.7-.5-1-.4-2.4-.8-2.1-.9-1.6-.6-.5-3.4-1.4-4.3-.6-4.7,2.6-1.2.2-1.1-.1-.9-.6-1.6-2.4-2.7-2.2-5.2-2.2-.5-3.2-.7-2.4-.6-.9-.7-.5-9.1-1.9-6.1-2.8-.8-.7-.6-.9-.3-1.2.4-7-.1-1.5-.4-1.1-.8-.6-1.1-.1-7.2,2.5h-2.6l-2.7-1.2-1.1-.9-.8-1-.3-1.1.2-1,2.3-2,3.8-5.5.7-.7,4-1.5,1.9-1.3.6-.9.3-1.1-.1-1.3-.4-1.3-.5-.9-.6-.6-3.9-2.3-1.9-2.7-2-4.2-1.3-4.4-.1-1.9.3-1.5,2.4-4.3.2-.5.8,1.5,1,.9.7.2.7-.3.6-.7.4-1.1.7-4.2.4-1.2.6-.8,1.1-.3,9.6-.2,1.1.1.6-.4,2-2.6,5.1-4.9.5-.6,1.3-2.8-1.3-1.6-1.2-3.8.2-3.9.7-3.7,3.6.5,2.3.9,3.7,3.1,3.1,1.7,1.3.2,6.3,2.9,1.5.3.9-.3.9-.8.8-1.3,1.3-2.7,1.4-1.4,1.9-1.1,2.6-1.1,1.1-.3,10.5.2,1.1-.1.9-.4,1.1-1.3.3-1v-1l-.3-1.4-1-2.3-.2-.9.2-.7.6-.5,1.8-.7,1.7-.2,2.2.1,13,2.6,3.9-1.7-.4-2.5v-2.2l.4-2.2,1-1.2,1.9-1.1,1.1-1.4,1-2.8.6-1,.7-.7.7-.3h.8l.8.3.7.6,1.4,1.6.9.4,1.8.2,2.1-.5,2.3-6,6.5.1,1.1,1,.4.9.6,2.9.6,1.1.8.8,1,.6,1.3.2,23-2.3,1.4.6,4.4,3.2,1,.3,11.2-.1,2.6.9.7.9,3.1,6.6,1,1.1,2.5,1.6.9,1.1.7,1.2.4,1.5,1.2,6.5.5,1.3.7,1,.8.6.9.4h1.6Z" fill="#7c7c7c" stroke="#fff" stroke-linecap="round" stroke-linejoin="round" stroke-width="2"/><path d="M785.1,179.7l2.3,13.7-.2,1.1-.4,1.2-.6,1.1-.8,1.1-1,.9-1,.4h-1l-2.1-1.3-.9-.1-.8.3-.8.7-3.4,5-11.9,6.7-2,2.3-.7,1.4-.5,1.6-.3,3.5-.3,1.2-1.5,2.4-.4.9-.1,1,1.7,6.8v1.1l-.1,1-.5,1L749,247.1l-.6,1.1-.4,1.3-.1,1.3.1,1.3.3,1.2.6,1.2,4.1,4,.4,1.4-.3.7-4.2,5.6-.4,1.1-.3,1.3-.7,8.4.1,1,.4.8.6.8,2,.8,6.3.9.7.4.3.6.4,2.4.4.7.6.6,12.6,6.4,1,.1,4.2-2.3,1-.2,1.1.4,11.3,12.3,2.2,1.1,7.5.4,3.4-2.6.8-.4h.8l5.4,3.7,3.8.3,5.4-1.8,4.2,2.1,3.4,2.9.7,1,.2,1-.8,7.6.1,1.5.5,1.2.8.9,1,.3,1-.2,2.7-1.8.8-.3.9.2.8.9,4.5,9.5,1,1,4.6,2.2,4,3.4,1.6,2.1.5,1.2.7,2.5.3,2.9,4.2,1.1,1.8,1.4,2.3,2.6-2.3,6-2.1.5-1.8-.2-.9-.4-1.4-1.6-.7-.6-.8-.3h-.8l-.7.3-.7.7-.6,1-1,2.8-1.1,1.4-1.9,1.1-1,1.2-.4,2.2v2.2l.4,2.5-3.9,1.7-13-2.6-2.2-.1-1.7.2-1.8.7-.6.5-.2.7.2.9,1,2.3.3,1.4v1l-.3,1-1.1,1.3-.9.4-1.1.1-10.5-.2-1.1.3-2.6,1.1-1.9,1.1-1.4,1.4-1.3,2.7-.8,1.3-.9.8-.9.3-1.5-.3-6.3-2.9-1.3-.2-3.1-1.7-3.7-3.1-2.3-.9-3.6-.5-.7,3.7-.2,3.9,1.2,3.8,1.3,1.6-1.3,2.8-.5.6-5.1,4.9-2,2.6-.6.4-1.1-.1-9.6.2-1.1.3-.6.8-.4,1.2-.7,4.2-.4,1.1-.6.7-.7.3-.7-.2-1-.9-.8-1.5.3-1.5v-1.3l-.2-1.6L748,400l-2.8-4.2-3-2.9-5.5-1.7-2.4-1.4-.9-1.1-.4-1.2.2-4.4-.2-1.2-.9-1.8-6.8-6.7-.8-1.2L724,371l-.9-5.3-1.4-3.4-1.8-2.9-1-.9-5.8-2.4-1.4-.1-1.3.3-.9.8-.6,1.4-.2,2.7.3,1.8,2.7,4.5,1,2.7.4,1.4.1,1.5-.1,1.4-.4,1.2-1.8,2.7-2.3,2.7-1.3,1-1.4.6h-1.2l-8-6.2-.8-1.2-.1-1.1.7-1,.9-1,.7-1,.5-1.2.2-1.1v-1.2l-.2-1.3L695,357l-.4-1.6-.1-1.2.3-1,1.7-.8.4-.5-.4-1.3-6.3-6.3-2-3.4-.5-1.6-.2-1.3.4-.9,1.1-.4,4.7,1.2.9-.3.8-.9.7-1.7.6-2.7,1.4-1.6.9-3.4.4-4.6.4-1.6,4.5-4.8-1.1-7.7-1.4-2.2-2.4-.9-.8-.8-.5-1.3-.4-3.9-6.1-12.4-2.4-3.6-.8-1.7-.3-1.9.2-1.8,2.4-5.1-.2-5.5.1-6.2-.1-1.4-1.1-4.4-.6-5.1-.7-2.2-1-1.8-.1-1.1.5-1.2,3.9-2.3,3.1-3.2,4.5-3.3.7-.6.6-1.8-.3-2.3-.9-2.5.2-2.4,3.7-12.5,5.6-14.3,1.6-.4,1.4-1.3,2.5-3.4,1.7-1.2,1.3-.1,2.8,1,1.3-.1.4-.8-.1-2.8.4-.7,2.2.1.9.6.7,1.4,1.5,2.3,1.8.7,1-2-.3-3-1.9-2.5-.3-5.7-1.5-4.1-2.7-3-3.6-2.1-2.8-2.8-1.4-4.5-1.1-4.9-1.7-4.3-4.7-7v-3.2l4-2.5,3.4.5,6.3,3.8,3.4-.4,15.2,4.3,1.6.9,3.4,2.9,1.9,1,2.1.1,4.5-1,1.7.6-.3.6.5,2.5.9,3,.9,2,1.4,1.6,5.2,3.3,3.5,1,6.9-.2,3.1,1.3-2.7,1.1.9,1.7,1.3,1.2-.2,3,.3,3,1,2.3,2,1.5,1.6-4.2,3.3-.3Z" fill="#7c7c7c" stroke="#fff" stroke-linecap="round" stroke-linejoin="round" stroke-width="2"/><path d="M696.7,332.3l-1.6.3-7.4-3.7-3.5-1.3-3.7-.3-4.9.4-1.4-.2-1.8-.9-1.2-.3h-7.8l-1.3.6-.8,1-.2,1.9-.2,1.5-.5.9-1.3,1.1L641.6,335l-3.6-.3-2.8-.9-6.1-3.9-5.2-1.9-1.6-1.2-1-1.5-.9-1.7L619,322l-1.9-1.6-5.5-3.7-4.4-2.2-3-.9-3.8-.2-3.2.3-1.6-.4-1.1-.7-.9-2.2-1-1.1-1.7-.9-3.4-.7-2.2-.8-2-1-2-1.4-1-.4-.9-.1-1,1.2-.7,1.8-.5.9-.7.6-1.7.6-.7.4-2.2,2.5-1.5,1H569l-1.6-.5-2-.9-1.3.2-1,.5-3.8-1-2.3-4.7-2-2.8-2.4-1.9-3.8-1.9-.6-.5-.4-.8-.3-2.3-.5-1.1-.8-.8-2.1-1.3-3.9-1-6.7-5.3-2.6-.7-11.3.9-.8-.4-1.6-1.8-3.8-6.2-2.8-3.3-6.4-4.3.2-1.8.6-2.4.7-2.2.5-2.6.1-4.6.1-.9.9-2.7-.2-1.1-1.4-1.7-1.1-.9-1-.5-2-.5-1.1-.9-5.4-5.2-1.1-.7-5-1.6-3.4-2.3-1.1-1.1-1.7-2.7.7-1.1,2.7-1.3,3-.8,1.4.1.3-3.2v-.8l-.8-3.8v-1.2l.6-1.4,2.4-2.4,8.1,3.1,1.2-.1,8.9-8.5,2.9-1.4,2.2-.2,5.8,2.9h2.2l4.5-1.3.8.2,6,4.1,1.1.3.9-.3.8-.9,1.9-6.3.7-1.4.9-1.2,7.4-2.1.7.3.6.8,1.4,5.9,1,2.4,1.2,1.4.6.2.8-.4,9.4-9.3,1.4-.6,6.2-.2,4.1,1.3.8.6.4.9.2,1.2v4.7l.3,1.4.7,1.3,1.2.8,8.5,1.7.8.7,1.1,2.3,1.5,2.2,1.8,1.6,1.6.9,1.3.3.6.5,2.3,3,.7.5,1.7.4,5.7,4.9,2.2-1.6,2.3-.9,13.2-1.3,2-1,.9-.9.7-1,.6-1.3.6-2.9.7-1,.8-.7,15.3-7.3.8-1.1.4-1.4.2-3.1.3-1.4.4-1.1.6-.8.8-.4,15.6,5,5.1,4.7,6.2,3.3,6-.5,4.5-6.2,3.3-2.4,1.8-2.5,1.6-3.2,2.7-4,3.3-2.8,2.9-.5,3,.2,1.8-.4L703,213.2l-3.7,12.5-.2,2.4.9,2.5.3,2.3-.6,1.8-.7.6-4.5,3.3-3.1,3.2-3.9,2.3-.5,1.2.1,1.1,1,1.8.7,2.2.6,5.1,1.1,4.4.1,1.4-.1,6.2.2,5.5-2.4,5.1-.2,1.8.3,1.9.8,1.7,2.4,3.6,6.1,12.4.4,3.9.5,1.3.8.8,2.4.9,1.4,2.2,1.1,7.7-4.5,4.8-.4,1.6-.4,4.6-.9,3.4-1.4,1.6Z" fill="#7c7c7c" stroke="#fff" stroke-linecap="round" stroke-linejoin="round" stroke-width="2"/><path d="M131.6,148.1l4.9,4.2,2.5,1.4,9.7,1.1.9.7.7,1,1,2,1.1,1.4,1.8,1.4,3.7.8,4.5.2,4.2,1.1,2.2,1.2,1,1.1.7,1.5.8,3.1.2,2,.1,2-.3,5v1.5l.3,2.7.5,3,.2,2.4-.1,1.2-.7,2.2.5,1.9,1.1,2.3,3.1,4.8,1,2.5.4,1.9-1.1,2-2.2,2.8-.5,1.5.4.7,1.1,1.1,3.1,2.2,1.8,1.6-1.6.7-.9,1-.6,1.2-.1,1.4.1,1.4.4,1.4,1,2.4.1.9-.6.6-8.6,1.9-.6.6-.3.9v1.2l.1,1.3,1.7,6.8-.2.9-.6.6-.8.3-1.9.1-2-.8-5.2-5.9-10.2-2-.7.1-1.5,1-3.2,3.5-13.7,7.4-.8.7-.6,1.2-1.9,9.7-.7.8-.9.3-2.4-.6-4-2-1.6.3-3.7,2.7-.5.2-1.1-.5-3.3-3.4-11.4-.2-1,.5-4.5,5.3-.7.4-2.1.4-2.5-.3-4.4-1.6h-.8l-.8.4-4,4-1.1.6-1.4.3-7-1.3-.9-1.7-2.1-.8-6-3.6.1-2.5,1-3.1-.3-3.3L56.4,247l-5.5-.6-2.2-2.2h-.2l-22.3-12-.5-1.4v-2.1l-.3-2.4L24.1,224l-2.2-1.8-2.3-1.4-2.1-1.9-1.3-3.5-.1-3.4,1.1-5.3-.5-3.4-1.1-2.8-1.7-2.6L10.3,194,3,189.4l-1.5-2.7,1.8-2.8,1.6-1,1-1.1.2-3-.5-3.3-1.2-2L1,169.9l10.8.8,2.8,2,.9,2.2v3.9l.5,1.8,1.7,1.5,2.1.7,4.3.1,1,.6.5.8-.1,1.1-.6,1.3-1.2.8-.2.5.6,1,2.6,2.6.6.9.6,1.5.4,2.5,1.8,6.4,1.5,2.3,2.5.3,2.1-1.5v-2l-.9-2.5-.4-2.8.4-4.1.8-2.2,2.9-3.7.4-3.7,1.2-1.8,1.7-1.2,1.7-1.7,4.5-8.4,1.6-1.6,4.4-2.4,1.7-1.6.5-.3,1.4.1.6-.4.3-.8-.3-2.2.7-2.2.5-1.1,5.2-4.5,5.9-1.8,11.1-.8,7.9,1.4,1.9-.2,1.6-1.6,3.3-5.1,1.9-1.8,2.4-.9,2.4-.2,2.6.4.9-.3,2.1-1.4,1.3-.3,1.2.4,13.7,8.3,5.1.3,1.2-1.2Z" fill="#7c7c7c" stroke="#fff" stroke-linecap="round" stroke-linejoin="round" stroke-width="2"/><path d="M421.2,346.7l2.1,2.3.6,1,.4,1.1v1.1l-.6,1-1,.7-5.2,1.6-.9.5-.3.9,2.2,8,.4,3.7-.2,4.2-3.1,12.3v1.6l.4,1.4.6,1.1,2.5,2.4.7,1.3V394l-.3,4.7.2,1.1.4,1.2.8,1.1,5.5,5.2,2.8,1.7,1.3.2,1.4-.4,2.5-2.4,1.3-.4,1.3.1,2.3,1.4,3.3,3.2,4.3,2.9,3.9,5.2,5.9,3.8h.6l.7-.4,2.6-4,.7-.5.8-.3.9.1,7.8,4.1.6.4,1.7.4,7.2.9,1.2.5.9,1.2.6,1.9.3,3.6.3,2.1.5,1.5.7,1,7,6.6,1.3.5,3.1-.5,7,1.3,2.1-.2,5.7-2.3,1.1-.1.6.4,7,7,.9,1.2.3,1.4-.4.5-1.4.9-1,.3-3.2.2-.8.1-.8,1.3-.3,2.6-.3,1.1-.7,1.5-4.8,5.7-.7.9-.6,2.7.4,1.5,1.2.3.5.5,1.2,2.6.9.6,1,.2,2.3.2,1.8.4,1.3,1.1.8,1.1.1.8v1l-.7,2.3-2.3,5.7-.5,1.8-.6,1.4-.4,2.1-3.4-1.3-7.3-6.3-3.1-1.9-6.6-2.2-7.1-3.6-3.3-.9-6.9-.1-.7-.5-.7-1.1-.7-1H472l-.6,1-.4,3-.5,1.2-2,2.4-.8.5-11.2,3.1-3-.1,1-3.2.1-3.1-.7-3-1-3.2-11.5-.9-8.2-2.9-3.3.5-.4.3-.3.8.2,2.2-2,4.8-.1,6.4.6,6.9v6.2l-3.1,14-1.1,2.9-.3,1.5.3,1.4.7,1.8,1,1.9-1.7,3.9-3,.3-7.7-3.2-7.7-1-2.2.8-.9,2.2-.6,2.7-1.4,2.6-.8,4.3-7.7,6.8-2.8,4.6-.6,6,.1,6.8-.7,5.8-3,3-2.4-.1-1.2-1.5-.9-2.1-1.5-2.1-1-.2-2.3.8-1.1-.2-.5-.9v-1.5l-.2-1.4-.9-.9-2.3.2-4.4,2.2-2.2.5-1.8-.5-5.9-3.1-3.5-4.1-2.2,1.4-3.3,8.9-2.3,2.4-7.7,3.3-2.9,2.4-1.2.4-1.4.2-14.7-5.2L296,561.5l-5-2.2-1.2-1.1-2.6-3.1-.6-1.3-.7-3,.3-.7.8-.3,1-2.1.4-.3.8.1.6-.2.3-1.4-.4-1.3-.9-.6-1-.5-.7-.7-1-1.8-2.4-3.8-1.3-1.4-10-5.5-3.2-2.7-2.7-2.1-2.8-1.5-5.9-1.6-2.9-3-7.1-14.3-3.5-5.3-2-1.2-5.5-.9-2.8-1.3-2.6-2.5-2.3-3.5-1.5-4.1-.4-4.3-2.7.3L222,481l-2.5-2.1-2.6-1.5-2.4-.6-.2-2.1,3.2-6.9,3.4-5.3,3.2-3.2.7-1.2.4-1.3.1-2-.4-2.4-.1-2.4.6-3.3,1.9-4.9,1.5-1.8,1.4-.6,1.8.3,1.2-.5,1.4-2,3.9-7.4,1.3-1.3,1.6-1,1.2-.4.8-.7.1-.9-.7-1.6-2-2.1-.6-.8-.2-.8.1-.9,1.4-2.1.5-.9.2-.8v-1.3l-.9-2.2.2-1.6,1.3-1.4,2.5-1.6.8-.6,1.1-2.5.8-2.9,1.3-2.9,2.8-4.8.7-1.4.2-1.5-.2-1.9-.8-4-.4-2.8.3-3.5,1-4.3.2-1.1-.2-2-1.9-7.3-2.1-4.7,8.6-5H259l1.7,1.2.8.3,3.1.1,1.8.6.9.6,2.6,1.5,1.3.2,1.5-.2,2.7-1.4,1.9-1.2,7.1-2.2.8-.8.8-2.6.8-1.6.9-.8,1.7-.9,1-.2,1.1.2,1.5.8,1.8,1.4.9.3,2.8.2,1.9.7,3.9.1,8.6-1.1,2.9-1.2,2.7-2.7,1.3-.6,1.8-.4h2.3l1.8.5,1.3.9.5,1.5.6.9,1.7.6L331,350l1,1.5.7.6,1.1.5,1.1.1,1.5-.2,6.9-3.9,1.2-.2,1.9-.1,1.9.5,2.5,1.3,2.7.4,16.4-.7,1.9.5-.2,1.3.3.9,3.5.5,1.6-.2,1.6-.4,3.5-2.3,2.2-2.2,1-.5,4.8-1,2-1.6,1-1.4.3-6,.3-1.4.9-1.8,1-1.5,1.9-1.6,1.2-.1.8.9,1.1,1.4,1.3,1,4.3,1.3.8.7.5.9.2,2,.7.5,1.5.2,2.9-.6,1.8.7.9.6,1.3,3.2.6.9,1.5,1.5,1.3.7,1-.2Z" fill="#7c7c7c" stroke="#fff" stroke-linecap="round" stroke-linejoin="round" stroke-width="2"/><path d="M638,334.7l-.3,2.5-.7,2.6-1.8,4.6v1.2l.3,1,4.1,4,.5,1.1.3,1.3.2,1.4-.1,1.4-.3,1.3-.4,1.1-.6.7-4.4.8-.7.5-.4.7V362l.8,3,.4,10.4.3,1.6,2.7,8.7.2,1.6-.1,1.4-.6,1.1-12.9,7.9-1.9,1.9-1.5,2.5-.6,1.4-.3,1.6-.1,1.4.4,1.9,1,1.9.4,1.6-.2.7-.4.5-3.2,1.3-.7.7-.5,1-.7,2.8-.2,2.8.2,1.3.3,1.1.6.8,1.9,1,.7.6.6.8.3,1v1.1l-.3,1.2-.7,1.2-2.1,2.5-.6,1.2-.3,1.1.2,2,1.2,2.9.3,1v1.1l-.3,1-1,2.3-3.2,3.9-10.4,3.4-.6.5-3.1,4.6-1.2,1-1.5.5-10.2-1.7-.7.2-2.6,2-.9.4-4.4.2-1.8-.5-.8-.7-.7-.9-.6-1.4-.8-1-1-.1-1.1.6-3.8,4.8-.6-.2-1.4-.1-.7.3-.8.7-.5,1-.8,3.2-.7,1-1,.5-5.1-.5-4.1,1.9-10.7,9.7-.9.1-.9-.3-4.4-3.8-1-.4h-1.1l-.9.4-1.5,1.2-1.1,1.3-.4,1-1.2,1.7-.8.7-.8.1-.9-.4-2.8-4.5-1.1-.9-1-.6-1-.1-.9.2-.7.6-.4,1-.1-.8-.8-1.1-1.3-1.1-1.8-.4-2.3-.2-1-.2-.9-.6-1.2-2.6-.5-.5-1.2-.3-.4-1.5.6-2.7.7-.9,4.8-5.7.7-1.5.3-1.1.3-2.6.8-1.3.8-.1,3.2-.2,1-.3,1.4-.9.4-.5-.3-1.4-.9-1.2-7-7-.6-.4-1.1.1-5.7,2.3-2.1.2-7-1.3-3.1.5-1.3-.5-7-6.6-.7-1-.5-1.5-.3-2.1-.3-3.6-.6-1.9-.9-1.2-1.2-.5-7.2-.9-1.7-.4-.6-.4-7.8-4.1-.9-.1-.8.3-.7.5-2.6,4-.7.4h-.6l-5.9-3.8-3.9-5.2-4.3-2.9-3.3-3.2-2.3-1.4-1.3-.1-1.3.4-2.5,2.4-1.4.4-1.3-.2-2.8-1.7-5.5-5.2-.8-1.1-.4-1.2-.2-1.1.3-4.7v-1.1l-.7-1.3-2.5-2.4-.6-1.1-.4-1.4v-1.6l3.1-12.3.2-4.2-.4-3.7-2.2-8,.3-.9.9-.5,5.2-1.6,1-.7.6-1v-1.1l-.4-1.1-.6-1-2.1-2.3,1.2-.5,1.7-1.5.6-1.1.7-1.8.9-1.4,2.8-1.5.6-1.1-.5-1.8.1-.6.7-1,.7-.1,1.2.1,5.8,2.5,1.6.1,2-.2,3.5-1.1,4.3.1,2.5,1.1,4.2-.7,11.5-5.6.4-2.7-.4-2.5-.7-2-.8-1.3-.8-.9-6.7-5-.7-.9-.2-1,.4-1.7.7-1.2,3.4-3.9,1.2-1.8.4-.9.4-1.9.8-1.8,1.2-1.3,1.2-.4.8.1,1.9,1.2.8.2,1.2-.2,6-3.6,5.2-2,5.2-4.7.9-.5,3.8.6,2-.4,1.2-.6.9-.8.5-.8.4-1,.6-3.7.5-1.8,1.2-2.2,1.6-1.5,1.5-.5.6-.6.2-1.2L504,273l.2-1.9,6.4,4.3,2.8,3.3,3.8,6.2,1.6,1.8.8.4,11.3-.9,2.6.7,6.7,5.3,3.9,1,2.1,1.3.8.8.5,1.1.3,2.3.4.8.6.5,3.8,1.9,2.4,1.9,2,2.8,2.3,4.7,3.8,1,1-.5,1.3-.2,2,.9,1.6.5h1.4l1.5-1,2.2-2.5.7-.4,1.7-.6.7-.6.5-.9.7-1.8,1-1.2.9.1,1,.4,2,1.4,2,1,2.2.8,3.4.7,1.7.9,1,1.1.9,2.2,1.1.7,1.6.4,3.2-.3,3.8.2,3,.9,4.4,2.2,5.5,3.7L619,322l1.4,1.6.9,1.7,1,1.5,1.6,1.2,5.2,1.9,6.1,3.9,2.8.9Z" fill="#7c7c7c" stroke="#fff" stroke-linecap="round" stroke-linejoin="round" stroke-width="2"/><path d="M378.7,215.7l.5,1,1,1.2,1,.6,3.1,1,.9.7.6,1.1.2,1.2-.4,1.5-1.2,1.7-4.2,4-.4.7-.2.8.8,1.9.3,1.3-.2,2.1.1.6.9,2.2v1.1l-1.1,2.2-3.3.8-5.3.3-2.6-.3-2.1-.5-.7-.4-1.4.1-1.4.4-2.4,1.8-2.2,2-.9.5-6.6,2.1-10.6,1.9-6.2,2.6-2.1-.5-.8-.9-.2-1.4.3-3.8-.5-1.7-4-4.6-1-1.9-.8-2.8-1.1-2.1-3.6-4.6-.5-.7-.1-1.1.9-2.6-.1-1-1.3-1.2-2.7-1.7-.7-.9.1-.7.5-.7,2.8-1.7,7-2.6h1.7l3.7,1.6.7.1.9-.2.8-.5.8-1.2L335,212l.4-1.3.6-.5,19.5-5.7,7.3-.8,1.6.3,1.7,1,2.3,2.4,1.8,1.4.7.8.5,1.5.6,1,1.1.5,3.5.9,1.1.8,1,1.4Z" fill="#7c7c7c" stroke="#fff" stroke-linecap="round" stroke-linejoin="round" stroke-width="2"/><path d="M451.9,123.7l.3.9-.1.9-1,1.6-.5,1.2-.1,1.9.4,1.4,1,1.8.8,2.1,1.3,9.3.1,2.3-.2,1.9-.5,1.3-1.3,2.3-1.2,1.8-.9,3-.2,3.4.2,1.5.3.9.4.2,7.3,3.2.9.6.9.9,1.3,2,.6,1.9.4,2.6.5,1.2.8.9.8.4h2.1l2.8-.6,1.3.1,4,.9,6.1-.7h1.1l.9.5,1.3,1.1.6,1.3.5,1.3.5,4v3.1l.4,1.9.6,2.4,2.3,6.6.3,1.3-.5,1.5-.6,1-2.4,2.5-.2.7-.1,1.1.8,1.3,2.4,1.6,1.1,1.2,1.4,1.7,1.9,2.9.6,1.4.1,1-.4.6-2.4,2.4-.6,1.4v1.2l.8,3.8v.8l-.3,3.2-1.4-.1-3,.8-2.7,1.3-.7,1.1,1.7,2.7,1.1,1.1,3.4,2.3,5,1.6,1.1.7,5.4,5.2,1.1.9,2,.5,1,.5,1.1.9,1.4,1.7.2,1.1-.9,2.7-.1.9-.1,4.6-.5,2.6-.7,2.2-.6,2.4-.2,1.8L504,273l.1,2.4-.2,1.2-.6.6-1.5.5-1.6,1.5-1.2,2.2-.5,1.8-.6,3.7-.4,1-.5.8-.9.8-1.2.6-2,.4-3.8-.6-.9.5-5.2,4.7-5.2,2-6,3.6-1.2.2-.8-.2-1.9-1.2-.8-.1-1.2.4-1.2,1.3-.8,1.8-.4,1.9-.4.9-1.2,1.8-3.4,3.9-.7,1.2-.4,1.7.2,1,.7.9,6.7,5,.8.9.8,1.3.7,2,.4,2.5-.4,2.7-11.5,5.6-4.2.7-2.5-1.1-4.3-.1-3.5,1.1-2,.2-1.6-.1-5.8-2.5-1.2-.1-.7.1-.7,1-.1.6.5,1.8-.6,1.1-2.8,1.5-.9,1.4-.7,1.8-.6,1.1-1.7,1.5-1.2.5-1,.2-1.3-.7-1.5-1.5-.6-.9-1.3-3.2-.9-.6-1.8-.7-2.9.6-1.5-.2-.7-.5-.2-2-.5-.9-.8-.7-4.3-1.3-1.3-1-1.1-1.4-.8-.9-1.2.1-1.9,1.6-1,1.5-.9,1.8-.3,1.4-.3,6-1,1.4-2,1.6-4.8,1-1,.5-2.2,2.2-3.5,2.3-1.6.4-1.6.2-3.5-.5-.3-.9.2-1.3-1.9-.5-16.4.7-2.7-.4-2.5-1.3-1.9-.5-1.9.1-1.2.2-6.9,3.9-1.5.2-1.1-.1-1.1-.5-.7-.6-1-1.5-1.2-1.1-1.7-.6-.6-.9-.5-1.5-1.3-.9-1.8-.5h-2.3l-1.8.4-1.3.6-2.7,2.7-2.9,1.2-8.6,1.1-3.9-.1-1.9-.7-2.8-.2-.9-.3-1.8-1.4-1.5-.8-1.1-.2-1,.2-1.7.9-.9.8-.8,1.6-.8,2.6-.8.8-7.1,2.2-1.9,1.2-2.7,1.4-1.5.2-1.3-.2-2.6-1.5-.9-.6-1.8-.6-3.1-.1-.8-.3-1.7-1.2h-1.5l-8.6,5v-2.1l1.1-3.4.4-2.2v-1.3l-.3-1.6-1-1.5-1.4-1.8-.5-1-.4-1.4-.2-2.3.1-5.7-.3-1.2-.5-1.2-1.3-1.5-1-.7-1.4-.6-.8-.5-.5-.8-.4-1.8.1-.8,1.3-1.3.3-.6-.5-1.2-1.9-1.2v-.3l.9-.7,1.2-.7.2-.7-.2-.8-2.2-2-.6-1,.4-1.1.8-1,1.7-1.7,1.7-1.1,1.8-.8,4.4-1,1.1-.6,1.1-1.1,3.7-4.1.5-1-.1-.7-.3-.8-1.1-.6-1.4-.6-.6-.9.1-1.3.2-1.2,1.5-5.1.1-1.1-.5-2.3-.1-1.5,1.8-4.7.3-1.5v-4l.7-1.1,1.8-.2,1.8-.8.2-1-.1-1.1-1.5-4.9-.2-1.2v-2l.3-.8-.7-1.1-1.3-1.3-7.7-4-.5-1.9-.6-.9-.9-.6-4.9-1.5-.9-.5-1-.8-3.8-4.3-1.3-.8-1.6-.8-2.8-.8-1.5-.1-1.2.1-2,.5-2,.2-2.7-.3-1.3-.9-7.1-6.9-2.6-1.2-2.4-.6-2-.8-1.6.2-3,1.7-1.6.4-1.5-.1-.8-.3-.5-.7v-1l.6-1.6,1-2.4v-2.2l-1.8-4.6,1.6-2.2,1.8-1,2.3-.6,1.5-.7,3.8-3.8,1.7-1.2,1.4-1.8,1.4-3.4,2-3.1.8-1,1.7-1,8.7-3.6,6.3-4.1,1.4-1.4,1.6-1.1,1.2-.4H238l1,.2,1.5.7h.7l2.6-.7,14.1-7.4,1.2-.1,1.2.5,1,.8,1.1.4,1-.2,1.7-1.3.8-.9,1.8-2.3,8.8-5.5,1.4-.5,2,.1,1.2-.1,1.2-.5.8-1.3.4-1.7-.2-1.4.2-2.3.3-1,.6-1,1.2-.5,1.8-.5,6.1-.2,3.7.8,3.4,1.2,3,.4,11.6-2,4.8,1.8,1.9-.7,3.2-2.7,1.2-.8,1.1-.3,4.2-.4,2.6.2,1.1-.2,1.2-.7,1.2-1.7,1-2.7.8-1.1.1-1.4-.9-3.2.1-2.2v-.9l-.9-3-.3-.9.2-.9.5-.5,1.2.2,2,.9,1.5.3,2.2-1.1,4.3-3.6,1.2-.7.9-.7.5-1,.5-1.8.2-1.9v-1.4l.3-1.9,1-1.7,1-.7,1.6-.5,6.6-.1,2.8.4,2.3-.1,1,.1.7.4.5,1.2.5,2.6.7.9,1.3.2,2.6-.3,13.2-3.4,6-4,5.4-2.6,1.3-1,1.8-1.7,1.1-.8,2.4-1.3,1.3-1.1,1-1.4,1.6-3.1,1.5-1.9,3.1-2.6.8-1.1,1.7-2.8.6-.7.7-.3.8.1,1.5.6h1.2l1.7-.8,1-.2,1.1.1,1.4,1.2,1.2.6,3.5-.3.8.2.8.6,2.8,3.3.9.9,2.1.6,3.8-1,1.3,6.8,1.5,2.9,5.3,4.7Zm-73.2,92-1-1.4-1.1-.8-3.5-.9-1.1-.5-.6-1-.5-1.5-.7-.8-1.8-1.4-2.3-2.4-1.7-1-1.6-.3-7.3.8L336,210.2l-.6.5L335,212l.4,2.5-.8,1.2-.8.5-.9.2-.7-.1-3.7-1.6h-1.7l-7,2.6L317,219l-.5.7-.1.7.7.9,2.7,1.7,1.3,1.2.1,1-.9,2.6.1,1.1.5.7,3.6,4.6,1.1,2.1.8,2.8,1,1.9,4,4.6.5,1.7-.3,3.8.2,1.4.8.9,2.1.5,6.2-2.6,10.6-1.9,6.6-2.1.9-.5,2.2-2,2.4-1.8,1.4-.4,1.4-.1.7.4,2.1.5,2.6.3,5.3-.3,3.3-.8,1.1-2.2v-1.1l-.9-2.2-.1-.6.2-2.1-.3-1.3-.8-1.9.2-.8.4-.7,4.2-4,1.2-1.7.4-1.5-.2-1.2-.6-1.1-.9-.7-3.1-1-1-.6-1-1.2-.5-1Z" fill="#7c7c7c" stroke="#fff" stroke-linecap="round" stroke-linejoin="round" stroke-width="2"/><path d="M509.6,61.3l2.1,6.8,4.9,9.9.4,1.9-.3,1.3-.5,1.3-.4,1.7-.2,2.1.2,4.6.4,2.1.7,1.7,1.8,2.4.7,1.2.5,1.3.2,1.3v2.9l-1.1,4.9.3,1.8,5,11.7.3,1.4.1,1.4-.2,1.5-.6,1.3-.8.7-1.1.2-11.3-2-1.7-1.1-3.1-3.3-.8-.5h-1.7l-3.8,1.3-.9.6-.4,1.3-.5,7.4-.4,1.6-.6,1.2-.9.8-1,.3-1-.1-1.1-.5-2.2-1.9-4.5-5.8-2.8-2.3-6.4-2.6h-1.6l-1.5.6-6.3,7.2-.9.4-.9-.1-1-.5-8.2-6.9-2.3-.9-1.5.2-.8.6-5.3-4.7-1.5-2.9-1.3-6.8-3.8,1-2.1-.6-.9-.9-2.8-3.3-.8-.6-.8-.2-3.5.3-1.2-.6-1.4-1.2-1.1-.1-1,.2-1.7.8h-1.2l-1.5-.6-.8-.1-.7.3-.6.7-1.7,2.8-.8,1.1-3.1,2.6-1.5,1.9-1.6,3.1-1,1.4-1.3,1.1-2.4,1.3-1.1.8-1.8,1.7-1.3,1-5.4,2.6-6,4-13.2,3.4-2.6.3-1.3-.2-.7-.9-.5-2.6-.5-1.2-.7-.4-1-.1-2.3.1-2.8-.4-6.6.1-1.6.5-1.1-5.3-10.5-8.7-8.3-26.2-.2-1.3.2-1,.5-.9.7-.8,2.1-1.3,2.7-7,.6-.8,3.3-3.2.4-.8.2-1V67.7l.3-1.2,1.1-1.9,1.9-1.8,1.7-9.6.5-1.2.8-.2,1.1.5,7.7,8,1.2.3,1.3-.3,1.1-.8.9-1.2.8-1.5.4-1.7.3-3.6.3-1.2.5-.8.6-.5,4.4-.4.7-.4,1-1.4.5-2,.7,1.8,5.1,1.4,2.1,1.2,5.7,4.3,5.4,1.2,3.2.1,2.4-.6,1.5-1.7,1.4-2.7,2.3-6.2,3.1.1,5.4-1.5,16.8,1.2.3-2-.1-8.1-.3-1.6.1-1.3.4-.8,1.5-1.6.4-1.2-.1-6.8-2.3-3.3-2.4-1.9-.6-2.7,1.5-1.4,1.6-.6,2.2-1.5.7-1.1.4-2L436,8.1l7.4,1.7,1.3,2.3,1.7,1.7,2.1,1,1.7-.3.5-2.4L452,9l1.9-1.3,1.7.9.7,3.5,1.4,3.5,8.4.1,3.9,2,2.4,3.8-.2,2.3L471,26.2l-1.1,4.3.5,3.4,1.3,4.1,1.8,3.9,1.6,2.5,2.9,2.4,2.7,1.1,2.2,1.9,1.8,4.4v2.3l-.4,2.3-.1,2.2.9,2,2.1.6,1.7-1.7,1.4-2.5,1.3-1.7,6.2-.5,11.8,4.1Z" fill="#7c7c7c" stroke="#fff" stroke-linecap="round" stroke-linejoin="round" stroke-width="2"/><path d="M666.4,213.2l-15.6-5-.8.4-.6.8-.4,1.1-.3,1.4-.2,3.1-.4,1.4-.8,1.1L632,224.8l-.8.7-.7,1-.6,2.9-.6,1.3-.7,1-.9.9-2,1-13.2,1.3-2.3.9-2.2,1.6-5.7-4.9-1.7-.4-.7-.5-2.3-3-.6-.5-1.3-.3-1.6-.9-1.8-1.6-1.5-2.2-1.1-2.3-.8-.7-8.5-1.7-1.2-.8-.7-1.3-.3-1.4v-4.7L578,209l-.4-.9-.8-.6-4.1-1.3-6.2.2-1.4.6-9.4,9.3-.8.4-.6-.2-1.2-1.4-1-2.4-1.4-5.9-.6-.8-.7-.3-7.4,2.1-.9,1.2-.7,1.4-1.9,6.3-.8.9-.9.3-1.1-.3-6-4.1-.8-.2-4.5,1.3h-2.2l-5.8-2.9-2.2.2-2.9,1.4-8.9,8.5-1.2.1-8.1-3.1.4-.6-.1-1-.6-1.4-1.9-2.9-1.4-1.7-1.1-1.2-2.4-1.6-.8-1.3.1-1.1.2-.7,2.4-2.5.6-1,.5-1.5-.3-1.3-2.3-6.6-.6-2.4-.4-1.9V185l-.5-4-.5-1.3-.6-1.3-1.3-1.1-.9-.5h-1.1l-6.1.7-4-.9-1.3-.1-2.8.6h-2.1l-.8-.4-.8-.9-.5-1.2-.4-2.6-.6-1.9-1.3-2-.9-.9-.9-.6-7.3-3.2-.4-.2-.3-.9-.2-1.5.2-3.4.9-3,1.2-1.8,1.3-2.3.5-1.3.2-1.9-.1-2.3-1.3-9.3-.8-2.1-1-1.8-.4-1.4.1-1.9.5-1.2,1-1.6.1-.9-.3-.9.8-.6,1.5-.2,2.3.9,8.2,6.9,1,.5.9.1.9-.4,6.3-7.2,1.5-.6h1.6l6.4,2.6,2.8,2.3,4.5,5.8,2.2,1.9,1.1.5,1,.1,1-.3.9-.8.6-1.2.4-1.6.5-7.4.4-1.3.9-.6,3.8-1.3h1.7l.8.5,3.1,3.3,1.7,1.1,11.3,2,1.1-.2.8-.7.6-1.3.2-1.5-.1-1.4-.3-1.4-5-11.7-.3-1.8,1.1-4.9v-2.9l-.2-1.3-.5-1.3-.7-1.2-1.8-2.4-.7-1.7-.4-2.1-.2-4.6.2-2.1.4-1.7.5-1.3.3-1.3-.4-1.9-4.9-9.9-2.1-6.8,17.7,6.3,1.7,1.1,1.9,3,1.1,1,1.6.5,12.3-2.9,3.6.3.3,1.6.5,1.4,7.5,12.8.9.3,4.1-.1,8.7-3.3,2.5.3,2,1.9,1.9,3.7,1.3,3.2.8,3.2-.4,2.7-2.1,1.8-.4,1.5.4,1.4,6.3-1.2,9.1-8.8,6.3.6,4.6,3.6,2.3,1,2.5-.5,1.8-2.3,1-3,1.1-2.3,1.9-.4,5.4.1,4.8,1.2,4.5,2.6L641.7,107l1.3,4.4-4.6,1.9.6,1.8v.7l-1.1,2-.4,3v1.4l-.8,1.6-3.1,3-1.4,2-2.5.5L625,128l-2.4.8-1.1,3-2.2,1.9-2.6,1.5-2.3,1.9-.8.3-1.3.9-.9.1,1,3.3-3-.7-1.2,3.7,1.4,4.1,4.8.9,1.9,5.9.7,1.4,1.9,1.5,1.1-.2,1.1-.9,1.7-.6h6.7l1.4.4,1.1,2.2.1,2.1-.2,2.1.4,2.1,2.6,3.5,6.6,2.4,3.3,2.3,2.1,3,3.8,6.8,2.1,3,1.9,3.4,4.5,4.6,1.6,4.4,1.6,7.9,1.4,2.8,2.6,3.4Z" fill="#7c7c7c" stroke="#fff" stroke-linecap="round" stroke-linejoin="round" stroke-width="2"/><path d="M932.5,384.6h-1.6l-.9-.4-.8-.6-.7-1-.5-1.3-1.2-6.5-.4-1.5-.7-1.2-.9-1.1-2.5-1.6-1-1.1-3.1-6.6-.7-.9-2.6-.9-11.2.1-1-.3-4.4-3.2-1.4-.6-23,2.3-1.3-.2-1-.6-.8-.8-.6-1.1-.6-2.9-.4-.9-1.1-1-6.5-.1-2.3-2.6-1.8-1.4-4.2-1.1-.3-2.9-.7-2.5-.5-1.2-1.6-2.1-4-3.4-4.6-2.2-1-1-4.5-9.5-.8-.9-.9-.2-.8.3-2.7,1.8-1,.2-1-.3-.8-.9-.5-1.2-.1-1.5.8-7.6-.2-1-.7-1-3.4-2.9-4.2-2.1-5.4,1.8-3.8-.3-5.4-3.7h-.8l-.8.4-3.4,2.6-7.5-.4-2.2-1.1-11.3-12.3-1.1-.4-1,.2-4.2,2.3-1-.1L759.3,286l-.6-.6-.4-.7-.4-2.4-.3-.6-.7-.4-6.3-.9-2-.8-.6-.8-.4-.8-.1-1,.7-8.4.3-1.3.4-1.1,4.2-5.6.3-.7-.4-1.4-4.1-4-.6-1.2-.3-1.2-.1-1.3.1-1.3.4-1.3.6-1.1,8.8-12.4.5-1,.1-1v-1.1l-1.7-6.8.1-1,.4-.9,1.5-2.4.3-1.2.3-3.5.5-1.6.7-1.4,2-2.3,11.9-6.7,3.4-5,.8-.7.8-.3.9.1,2.1,1.3h1l1-.4,1-.9.8-1.1.6-1.1.4-1.2.2-1.1-2.3-13.7,3.2,2.7,1.4,4.3.7.5.8.1.8-.1.7-.5,4.4-5.3,7-.7,13.2,2.4,3.4-.9,2.5-2.1,4.4-6.1.8-1.9.4-1.5,1-.7,2.5,1,.8.7,3.1,4.2v1.4l-.4.7-1.6,4.3-.3,2.1.4,2.4,1.5,1.5,2.3,4.3-1.4,3.5-2.9,2.6-6.3,3.7-4,1.6-7.1.3-1.6.8-1.1,2.3.3,1.7,7.2,9.1,2.3,1,1.5-.2,1.2-.8,1.6-.3,1.9.5,4.1,2,2,.4v.8l-1.3,1.2L834,224l.4,1.3,1.4,1.4,1.7,1.9,1,2.6.8,2.8,1.2,2.8,1.6,2.3,9.6,9.5,5.3,1.1,5.4-1.6,4.4-3.9,2.7-.7,5.9-.2,4.8-1.4.7-1-.2-2.3-1.1-1.6h-1.2l-1.2.3-.8-.3-.6-5.2,4.5,1.1,8.6,5.7-.9,4.2,1.9,2.3,9.4,1.8,2.2,1.2,4.7,4,1.7.8,3.5.7,1.8,1.3.6,1.3,1,3.6.8,1.5,3,2.4,2.1-.4,4.1-3.6-.3-.7-.6-.1,5.9-.7,5.7,2,11,6.1h3.4l5.9-3.8,2.1,1.4.9,4.1-.3,3.5.6,2.8,3.9,2.2-4,4.7v6.1l2.6,7,3.5,7.1,1.5,6.7.9,1.7,2,1.4,4.5.4,2.1.6,1.9,1.6,2.9,3.4,1.9,1.2,2.1-.2,2.4-1,2.3-.4,2.2,1.6.6,1.8,1,7.9.7,2.1,1.7,4,.7,2.1,2.1,9.7.4,4.7-.6,3.8-6.1.2-2.7,1-6.1,5.6-4.1.2-4.3-1.3-4.8-2.4-1-.2-1.1.2L964,360l-6.5-.9-3,1.9-.8,1.9-.4,4.2-.7,2-1.2,1.2-4.9,2.6-6.3,7.8-3.3,2.1-4.3-.9-.1,2.7Z" fill="#7c7c7c" stroke="#fff" stroke-linecap="round" stroke-linejoin="round" stroke-width="2"/><circle transform="translate(233 462.4)" fill="#7c7c7c" stroke="#fff" stroke-linecap="round" stroke-linejoin="round" stroke-width="2"/><circle transform="translate(705.5 454.6)" fill="#7c7c7c" stroke="#fff" stroke-linecap="round" stroke-linejoin="round" stroke-width="2"/><circle transform="translate(489.5 204.2)" fill="#7c7c7c" stroke="#fff" stroke-linecap="round" stroke-linejoin="round" stroke-width="2"/></svg>