<svg xmlns="http://www.w3.org/2000/svg" width="1406.271" height="805.668" viewBox="0 0 1406.271 805.668"><path d="M456.143,1c-14.1,25.447-.237,28.159,20.7,40.6-10.2,18.237-40.81,12.023-55.677,32-32.128,1.785-46.063,16.514-62.317,34.075-32.7-4.378-66.293-1.848-67.276,34.125-19.346,4.534-31.475-20.089-37.085,12.123-23.257-5.977-28.116,38.365-61.1,23.76,2.865,40.322-27.644,25.486-42.836,14.8-7.393,15.519-40.723,8.7-64.812,20.941C75.4,227,57.79,246.85,49.762,258.947c-3.755,50.989-7.526-15.782-25.724-12.678C29.05,219.028-8.871,228.31,9.1,248.545c-13.828,11.583,29.335,26.42,13.566,52.479,17.688,15.053,32.54,36.75,55.005,38.91-.638,18.324,28.87,30.715-1.552,51.72-3.276,21.268-29.194,38.714,9.374,47.709,3.119,31.506,22.68,55.3,31.908,83.085,15.051,9.644,29.784,46.61,46.588,25.831,29.783,16.013,41.633,48.061,61.686,74.842,44.636-14.98,36.416,77.476,67.131,48.719,23.106,5.6,27.72,29.358,46.919,38.266,8.533,29.662,47.137,39.333,64.867,61.721-29.017,25.777,44.7,22.161,60.173,34.836,16.9-2.454,22.835-32.2,31.947-24.2,21.132,9.889,29.007,2.6,46.207,15.1,6.242-34.167,17.927-77.819,58.7-59.8,1.713-17.617-8.959-91.25,16.77-75.409,24.1-4.619,23.916,36.086,45.025,8.48,15.779-15.1,48.5,20.146,72.856,24.883,23.717,25.312,44.858-6.669,63.144,16.032,12.786,32.109,74.256,32.722,100.216,32.286,13.895-41.985,54.383-22.119,68.961-2.61,30.953,5.053,47.907,3.577,50.931,36.293,13.926-25.677,18.021-59.286,43.556-75.049,11.7-37.1,21.261,27.815,27.707-6.556,19.25,31.995,32.593-11.266,53.332,12.614,30.454-16.814,57.427-32.365,78.226-52.74-6.625-33.158,58.267-12.6,38.693-57.448,1.379-40.457,21.7-57.419,58.376-71.808-13.457-24.253,30.511-18.971,27.146-51.708,19.165-5.071,65.976,8.3,63.874-22.785.189-53.741-59.082-29.817-64.59-82.992,8.656-10-4.2-45.268-13.3-22.831-28.672-31.594-41.5,11.036-53.285-18.614-17.929-13.853-30.577,4.436-41.882-26.481-34.582-4,16.642,22.6-19.3,15.077-31.843,43.282-42.021-36.876-68.527-28.793-39.639-22.487,50.242-23.136,13.945-46.587,11.061-32.172-14.612-14.8-25.452-4.5-18.614-8.091-30.949,14.384-41.275-1.132-7.941-4.728-15.356,10.912-10.676-3.621,3.095-7.945-4.5-17.06-11.979-9.2-14.238,4.125-26.864-25.293-21.807-19.2-8.62,3.69-12.937-1.055-19.428-5.5-9.094,2.629-16.3-6.183-24.239-5.347-7.089,5.6-20.98-19.216-26.3,1.012a180.746,180.746,0,0,0,20.91,37.749c17.439,1.306,16.332,40.522,3.241,19.622-.556,11.96-18.289,1.226-18.479,15.425-23.3-3.639-29.706,63.341-59.973,20.913-3.027-36.61-38.459-66.167-61.491-75.134-23.285-2-20.826-27.633,3.273-39.906,34.706-3.028,26.479-62.487-19.582-53.64C849.939,151,813.22,99.37,811.666,141.845c-8.531-6.7-4.635-37.5-38.43-24.281-.593-40.535-42.118-12.053-66.136-30.916-17.455-17.863-40.952,20.823-35.666-19.566-32.88-6.877-3.029-57.707-40.153-44.83-.483-18.6-10.2,11.6-21.862-9.54C568.459,8.9,625.91,66.459,579.7,60.993c-25.59-8.506-24.138,33.853-48.233,8.423-26.037,1.922,16.072-46.048-20.7-24.12C529.14,20.717,489.827.323,489.551,7.878,477.372,15.285,469.271,5.645,456.143,1Z" transform="translate(-4.232 -0.996)"/></svg>