<svg xmlns="http://www.w3.org/2000/svg" width="1198.375" height="1001.934" viewBox="0 0 1198.375 1001.934"><g transform="translate(-103.402 15.197)"><path d="M720.333,770.666S757,782,776.5,782.25c12,1.25,13.75-12,13.75-12" fill="none" stroke="#525252" stroke-miterlimit="10" stroke-width="7"/><path d="M732,755.333s-56.332-22-94.666-87.665-53.334-120-58.667-143S562,438,562,438s-3.666-12.333,9.667-19,31-10.333,31-10.333,4-63.334,3.667-76.667,4.667-32.333,16-50,29.334-39,47-55L666.25,205.75l2.5-7.75-4-3.75-2.25-107s1.5-70,5.75-102" fill="none" stroke="#525252" stroke-miterlimit="10" stroke-width="3"/><path d="M877.667,786.666s37,16.667,57.334,22S1053,830,1053,830l132.333,20.333L1301,868.667" fill="none" stroke="#525252" stroke-miterlimit="10" stroke-width="3"/><path d="M601,594.5s5,13.5,110.334,22.167,208,14.667,208,14.667l266,7.333,116.416,2.083" fill="none" stroke="#525252" stroke-miterlimit="10" stroke-width="3"/><path d="M561.667,432.667s3.666,4.333,29.666,6,39.334,3.666,62.334,4.333S690.5,445,696,444.333s16.889-3,23-21.333c6-18,5.667-21.333,7.5-40.5l2.834-46.167S733.5,303.5,748.5,282.75s26.5-37.5,36.75-48.25,32.25-30.5,51.5-38C836.5,171.25,834,26.5,839.5-15" fill="none" stroke="#525252" stroke-miterlimit="10" stroke-width="3"/><path d="M725.667,392.333,704.333,391s-4.666.333-5.833-7.333-12-56.5-12-56.5L675,260l-5.666-33" fill="none" stroke="#525252" stroke-miterlimit="10" stroke-width="3"/><path d="M602.75,408.667S642,389.5,698.75,385" fill="none" stroke="#525252" stroke-miterlimit="10" stroke-width="3"/><path d="M724.5,407.5s548,0,576.5-.5" fill="none" stroke="#525252" stroke-miterlimit="10" stroke-width="3"/><path d="M731.25,326.75s14-31.25,23-32.25l91-2.5,93-.75,363.083.75" fill="none" stroke="#525252" stroke-miterlimit="10" stroke-width="3"/><line y1="3.666" x2="463.666" transform="translate(836.584 192.542)" fill="none" stroke="#525252" stroke-miterlimit="10" stroke-width="3"/><line y1="207" transform="translate(1213 -14)" fill="none" stroke="#525252" stroke-miterlimit="10" stroke-width="3"/><line y1="3.167" x2="154.25" transform="translate(668.75 194.833)" fill="none" stroke="#525252" stroke-miterlimit="10" stroke-width="3"/><path d="M164.234,911.307a39.01,39.01,0,0,0-57.284,18.835l2.424,33.292a39,39,0,0,0,59.408,10.338Z" fill="none" stroke="#525252" stroke-miterlimit="10" stroke-width="7"/><path d="M168.746,972.122s.664-9.238,5.65-9.6l34.908-2.542a111.958,111.958,0,0,0,16.9-3.168h0l7.751-14.08-16.826-3.876,7.326-12.979-15.541-6.89,1.331-7.533-.2.052c-2.271.558-4.648,1.049-7.166,1.483-4.748,1.348-5.526,4.412-9.682,4.715l-24.934,1.815s-3.441-.207-3.841-5.693" fill="none" stroke="#525252" stroke-miterlimit="10" stroke-width="7"/><path d="M421.932,643.747l13.48,8.754L440.5,636l12.413,8.25,8-15,7.417,1.874h0c2.758,16.037,9.1,27.286,21.006,45.874,13.667,21.334,52,34.333,52,34.333l179,59.333s3.334-6.333,11.667-15.333C749.333,762,791.667,771,791.667,771l86,15.666s2.666,20.667-4.334,39.667-24.053,26.75-24.053,26.75H791.833L774,845.833V847.5h-8.375l-3.875.5-2.375,2.375L756,850.75l-.5-1-2.875-.25s-1.625,1.5-2.25-.875c.125-5.25-3.041-6.959-3.041-6.959s-2,0-10.334-1.666-27.666-7-27.666-7L521.667,762.667s-44-15.667-72.667-55a156.546,156.546,0,0,1-27.066-63.919Z" fill="none" stroke="#525252" stroke-linejoin="round" stroke-miterlimit="10" stroke-width="7"/></g></svg>