<?xml version="1.0" encoding="utf-8"?>
<!-- Generator: Adobe Illustrator 16.0.3, SVG Export Plug-In . SVG Version: 6.00 Build 0)  -->
<!DOCTYPE svg PUBLIC "-//W3C//DTD SVG 1.1//EN" "http://www.w3.org/Graphics/SVG/1.1/DTD/svg11.dtd">
<svg version="1.1" id="Vrstva_1" xmlns="http://www.w3.org/2000/svg" xmlns:xlink="http://www.w3.org/1999/xlink" x="0px" y="0px"
	 width="331.525px" height="315px" viewBox="0 0 331.525 315" enable-background="new 0 0 331.525 315" xml:space="preserve">
<polygon fill="#FFFFFF" points="8.004,0 267.821,314.366 329.525,315 329.525,0 "/>
<polygon points="0,0 189.125,230.609 198.599,212.368 22.775,0 "/>
<polygon fill="#FF9900" points="329.525,0 115.875,315 331.525,315 331.525,0 "/>
<path fill="#1D1D1B" d="M214.212,71.563l6.477-18.646l6.522,18.646h9.372L247.76,37.89h-10.002l-6.069,20.154l-6.72-20.254h-8.31
	l-6.721,20.254l-6.07-20.154h-10.202l11.178,33.674L214.212,71.563L214.212,71.563z M182.62,71.563
	c6.248-2.955,10.352-9.125,10.352-16.256v-0.101c0-10.002-7.965-18.015-18.712-18.015c-10.749,0-18.813,8.113-18.813,18.115v0.1
	c0,7.113,4.03,13.222,10.224,16.156h4.298v-6.018c-4.145-1.725-6.915-5.799-6.915-10.371c0-6.205,5.031-11.236,11.233-11.236
	c6.205,0,11.237,5.031,11.237,11.236c0,4.572-2.769,8.646-6.912,10.371v6.018L182.62,71.563L182.62,71.563z M143.453,71.563V46.349
	h10.451V37.89h-30.555v8.459h10.45v25.215L143.453,71.563L143.453,71.563z"/>
<path fill="#1D1D1B" d="M233.412,107.851h4.841V84.968h8.669v-4.451h-22.18v4.451h8.67V107.851z M195.844,107.851h4.726V88.403
	l15.074,19.447h4.022V80.517h-4.728v18.898l-14.643-18.898h-4.453L195.844,107.851L195.844,107.851z M183.737,107.851h4.805V80.517
	h-4.805V107.851z M163.394,103.906c-5.43,0-9.295-4.411-9.295-9.724v-0.078c0-5.311,3.788-9.645,9.216-9.645
	c5.428,0,9.293,4.413,9.293,9.723v0.08C172.608,99.573,168.823,103.906,163.394,103.906 M163.315,108.32
	c8.397,0,14.333-6.444,14.333-14.138v-0.078c0-7.692-5.858-14.058-14.252-14.058c-8.396,0-14.332,6.443-14.332,14.136v0.08
	C149.062,101.954,154.918,108.32,163.315,108.32 M128.99,94.729v-9.84h5.585c3.592,0,5.895,1.679,5.895,4.881v0.08
	c0,2.85-2.264,4.879-5.895,4.879H128.99z M124.187,107.851h4.803v-8.785h5.429c6.014,0,10.933-3.203,10.933-9.334v-0.077
	c0-5.507-4.02-9.138-10.387-9.138h-10.778V107.851z"/>
<path fill="#F29200" d="M174.287,45.519c5.334,0,9.657,4.324,9.657,9.656c0,4.379-2.916,8.074-6.911,9.258v8.709h69.795v5.182
	H124.434v-5.182h47.112v-8.709c-3.998-1.184-6.912-4.879-6.912-9.258C164.634,49.843,168.957,45.519,174.287,45.519"/>
</svg>
