<?xml version="1.0" encoding="utf-8"?>
<!-- Generator: Adobe Illustrator 16.0.3, SVG Export Plug-In . SVG Version: 6.00 Build 0)  -->
<svg version="1.2" baseProfile="tiny" id="Vrstva_1"
	 xmlns="http://www.w3.org/2000/svg" xmlns:xlink="http://www.w3.org/1999/xlink" x="0px" y="0px" width="92.61px"
	 height="84.496px" viewBox="68.222 4.054 92.61 84.496" xml:space="preserve">
<path fill="#000000" d="M145.613,27.361C138.964,13.295,125.072,4.06,109.01,4.06h-0.224c-22.526,0-40.564,17.929-40.564,42.136
	c0,24.203,18.266,42.354,40.788,42.354h0.224c16.023,0,29.771-9.073,36.379-23.021v-9.674h-13.549
	c-3.883,9.332-13.061,15.564-23.354,15.564c-13.973,0-25.295-11.326-25.295-25.301c0-13.967,11.322-25.295,25.295-25.295
	c10.296,0,19.474,6.231,23.354,15.564h13.549V27.361L145.613,27.361z"/>
<path fill="#FFFFFF" d="M86.968,46.12c0-12.007,9.735-21.737,21.74-21.737c9.859,0,18.188,6.563,20.85,15.56h19.609V4.054h11.665
	V88.55h-11.665V52.304h-19.609c-2.662,9-10.987,15.56-20.85,15.56C96.702,67.862,86.968,58.127,86.968,46.12"/>
</svg>
