<?xml version="1.0" encoding="utf-8"?>
<!-- Generator: Adobe Illustrator 16.0.3, SVG Export Plug-In . SVG Version: 6.00 Build 0)  -->
<!DOCTYPE svg PUBLIC "-//W3C//DTD SVG 1.1//EN" "http://www.w3.org/Graphics/SVG/1.1/DTD/svg11.dtd">
<svg version="1.1" id="Vrstva_1" xmlns="http://www.w3.org/2000/svg" xmlns:xlink="http://www.w3.org/1999/xlink" x="0px" y="0px"
	 width="93.476px" height="71.067px" viewBox="25.768 0.025 93.476 71.067" enable-background="new 25.768 0.025 93.476 71.067"
	 xml:space="preserve">
<path fill="#EBEBEB" stroke="#525252" stroke-width="0.2" stroke-linejoin="round" stroke-miterlimit="10" d="M88.362,20.307
	l-0.198-0.199l-0.05-0.15l-0.505,0.1l-0.049,0.25l-0.15,0.102l-0.098,0.049l-0.055,0.15l-0.053,0.199l-0.103,0.053l-0.196,0.049
	c-0.699-0.301-1.037,0.642-0.849,1.1l-0.203,0.054l-0.103,0.097l0.103,0.15v0.102c-0.358,0.202-0.639,0.396-1.003,0.049
	c-0.524,0.371-0.453,0.174-0.897,0.301l-0.103-0.15l0.147-0.199l-0.049-0.198l-0.048-0.15L83.8,21.915
	c-0.041-0.323,0.242-0.733-0.353-0.752l-0.197,0.051l-0.2-0.051l-0.253-0.1l-0.253,0.1l-0.147,0.051l-0.146,0.051l-0.104,0.1
	L82,21.465l-0.147,0.049l-0.15-0.098l-0.199-0.051h-0.447l-0.149,0.051l-0.248-0.102l-0.149-0.049h-0.149l-0.152,0.1l-0.049,0.148
	l0.049,0.15c-0.068,0.326-0.229,0.644-0.5,0.852l-0.151,0.1L79.4,22.712L79.3,22.809H79.15l-0.151,0.049
	c0.252,0.514-0.377,0.868-0.748,1.056c-0.771,0.356-1.412,0.017-1.454,1.148c-0.32,0.866-0.23,0.942-0.247,1.755
	c-0.187,0.563-0.456,0.91-1.104,0.852h-0.199l-0.147,0.049l-0.149,0.049l-0.104,0.102l-0.148,0.15l-0.05,0.15v0.199
	c-0.143,0.954-0.225,0.515-0.998,0.702c-0.423,0.405-0.35,0.905-1.104,0.803l-0.205,0.049l-0.146,0.051l-0.151,0.153l-0.101,0.095
	l-0.199,0.104l-0.148,0.048l-0.1,0.1h-0.25l-0.054-0.1l-0.104-0.152l-0.049-0.095l-0.25-0.054l-0.147,0.103l-0.202,0.095H70.29
	c-0.557,0.095-0.505-0.481-1.647-0.699l-0.15,0.15l-0.2,0.152l-0.101,0.1l-0.146,0.049l-0.151,0.104l-0.057,0.144
	c-0.25,0.799-0.241,0.289-0.599,0.852c-0.325,0.271-0.084,0.426-0.502,0.905L66.63,32.12l-0.048,0.155v0.148l-0.055,0.252
	l-0.049,0.103l-0.104,0.097l-0.248,0.049l0.248,0.152l-0.099,0.148v0.4l0.099,0.403l-0.049,0.25l-0.199,0.1l-0.049,0.201
	l-0.147,0.049l-0.053,0.203l-0.251,0.248l-0.101,0.199l0.101,0.5l-0.051,0.204l-0.103,0.147l-0.055,0.15l0.104,0.251h0.201
	l0.049,0.152l0.196,0.15l0.05,0.098l-0.099,0.15l0.049,0.15l0.15,0.199l0.302,0.201c-0.068,1.782,0.836,1.426,1.102,2.002l0.1,0.199
	l-0.146,0.301l0.049,0.203v0.045l-0.049,0.404l0.099,0.1l0.198-0.1l0.104,0.1l0.305,0.201l0.147-0.102l0.301-0.051h0.15l0.198-0.052
	l0.049,0.152l0.103,0.147l0.101,0.146h0.351l0.202,0.051l0.052,0.104l0.146,0.049l0.149,0.052l0.104,0.104l0.199,0.248
	c0.476,0.551,1.005,1.088,1.402,1.699h0.398l0.097,0.051l0.205,0.15l0.146,0.148l0.356,0.256l0.049,0.146l0.2,0.054l0.247,0.098
	l0.651,0.055l0.497,0.049l0.253-0.049l0.301-0.104l0.049-0.102c0.659,0.314,0.58-0.223,1.604,0.102l0.296,0.104h0.253l0.247-0.055
	l0.307,0.104l0.299,0.053l0.25-0.102l0.354-0.055l0.799-0.248l0.5,0.102l0.307-0.146h0.25L81,44.293h0.404l0.297-0.049l0.255-0.152
	l0.146-0.1l0.049-0.305l0.202-0.146l0.353-0.051l0.303,0.051l0.146,0.049l0.203-0.049c-0.502-0.635-0.678-0.424-0.854-1.252v-0.25
	l-0.054-0.301v-0.205l0.104-0.201l0.253-0.047v-0.303l0.049-0.148l0.048-0.198l0.204-0.151h0.204l0.193-0.146l0.147-0.053
	l0.152-0.15l0.25,0.104h0.101l0.103,0.102l0.199-0.102l0.1-0.055h0.15l0.102,0.104h0.299l0.199-0.104l0.257,0.055l0.099-0.055
	l0.401,0.055l0.199,0.049h0.147l0.146,0.053l0.149-0.201l0.104-0.1l0.195-0.051l0.305-0.1l0.193-0.058h0.103l0.149,0.058
	l0.103-0.058l0.253,0.104l0.103-0.149l0.101-0.052l0.149,0.101l0.248-0.146v-0.448l0.103-0.15l0.051-0.153l-0.051-0.196l0.149-0.151
	l0.052-0.25l0.103-0.146h0.397l0.098-0.055l0.203-0.246l0.146-0.055h0.25l0.104,0.055l0.103,0.147l0.055,0.149l0.198,0.099
	l0.104-0.049l0.199-0.15l0.102,0.15l0.148,0.098l0.146,0.104v0.146l-0.104,0.152v0.149l0.148,0.049l0.252-0.149l0.147-0.049h0.252
	l0.103,0.049l0.146,0.104l0.054,0.148l-0.054,0.146l0.054,0.148c0.422-0.176,0.729-0.947,1.253-0.602l0.2-0.15l-0.054-0.146
	c0.521-0.646,0.748-0.11,0.604-1.001l0.296,0.102h0.204l0.051-0.15h0.199l0.103-0.102v-0.15l0.198-0.049l0.149,0.15l0.254,0.049
	l0.149-0.199l0.147-0.301l0.147-0.302l0.052-0.097l0.151-0.201l0.146-0.151v-0.15c-0.067-0.331,0.134-0.882,0.5-1.002l0.048-0.25
	c0.255-0.169,0.366-0.515,0.104-0.797l0.247-0.152l0.104,0.097l0.201-0.15l0.252,0.054l0.149-0.054l0.196-0.1h0.204l0.101-0.147
	h0.247l0.204-0.104l0.1-0.049h0.247l0.104-0.046l0.149,0.046l0.248-0.046l0.198-0.054l0.148,0.1l0.105,0.102l0.146,0.1h0.155
	l0.25-0.048l0.146,0.048l0.101,0.1v0.153l0.153,0.152h0.146l0.147-0.056l0.203-0.097l0.148,0.046l0.146,0.051h0.253l0.098,0.15
	l0.054,0.151l0.197,0.048l0.254-0.294l0.104-0.106l0.146,0.051l0.198-0.097l0.054-0.104l0.149-0.049h0.099l0.354,0.153h0.104
	l0.146-0.104l0.052-0.148V33.28l0.198-0.049h0.196l0.4-0.1h0.149l0.056-0.148l0.099-0.15l0.151,0.049l0.15,0.102l0.146,0.1
	l0.146,0.103l0.104,0.147l0.149,0.299l0.148,0.15l0.247,0.056l0.152-0.152l0.098,0.097l0.149,0.302l0.05,0.201l0.102,0.25
	l0.104,0.152l0.098,0.15l0.051,0.098c0.101,0.479,0.562,0.743,0.957,0.951l0.196-0.102l0.149,0.102l0.199-0.048v-0.25l0.198-0.1
	l0.103,0.048h0.25l0.15-0.1l0.199-0.1l0.095-0.102h0.201l0.257-0.051l0.104-0.1l0.197,0.049l0.146,0.051l0.201-0.051l0.1,0.102
	h0.201l0.104-0.051l0.098-0.1l0.102-0.201l-0.147-0.103l-0.104-0.347v-0.201l0.057-0.503v-0.451l0.098-0.495l0.149-0.253
	l0.247-0.451l0.304-0.352l0.3-0.348l0.201-0.051l0.25-0.35l0.147-0.35c0.191-1.371-0.157-0.653,0.306-2.306l0.147-0.452l0.199-0.398
	l0.352-0.502l0.25-0.35l0.197-0.352l-0.049-0.148l0.098-0.405h-0.198l-0.351-0.046h-0.353l-0.248-0.051l-0.149-0.1l-0.049-0.153
	l-0.103-0.097l-0.103-0.15l-0.103-0.103h-0.25l-0.201,0.15c-0.264-0.102-0.55-0.104-0.802-0.199l0.103-0.15L112,24.666l-0.148-0.052
	l-0.198,0.103c-0.438-0.257-0.927-0.373-1.405-0.554l0.049-0.25v-0.102l-0.049-0.15l-0.049-0.199l-0.253-0.199l-0.149-0.15
	l-0.051-0.15l-0.05-0.25l-0.104-0.148l-0.194,0.046l-0.151-0.1h-0.199l-0.101-0.146l-0.198-0.054h-0.103l-0.098-0.15l-0.15-0.097
	l-0.104,0.097l-0.147,0.104l-0.101,0.247h-0.104l-0.104-0.146v-0.15l-0.146-0.103l-0.104-0.15l-0.097-0.049l-0.104-0.102h-0.396
	l-0.104-0.097l-0.15-0.204l-0.1-0.098l-0.304,0.15l-0.147-0.053h-0.147l-0.146,0.053l-0.15,0.197h-0.152l-0.098-0.046l-0.104,0.147
	c-0.687,0.042-0.934-0.363-1.903-0.4l-0.049,0.199l-0.149,0.054l-0.146,0.097l0.052,0.15l-0.104,0.15l-0.103,0.049l-0.45-0.299
	l-0.149-0.051l-0.099,0.051h-0.256l-0.301,0.1l0.055,0.199l0.149,0.15l0.147,0.102l0.1,0.199l-0.15,0.103l-0.097,0.048l-0.149-0.048
	h-0.151l-0.097,0.097l-0.103,0.104l-0.104,0.248l-0.101,0.102l0.101,0.199h-0.25l-0.147,0.102l-0.1,0.049l-0.148-0.049l-0.149-0.15
	l-0.154-0.054l-0.148,0.103v-0.199l-0.1-0.199l-0.103,0.049l-0.198,0.1l-0.05-0.1l-0.149-0.049l0.052-0.15l-0.151-0.056
	l-0.048-0.146l-0.2,0.047l-0.1-0.15l-0.057-0.1l-0.046-0.201v-0.097l-0.25-0.103l-0.198,0.049l-0.153,0.104l-0.199,0.1l-0.198-0.1
	L97.98,22.16l-0.058,0.104l0.058,0.1l-0.104,0.097v0.15c-0.66,0.28-0.813-0.465-1.452-0.397v0.198l-0.347,0.153l-0.101-0.104h-0.149
	l-0.403-0.097l0.057,0.247v0.454l-0.057,0.098l-0.198-0.049h-0.103l-0.199,0.1l-0.198-0.051l-0.15-0.049l-0.149,0.15l-0.146,0.15
	l-0.152,0.15l0.104,0.15l-0.11,0.096l-0.098-0.199l-0.149,0.35l-0.049,0.301l-0.15,0.146l-0.051,0.153l0.051,0.252l-0.104,0.15
	l-0.046,0.151v0.198l-0.104,0.1l-0.146-0.1l-0.104-0.102l-0.195-0.049l-0.104-0.102l-0.052-0.098l-0.149-0.15l-0.496-0.097
	l-0.502,0.495l-0.147,0.054l-0.104,0.097l-0.346-0.15l-0.103,0.102l-0.199-0.15l-0.059-0.15l0.059-0.15l0.147-0.301l0.052-0.199
	l0.196-0.1l0.054-0.152l-0.201-0.096L90.97,23.86l0.103-0.199l-0.103-0.302l0.049-0.198l-0.049-0.15L90.92,22.76v-0.15l-0.053-0.1
	l-0.25-0.051l-0.099,0.104l-0.154,0.196l-0.103-0.102l-0.147-0.049l-0.152-0.046l-0.396-0.054l0.101-0.247l-0.051-0.153v-0.15
	l-0.199,0.103l-0.147-0.103l-0.101-0.049l-0.147-0.102l-0.049-0.15l-0.054-0.15c-0.14-0.407-0.355-0.734-0.301-1.15L88.362,20.307z"
	/>
<path fill="#EBEBEB" stroke="#525252" stroke-width="0.2" stroke-linejoin="round" stroke-miterlimit="10" d="M108.441,53.104
	l0.149-0.047l0.148-0.15l0.147-0.247l0.053-0.104l0.099-0.146l0.201-0.201l0.198-0.049l0.146-0.104v-0.15l0.104-0.196v-0.199
	l0.101-0.149l0.051-0.148l0.201-0.104l0.147-0.195l-0.057-0.205l-0.095-0.146V50.4l0.199-0.502v-0.354l0.1-0.195l0.201-0.149
	c0.13-0.931,0.308-0.498,0.753-0.806l0.151-0.149l0.05-0.146l0.05-0.101l-0.049-0.25v-0.104l-0.05-0.151l-0.053-0.103l-0.103-0.1
	l-0.051-0.25c0.21-1.27,0.497-0.51,1.102-1.551l0.248,0.045l0.15-0.098v-0.398l0.051-0.102l0.201-0.203l0.152-0.494l0.049-0.104
	c0.407-0.548,0.104-0.306,0.747-0.804l0.104,0.051l0.152,0.055h0.147l0.397,0.052c0.215-0.425-0.074-0.748,0.396-0.854
	c0.505,0.063,0.486,0.442,1.008,0.454c1.706-0.493,0.208-0.784,1.646-1.104l-0.047-0.197l-0.103-0.1l-0.051-0.152l0.101-0.201
	l0.146,0.052l0.106-0.099l0.097-0.1l0.253-0.104l0.1-0.104l0.055-0.101l0.097-0.301l0.104-0.103l0.098-0.104l0.354-0.045
	l0.048-0.154l-0.048-0.146l-0.149-0.053h-0.354l-0.099-0.101l-0.147-0.151l0.048-0.199l-0.048-0.199l-0.051-0.354l-0.055-0.302
	l-0.199-0.146l-0.301-0.104l-0.252-0.051c-1.766,0.164-1.153-0.741-2.001-1.252l-0.252-0.202l-0.199-0.095l-0.301-0.102
	l-0.352,0.049l-0.354-0.049l-0.148-0.201l-0.149-0.299c-0.427-0.942-0.953-1.142-1.9-1.354l-0.102,0.201l-0.1,0.1l-0.104,0.051
	h-0.201l-0.1-0.102l-0.199,0.051l-0.146-0.051l-0.2-0.049l-0.103,0.1l-0.255,0.051h-0.204l-0.095,0.102l-0.201,0.098l-0.148,0.1
	h-0.25l-0.102-0.046l-0.198,0.097v0.253l-0.197,0.048l-0.149-0.102l-0.199,0.102c-0.396-0.208-0.855-0.472-0.956-0.953l-0.051-0.098
	l-0.099-0.15l-0.104-0.15l-0.1-0.25l-0.052-0.201l-0.147-0.302l-0.099-0.097l-0.151,0.15c-0.68-0.037-0.169-0.595-1.25-1.003
	l-0.097,0.15l-0.061,0.148h-0.147l-0.399,0.1h-0.199l-0.196,0.049v0.152l-0.054,0.148l-0.146,0.104h-0.104l-0.352-0.153h-0.1
	l-0.148,0.049l-0.052,0.104l-0.2,0.097l-0.146-0.051l-0.101,0.104l-0.254,0.296l-0.199-0.048l-0.054-0.151l-0.099-0.15h-0.254
	l-0.146-0.051l-0.15-0.046l-0.202,0.097l-0.146,0.054h-0.15l-0.147-0.15V33.52l-0.104-0.1l-0.146-0.051l-0.25,0.051h-0.153
	l-0.146-0.1l-0.105-0.102l-0.148-0.1l-0.198,0.051l-0.248,0.049l-0.149-0.049l-0.103,0.049h-0.25l-0.101,0.049l-0.199,0.102h-0.25
	l-0.099,0.15H98.42l-0.196,0.1l-0.149,0.054l-0.252-0.054l-0.202,0.15l-0.103-0.097l-0.248,0.15c0.266,0.282,0.15,0.63-0.104,0.796
	l-0.049,0.253c-0.365,0.12-0.569,0.671-0.5,1.002v0.15l-0.146,0.151l-0.153,0.201l-0.051,0.097l-0.146,0.302l-0.148,0.301
	l-0.15,0.199l-0.252-0.049l-0.149-0.15l-0.196,0.049v0.15l-0.104,0.102H94.92l-0.049,0.15h-0.206l-0.296-0.102
	c0.146,0.891-0.084,0.358-0.604,1.002l0.054,0.147l-0.203,0.151c-0.521-0.352-0.829,0.424-1.25,0.601l-0.055-0.149l0.055-0.146
	l-0.055-0.15l-0.146-0.104l-0.103-0.049h-0.253l-0.146,0.049l-0.255,0.15l-0.15-0.05V38.73l0.104-0.151V38.43l-0.146-0.102
	l-0.146-0.1l-0.104-0.148l-0.196,0.148l-0.104,0.049l-0.201-0.102l-0.051-0.148l-0.104-0.146l-0.103-0.053H89.96l-0.146,0.053
	l-0.204,0.246l-0.097,0.053h-0.398l-0.102,0.148l-0.052,0.25l-0.15,0.15l0.052,0.197L88.81,39.08l-0.103,0.148v0.448l-0.247,0.146
	l-0.15-0.101l-0.1,0.051l-0.104,0.146l-0.252-0.102l-0.103,0.057l-0.149-0.057h-0.103l-0.194,0.057l-0.304,0.102l-0.196,0.051
	l-0.104,0.099l-0.153,0.203c-0.409-0.134-0.88-0.106-1.252-0.154L85.1,40.279h-0.297l-0.104-0.104h-0.148l-0.102,0.056l-0.199,0.104
	l-0.1-0.104H84.05l-0.25-0.104l-0.147,0.149l-0.149,0.054l-0.194,0.146h-0.203l-0.204,0.149l-0.049,0.201L82.8,40.98v0.302
	l-0.252,0.047l-0.103,0.2v0.203l0.054,0.302v0.25c0.182,0.829,0.354,0.612,0.854,1.252l-0.204,0.049l-0.146-0.049l-0.307-0.052
	l-0.35,0.052l-0.201,0.146l-0.047,0.301l-0.149,0.104l-0.255,0.153l-0.297,0.048H81l-0.25-0.048h-0.248l-0.307,0.146l-0.5-0.1
	c-1.885,0.623-1.125,0.237-2.505,0.301c-1.313-0.512-1.188,0.133-1.9-0.201l-0.05,0.101l-0.302,0.104l-0.251,0.047L74.19,44.59
	l-0.651-0.055l-0.249-0.102l-0.198-0.05l-0.049-0.146l-0.355-0.256l-0.146-0.149l-0.203-0.149l-0.099-0.05H71.84
	c-0.211-0.344-1.035-1.344-1.299-1.551l-0.104-0.149l-0.199-0.248l-0.104-0.104l-0.148-0.051l-0.146-0.049l-0.054-0.104
	l-0.198-0.051H69.23l-0.101-0.146l-0.103-0.148l-0.049-0.152l-0.2,0.049h-0.147L68.33,40.98l-0.147,0.103l-0.5,0.297l-0.104,0.201
	l0.149,0.104l-0.199,0.351l0.099,0.146l-0.099,0.45l-0.35,0.203h-0.255l-0.049,0.149l0.304,0.199v0.195l0.146,0.354l-0.146,0.098
	l0.098,0.301v0.604l0.147,0.203l-1.896,0.197l-0.053-0.303l-0.354,0.453l-0.55-0.053l-0.1-0.053l-0.15-0.248l-0.198-0.351
	l-0.199-0.103l-0.301-0.052l-0.147-0.146l-0.25-0.05l-0.104,0.099h-0.4l-0.101,0.198l0.047,0.149l-0.1,0.196l-0.25,0.057
	l-0.249,0.148l-0.103,0.146l-0.198-0.146l-0.056,0.25l-0.146,0.193l0.25,0.104l0.199,0.052l0.196,0.104h0.25l0.452,0.301h0.202
	l0.354-0.104l0.147,0.25l0.149,0.354l-0.05,0.199l0.349,0.398l-0.2,0.352l-0.353,0.103l0.153,0.302v0.146l-0.104,0.146l-0.352,0.354
	l-0.197,0.051l-0.203,0.199h-0.55l-0.104,0.196L62.019,49v-0.15h-0.304l0.056,0.65l-0.201,0.049l0.053,0.102l0.148,0.103l0.248,0.75
	l-0.15,0.354l-0.299,0.052l-0.051,0.448l-0.146,0.15l0.1,0.248l0.149,0.055l0.197,0.248l-0.149,0.103v0.146l0.198,0.053l0.054-0.053
	l0.3-0.05l0.103,0.252l-0.55,0.5l0.147,0.25l0.3,0.252l-0.6,0.15l-0.053,0.198l0.449,0.099l0.147,0.149v0.103l-0.351,0.049
	l-0.25-0.049l-0.103,0.049l-0.196-0.1l-0.249,0.051l-0.201-0.103l-0.201,0.103l-0.146-0.051l-0.154,0.051l-0.05-0.147h-0.149
	l-0.102,0.354l-0.053,0.248l-0.252,0.053l-0.146,0.197l-0.251,0.051l-0.201,0.399l-0.55,0.503l0.249,0.25
	c0.956-0.021,0.44-0.402,1.353-0.201l0.149,0.104l0.153,0.1l0.246,0.197v0.197l-0.047,0.303l-0.148,0.104l-0.105,0.199l0.154,0.102
	v0.199l-0.049,0.102l0.148,0.148l0.047,0.35l0.25-0.098l0.055,0.305l0.098,0.047l0.2,0.049l0.053,0.354l-0.152,0.053l-0.102,0.049
	v0.252l0.102,0.103l0.152,0.198l0.196,0.148l0.146,0.197l0.149,0.104l0.054,0.247h0.297v0.253l0.057,0.2l0.098,0.146l-0.098,0.301
	c0.514,0.189,0.753,0.412,1.354,0.555l-0.104,0.148l0.153,0.102l0.146,0.148l0.103,0.352l0.1,0.103l0.148-0.149l0.104,0.248
	l0.199,0.104l0.148-0.053h0.197l0.151,0.151l0.298,0.199l0.147,0.149l0.104,0.148v0.248l0.05,0.252v0.152l0.248,0.297l0.104,0.146
	l0.15,0.149l0.198,0.052l0.048,0.147l0.15,0.057l0.302,0.095l0.198,0.149l0.148,0.104l0.498,0.248l0.253,0.103h0.152l0.099,0.198
	v0.351l0.05,0.149l0.251,0.05l0.103,0.104l0.049,0.244l0.148,0.202l-0.099,0.103l0.298,0.1l-0.05,0.354l0.199-0.104l0.102,0.199
	l-0.301,0.104l0.104,0.103l0.247,0.051l0.05,0.301l0.149-0.102v0.147h0.15l0.048-0.147l0.054,0.147l0.248-0.102l-0.049,0.301
	l-0.103,0.051v0.148l0.196,0.051l0.056,0.15l0.198-0.047l0.148,0.098l0.104-0.098l-0.056-0.154l0.156-0.098
	c1.198,0.49,1.396-0.164,1.998,1.449l0.148,0.102l0.199-0.049l0.308,0.146l0.192,0.104l0.202,0.103l0.153,0.049l0.097,0.05h0.148
	l0.15,0.149l0.099,0.103l0.147,0.149l0.151-0.049l0.148-0.15l0.197,0.05l0.303-0.05h0.253l0.249-0.053l0.148,0.149l0.199,0.103
	l0.303,0.099h0.199l0.103-0.099l0.146-0.149h0.197l0.148,0.049l0.104,0.056l0.146-0.104l0.201,0.049l0.147,0.149l0.401,0.15h0.25
	l0.198,0.1l0.252,0.054l0.1-0.198h0.352l0.103,0.146l0.052,0.15l0.198-0.051l0.149-0.047l0.049-0.199h0.203l0.049-0.152l0.146-0.199
	l0.208,0.15l0.05-0.102l0.25-0.104l0.147-0.149l0.103-0.148l0.2-0.098l0.147-0.198V69.49l0.1-0.153l0.148-0.101l-0.049-0.147
	l0.149-0.198l0.05-0.103l0.098-0.052h0.252l0.201,0.104l0.199,0.05l0.197,0.151l0.308,0.047l0.049-0.248l0.151-0.149l0.146,0.1
	l0.449-0.199l0.252-0.146l0.449,0.098l0.252-0.098l0.146-0.055l-0.101-0.148l0.149-0.199l0.447-0.148V67.78l-0.05-0.152l0.354-0.549
	l0.049-0.05l0.199,0.103v0.199l0.103,0.149l0.149,0.099l0.248,0.049l0.199-0.099c0.287,0.052,0.551,0.134,0.852,0.05l-0.198-0.197
	l0.147-0.151l0.199-0.099l0.1-0.149l0.206-0.103h0.1l0.15,0.15l0.148-0.099l0.198-0.057l0.1-0.2l0.103-0.101l0.152-0.102l0.098-0.3
	l0.101-0.104h0.152l0.198-0.146v-0.098l-0.104-0.201l0.057-0.148l0.193-0.053l0.153-0.252h0.647l0.149-0.102l0.152-0.098
	l0.198,0.047c0.437-0.063,0.202,0.217,0.996,0.502l0.104,0.053l0.246,0.1l0.104-0.049l0.102-0.104l0.199-0.103l0.604-0.353
	c0.465,0.033,0.664-0.267,0.896,0.353l0.25-0.051l0.195-0.25l0.104-0.103l0.103,0.199l0.199,0.104l0.198,0.05l0.098-0.05l0.255-0.2
	c0.294,0.385,0.263,0.559,0.649,0.502l0.052-0.201l0.152-0.101l0.098-0.049h0.198l0.148-0.055l0.15-0.148h0.098l0.148,0.101
	l0.199,0.053l0.151,0.104h0.247l0.209-0.051l0.146-0.104l0.052-0.102v-0.199l0.052-0.15c0.776,0.256,0.698,0.354,1.299,0.758
	l0.104-0.104l0.05-0.1l0.198-0.053l0.05-0.054c0.619-0.371,0.188-0.424,0.555-0.696l0.055-0.199v-0.301l0.049-0.199l0.148-0.104
	l0.104-0.1l0.297-0.15l0.351-0.1l0.5,0.301l0.102-0.102v-0.103h0.148l0.149,0.201l0.397-0.052l0.155-0.052l0.146,0.147l0.05,0.104
	l0.198,0.096l0.15-0.148l0.102-0.051l0.148-0.147l0.053-0.304l0.047-0.1l0.201-0.049l0.147,0.049l0.198-0.103v-0.198l0.05-0.199
	l0.104-0.15l-0.047-0.25v-0.102c0.103-0.51,0.113-0.521,0.549-0.752l0.146,0.148h0.156l0.048-0.148v-0.197l0.098-0.1v-0.203
	l-0.098-0.148l-0.104-0.049l-0.15-0.102l-0.098-0.146V60.26l0.049-0.15l0.101-0.148l0.053-0.104l0.151-0.146l0.05-0.199l0.104-0.15
	l-0.149-0.096c0.142-0.57-0.044-0.568,0.552-0.701l0.152,0.146l0.195-0.051l0.099-0.25l0.252-0.15v-0.146l-0.147-0.107l-0.051-0.096
	l0.146-0.149h0.204l0.201,0.051l0.197-0.25l0.148-0.199v-0.148l-0.104-0.053l-0.245-0.199l0.049-0.199l0.047-0.104l0.149-0.297
	V55.91l0.054-0.15l0.146-0.102h0.148l0.201-0.146l0.151-0.15l0.05-0.2v-0.101l-0.1-0.35l0.05-0.104l0.05-0.101l0.2-0.055
	l0.102-0.146l0.051-0.103h0.15v-0.199l-0.05-0.2l0.146-0.146l-0.051-0.203L108.441,53.104z"/>
<path fill="#EBEBEB" stroke="#525252" stroke-width="0.2" stroke-linejoin="round" stroke-miterlimit="10" d="M36.985,27.318
	l0.352-0.104l0.304,0.203l0.196,0.197l0.154,0.451l0.15,0.253l0.197,0.097h0.353l0.146,0.102l0.104,0.353l0.248,0.35l0.103,0.449
	l0.201,0.352l0.351,0.102l0.602,0.699l0.354,0.153l0.056,0.146l0.396,0.503l-0.302,0.1l-0.049,0.201l0.2,0.196l0.049,0.155
	l0.147,0.051l0.047,0.15l1.403,0.248L43,32.779l0.601,0.347l0.249-0.201h0.196l0.056-0.199h0.296l0.302-0.449l-0.048-0.201
	l0.098-0.051l0.198,0.051l0.151,0.252l0.505,0.199L46,32.326l0.199,0.301l0.102-0.053l0.199,0.301h0.301l0.146-0.15L47,32.326
	v-0.402l0.05-0.353l0.15-0.15l0.5-0.397l0.2-0.653c0.759-0.051,0.618,0.338,1.353,0.255l0.057-0.153l-0.151-0.147l-0.053-0.202
	l0.102-0.25l0.149-0.303v-0.25l0.099-0.549l-0.049-0.253l0.049-0.198l-0.049-0.403l0.2-0.498l0.147-0.1h0.152l0.096,0.047h0.2
	l0.198,0.25l0.456-0.1l0.146,0.1l0.152,0.203v0.199l-0.104,0.199l0.054,0.054l0.05,0.049h0.198l0.249-0.199h0.352l0.104-0.403
	l0.196-0.049l0.101,0.199l0.354-0.102l0.193,0.053l0.506,0.398l0.55,0.103l0.301,0.4l0.399,0.15l0.35,0.102l0.705,0.447l0.501,0.102
	l0.353-0.25l0.5-0.051v0.15l0.146,0.15l0.149,0.1l0.199,0.049l-0.049,0.104h0.246v0.148h0.259v0.299l0.351,0.201l-0.15,0.1
	l0.249,0.4l0.701,0.301l0.649-0.048l0.147,0.097l0.25,0.054h0.152l0.303-0.054l0.398,0.15l0.2-0.15l0.147,0.15l0.297-0.15
	l0.203-0.247l0.25-0.503l0.397,0.104l0.302-0.204l0.554,0.4h0.201l0.148-0.048l0.249,0.147l0.103,0.253l-0.103,0.201l0.103,0.15
	l0.198-0.104h0.148l0.102,0.104l0.147,0.046l0.104,0.151h0.148l0.146,0.102l0.252-0.102h0.354l0.146-0.151l0.098,0.103l0.151,0.201
	l-0.049,0.35l0.098,0.102v0.452l-0.049,0.146l0.248-0.049l0.104-0.097l0.049-0.103l0.055-0.252v-0.148l0.048-0.155
	c0.501-0.458,0.282-0.75,0.603-1c0.284-0.481,0.356-0.137,0.55-0.699c0.118-0.571,0.308-0.222,0.854-0.852
	c0.994,0.287,0.662,0.227,1.4,0.699h0.396l0.202-0.095l0.15-0.103l0.25,0.051l0.049,0.098l0.104,0.15l0.054,0.102
	c0.426,0.04,0.744-0.375,1.096-0.551c0.813-0.164,0.578,0.206,1.206-0.752l0.103-0.103l0.25-0.046h0.397l0.149-0.049l0.103-0.102
	l0.05-0.201v-0.151l0.048-0.15v-0.201l0.053-0.148l0.146-0.15l0.104-0.102l0.146-0.049l0.15-0.049h0.199
	c0.564,0.049,0.854-0.201,1.052-0.701c0.188-0.632-0.133-0.843,0.253-1.755c0.178-1.072,0.213-0.931,1.195-1.197
	c0.444-0.139,1.336-0.541,1.055-1.157l0.151-0.049h0.159l0.103-0.097l0.146-0.103l0.152-0.1l0.149-0.147l0.104-0.103l0.097-0.198
	l0.104-0.204l0.049-0.199l-0.049-0.15l0.05-0.148l0.152-0.1h0.149l0.149,0.049l0.25,0.102l0.146-0.051H81.5l0.199,0.051l0.149,0.098
	L82,21.458l0.149-0.098l0.104-0.1l0.146-0.051l0.147-0.051l0.253-0.1l0.146-0.35l-0.146-0.15l-0.152-0.252l-0.146-1.003
	l-0.054-0.095l-0.146-0.201l-0.951-0.253l-0.248-0.15l-0.149-0.15l-0.25-0.801l-0.256-0.449l0.057-0.253l0.101-0.048L80.2,16.15
	l-0.4-0.05l-0.104-0.049l-0.198-0.15l-0.25-0.199L79.1,15.653h-0.451l-0.198,0.15l-0.2,0.097l-0.149-0.199L77.999,15.4l-0.057-0.1
	l-0.353-0.102L77.446,15.3l-0.054-0.204v-0.15L77.193,14.8l-0.198,0.049V15l-0.147,0.049l-0.1-0.15l-0.253-0.049l-0.098-0.15
	l0.046-0.248l-0.097-0.204l-0.199-0.097l-0.104-0.102l-0.197-0.052l-0.103,0.1l-0.101,0.15v0.15l0.298-0.048l0.055,0.199v0.196
	l-0.303-0.097h-0.199l-0.153,0.152l-0.147,0.049l-0.198,0.199l-0.104,0.048h-0.146l-0.303,0.049l-0.104-0.049L74.242,15
	l-0.099-0.054l-0.252-0.097l-0.054-0.201l-0.1-0.052l-0.101-0.199v-0.15l-0.104-0.198l-0.049-0.151l-0.104-0.1l-0.146-0.301
	l-0.252-0.199l-0.156,0.098l-0.147-0.049l-0.1-0.15l-0.104-0.15l-0.15-0.049l-0.098-0.102l-0.049-0.102l0.049-0.148l0.198-0.051
	l0.396-0.15h0.209l0.099-0.199l0.299-0.051l0.103-0.098v-0.354l-0.149-0.147l-0.098-0.148v-0.104l0.098-0.198l0.104-0.153
	l-0.198-0.15l-0.148-0.196l-0.101-0.052l-0.104,0.052v0.196l-0.2,0.252l-0.149,0.148l-0.254,0.153l-0.247-0.153H71.99l-0.15,0.054
	l-0.352-0.103l-0.248,0.049l-0.102,0.054l-0.151,0.048l-0.049,0.199l-0.198-0.046l-0.054-0.255l-0.199-0.148h-0.203l-0.05,0.1v0.15
	h-0.149l-0.05-0.198l0.05-0.255l0.05-0.245l-0.1-0.052h-0.15l-0.252,0.052l-0.146-0.052l-0.254-0.15l-0.446-0.451l-0.054-0.201
	l-0.149-0.1l-0.199,0.1l-0.297-0.148v-0.15h-0.399l-0.057-0.104H67.43l-0.104-0.15c-0.553,0.058-0.563-0.22-1.048-0.296L66.13,9.147
	l-0.049,0.196v0.153l0.146,0.098l0.147,0.053l0.057,0.148l0.049,0.1v0.203l0.103,0.146l0.048,0.252l0.101,0.153l0.353,0.147
	l0.104,0.049l0.099,0.199v0.255l-0.099,0.15l0.099,0.199l0.05,0.097l-0.05,0.204l-0.146-0.054l-0.148-0.199l-0.149-0.048v0.146
	l-0.198,0.054l-0.149-0.054l-0.253,0.102L66.133,12.1l-0.104,0.049L65.883,12.1l-0.146,0.049l-0.104,0.15L65.48,12.35l-0.052,0.098
	l-0.104,0.201l-0.1,0.199L65.077,13l-0.15,0.049l-0.147,0.301l-0.146,0.098L64.33,13.35l-0.351-0.102L63.828,13l-0.099-0.152
	l-0.149-0.051l-0.148-0.199c-0.009-0.285-0.102-0.563-0.104-0.853c-0.884-0.845-0.479-0.569-0.954-1.25h-0.296l-0.204-0.199
	l-0.049-0.199V9.791L61.72,9.74l-0.348-0.098L61.12,9.841L60.971,9.79l-0.05-0.403L60.62,9.291l-0.098-0.1l-0.049-0.304
	c0.347-0.141,0.229-0.505,0.946-0.648l-0.048-0.102l0.048-0.1l0.249,0.148l0.149-0.049l0.149-0.196l0.104-0.049V7.688l0.146-0.15
	l0.053-0.201l0.25-0.15l0.103-0.103l-0.202-0.296l-0.396-0.35l-0.103-0.153l-0.101-0.099L61.77,6.038l-0.104-0.103H61.27
	l-0.199-0.051l-0.248-0.053l-0.151,0.104l0.052,0.251l-0.104,0.15l-0.098,0.051H60.37l-0.152-0.201L60.02,6.038l-0.25-0.054
	l-0.15,0.054l-0.05,0.097l-0.104,0.103l-0.101,0.201l-0.051,0.098l-0.198,0.099L58.87,6.587l0.05-0.148l0.149-0.102l-0.104-0.15
	V5.832l-0.146-0.146l-0.102-0.099l-0.102-0.052h-0.151l-0.197,0.1L58.12,5.686l-0.146,0.052h-0.156l-0.052-0.202v-0.1l-0.102-0.15
	l-0.103-0.15l-0.049-0.303l-0.15-0.15h-0.149l-0.1,0.15l-0.149-0.047l-0.195,0.148l-0.104-0.051h-0.198l-0.148-0.098V4.682
	l-0.146-0.098l-0.198-0.051l-0.253-0.15l-0.148-0.051H55.42l-0.147-0.049l-0.147-0.049H54.92l-0.196-0.053L54.42,4.035l-0.104-0.206
	l-0.15,0.105l-0.051,0.15l-0.197,0.199L53.71,4.182v-0.7l-0.1-0.151l-0.2-0.099l-0.098-0.049l-0.253-0.3l-0.052-0.151l-0.104-0.301
	l-0.049-0.102l0.049-0.148l0.207-0.201L53.06,1.83l-0.049-0.153L52.856,1.58l-0.1-0.103l-0.048-0.15h-0.149L52.356,1.38
	l-0.101,0.146l-0.1-0.146V1.03l-0.198,0.049l-0.099,0.199h-0.301v-0.15l-0.104-0.049l-0.2-0.199l-0.047,0.199l-0.149-0.15
	l-0.2,0.101l-0.249,0.049l-0.05,0.102l-0.104,0.146l0.154,0.104l0.147-0.051l0.101,0.199l-0.048,0.25v0.15l-0.2,0.201v0.201
	l0.047,0.151v0.15l-0.047,0.199l-0.154,0.097h-0.146l-0.151-0.049l-0.198-0.048l-0.25-0.054L49.51,2.881L49.004,2.63l0.101,0.253
	v0.15L49.052,3.28l-0.096,0.153l-0.104,0.1l-0.198,0.049l-0.15-0.049l-0.148-0.051c-1.122-0.66-0.841-0.69-0.507-1.704L47.7,1.729
	l-0.1,0.049l-0.4,0.153h-0.1L47.05,1.829l0.104-0.304L47.2,1.229v-0.15l-0.15-0.1L46.9,0.928L46.252,0.68l-0.958-0.405l-0.352-0.15
	h-0.296l-0.104,0.049l-0.098,0.102l-0.053,0.15l0.053,0.15l0.049,0.353l0.049,0.15c0.243,0.453,0.286,0.409,0.75,0.397l0.05,0.103
	v0.352l-0.099,0.148l-0.5,0.051h-0.396l-0.249,0.051l-0.149,0.1c-1.405,1.054-0.817,0.961-2.706,1.104L41.14,3.233l-0.1,0.25v0.15
	l0.1,0.35l-0.3,0.15H40.49l-1.506-0.049l-1.104,0.4c0.315,0.537,0.401,0.709-0.147,1.051l-0.151,0.1h-0.198l-0.1-0.1l-0.251-0.298
	l-0.099-0.103L36.83,5.032l-0.148,0.053l-0.2,0.049l-0.198,0.103l-0.249,0.198c-0.947,0.736-0.396,0.54-0.904,1.353l-0.196-0.049
	l-0.149-0.053l-0.551-0.052H33.83l-0.1,0.052l-0.102,0.15l-0.103,0.5L33.48,7.438l-0.104,0.199l-0.197,0.102l-0.102,0.202
	l-0.207,0.048l-0.146-0.097c-0.728-1.181-0.76-0.322-1.699-0.054h-0.198l-0.302-0.201l-0.604,0.15l-0.445,0.051l-0.203,0.103
	l-0.249,0.196L28.72,8.443l-1.104,1.199L27.72,9.74l-0.15,0.102v0.252l0.049,0.398v0.199l-0.151,0.102l-0.146,0.049l-0.101-0.1
	l-0.151-0.299l-0.098-0.301L26.67,9.237l-0.101-0.245l-0.098-0.201L26.32,8.688h-0.15l0.199,0.503l-0.448,0.25l-0.053,0.201
	L25.97,9.74l0.301,0.051l0.248,0.352l0.103,0.15l0.146,0.398l-0.049,0.604l0.396,0.397l0.053,0.253l0.149,0.299l0.199,0.051
	l0.099,0.25l0.249,0.049l0.052,0.15l0.155,0.15l0.799,0.402l0.104,0.199l-0.104,0.353l0.398,0.35l0.103,0.15l-0.103,0.247L28.874,15
	l-0.05,0.301l-0.199,0.051L28.577,15.9l-0.453,0.398l-0.104,0.15l0.401,0.602l0.448,0.199l0.104,0.201v0.503l0.297,0.5l0.053,0.5
	l0.098,0.255l0.104,0.196l0.199,0.098l0.147,0.155v0.299l-0.053,0.252l0.102,0.447l0.558,0.402l0.5,0.852l0.75,0.199l0.049-0.252
	l0.5,0.252l0.249,0.199l0.302,0.403l0.1,0.4l0.258,0.049l0.249,0.65l0.201,0.15l0.248,0.4l0.104,0.4l0.146,0.25l0.252,0.15h0.301
	l0.252,0.103l0.445,0.35l0.455,0.6l0.053,0.548l0.047,0.103l0.104,0.199l0.749,0.404L36.985,27.318z"/>
</svg>
