<?xml version="1.0" encoding="iso-8859-1"?>
<!-- Generator: Adobe Illustrator 16.0.3, SVG Export Plug-In . SVG Version: 6.00 Build 0)  -->
<!DOCTYPE svg PUBLIC "-//W3C//DTD SVG 1.1//EN" "http://www.w3.org/Graphics/SVG/1.1/DTD/svg11.dtd">
<svg version="1.1" id="Vrstva_1" xmlns="http://www.w3.org/2000/svg" xmlns:xlink="http://www.w3.org/1999/xlink" x="0px" y="0px"
	 width="119.279px" height="74.711px" viewBox="0 0 119.279 74.711" style="enable-background:new 0 0 119.279 74.711;"
	 xml:space="preserve">
<path style="fill:#EBEBEB;stroke:#525252;stroke-width:0.2;stroke-linejoin:round;stroke-miterlimit:10;" d="M27.419,44.245
	l-0.25-0.104l-0.349,0.152l-0.151-0.049l-0.197-0.303l-0.151-0.254l0.051-0.195l-0.098-0.051l-0.203-0.056l-0.25,0.104l-0.504-0.152
	l-0.447,0.203l-0.249-0.152l0.146-0.299v-0.4l-0.353,0.401l-0.199,0.101l-0.248,0.052l0.05,0.25l0.197,0.549l-0.1,0.252
	l-0.252,0.049l-0.248,0.104l-0.703-0.254h-0.148l-0.353-0.051l-1.35,0.104l-0.103,0.197l-0.504-0.104H20.36l-0.802-0.049
	l-0.498-0.104l-0.251,0.254l-0.301,0.648l-0.101,0.102l-0.249,0.1l-0.705-0.148l-0.302,0.104l-0.249,0.197l0.146,0.553l-0.646-0.049
	l-0.199,0.049L16.006,46.1l-0.148,0.397l-0.604-0.103l0.203-0.297l-0.148-0.104l-0.552,0.049l-0.501,0.301L14,46.395l-0.2-0.1
	l-0.352-0.051h-0.247L13,46.193v-0.149l0.202-0.199c-0.834-0.735-0.142-0.762-0.954-0.75l0.101-0.301l0.251-0.199l-0.204-0.252
	h-0.199l-0.447,0.15h-0.303l-0.198-0.248l-0.397-0.152l-0.15-0.25h-0.354l-0.449-0.153l-0.301,0.354l-0.854-0.199l0.252-0.396
	l-0.2-0.104l-0.203,0.104l-0.099,0.101l0.099,0.146v0.354l-0.05,0.252l-0.148,0.248L8.542,44.7l0.104,0.194V45.2l-0.104,0.198
	L8.294,45.65L8.19,46.043c-1.031,0.211-0.573,1.451-2.4,1.152l0.048-0.25h0.148l0.2-0.102l-0.097-0.15l0.349-0.698l-0.949-0.15
	l-0.252,0.15l-0.103-0.5l0.253-0.353l-0.054-0.252L4.885,44.34l-0.397-0.049l-0.052-0.35l-0.149-0.197l0.052-0.254l-0.351,0.1
	L3.59,43.443l-0.104,0.102L3.038,43.34v-0.451l-0.104-0.098L2.684,42.74l-0.151,0.1L2.28,43.243l-0.15,0.146L1.93,43.443l-1.102-0.2
	l-0.248-0.103v0.196l0.103,0.304l0.249,0.25l0.103,0.198l0.447,0.304l-0.149,0.25l0.103,0.603L1.38,45.395l-0.146,0.051
	l-0.198,0.053L0.83,45.693l-0.098,0.149l-0.05,0.199l-0.308,0.252l-0.252,0.449l0.201,0.301l-0.099,0.147l0.147,0.353l-0.102,0.349
	c0.666,0.502,0.373,1.067,0.307,1.655l0.198,0.054l0.2-0.104L1.282,49.7l0.397,0.147l0.104,0.104L2.03,50l0.303,0.248L2.683,50.2
	L2.78,50.35l0.051,0.199v0.15L2.63,51l0.055,0.148L2.63,51.4l0.456,0.351l0.397,0.054L3.634,52l0.304,0.051l0.249,0.451l0.248,0.1
	l0.148,0.148l0.151,0.051l0.351,0.051l0.352-0.25h0.307L5.888,52.1l0.148-0.248L6.29,52h0.146l0.148-0.1L6.54,51.704l0.198-0.149
	l0.151-0.248l0.098-0.15l0.251-0.053H7.44l0.199,0.303v0.197l0.251,0.104l0.204,0.198l-0.257,1.052l0.204,0.147l0.252,0.104
	l0.248-0.054l0.104,0.148l0.448-0.298l0.55-0.053l0.196,0.303l0.254,0.103l0.298,0.248v0.103l-0.25,0.354l0.198,0.047h0.308
	l0.15,0.201l0.35,0.051l0.201,0.15L11.9,54.46l0.448,0.149l0.251,0.05l0.098-0.05l0.198-0.399l0.354-0.252l0.052-0.5l0.199-0.353
	l0.05-0.25l0.104-0.25l0.397-0.101l0.099-0.1l-0.05-0.152l0.103-0.098l0.647-0.054l0.398-0.101h0.203l0.149-0.103l0.301,0.054
	l0.302,0.299l0.151,0.049l0.197-0.049l0.199-0.199l0.2-0.1L16.9,51.805l0.146-0.054h0.204l0.199,0.147l0.151,0.304l0.296-0.15
	l0.051-0.149l0.154-0.049h0.302l0.047,0.198l0.198,0.15l0.403-0.052l0.199,0.302h0.198l0.25-0.152h0.351l0.398-0.098l0.705-0.397
	l0.251-0.103l0.351-0.104h0.448l0.807-0.297l0.146-0.056h0.603l0.15,0.103v0.2l-0.102,0.199l-0.051,0.149L23.664,52l-0.303,0.102
	h-0.298l-0.104,0.148l-0.147,0.104l0.102,0.197v0.303l0.202,0.4l-0.049,0.35l0.298,0.104l0.15,0.354l0.252-0.15l0.298,0.047
	l0.252,0.652l-0.201,0.303v0.449h0.249l0.254,0.1l0.146,0.254l0.104,0.447l0.148,0.252l0.352,0.301l0.202,0.049l0.2,0.104
	l0.299,0.051l0.354,0.246h0.599l0.202,0.104h0.446l0.354,0.299l0.148-0.148l0.353,0.049l0.102,0.15l0.199,0.049l0.051,0.15v0.148
	l0.149,0.104l0.699-0.053l0.853,0.252h0.604l0.55,0.148l0.749,0.502l0.302-0.053l0.403,0.102l0.249-0.148h0.202l0.051-0.102
	l0.446,0.25l0.5,0.051l0.249-0.1l0.055,0.1v0.053l0.446,0.051l0.154,0.197l0.148-0.1c0.952,0.473,1.883,0.576,2.904,0.551l0.248,0.1
	l0.604,0.4l0.297-0.102l0.404,0.102l0.298,0.199l0.206,0.4l0.099,0.1l0.353-0.1l0.351,0.146l0.398-0.146l0.397,0.202l0.954-0.149
	v0.149l0.3,0.149l0.149,0.146l0.351-0.146l0.2,0.396L44.3,61.92l0.249-0.051l0.05-0.305l-0.05-0.248l0.104-0.148l0.201-0.098
	l0.396-0.055l0.149-0.051l0.104-0.197H45.6l0.103-0.15l0.146-0.352c0.668,0.441,1.13-0.203,1.099-0.852l0.152-0.104l0.148-0.35
	h0.148L47.7,59.01l0.05-0.199l0.2-0.053l0.104-0.047l0.198,0.1h0.149l0.146-0.201l0.254-0.146h0.247l0.151,0.102l0.199-0.102
	l0.396-0.051l0.353,0.051l0.148,0.146l0.308,0.053l0.351-0.053l0.15-0.102h0.296l0.152,0.053l0.598-0.053l0.252,0.203h0.148v0.146
	l0.099,0.203h0.303l0.401-0.252l0.103-0.201l-0.052-0.199l0.4-0.252l0.146,0.055h0.104l0.098-0.1l0.204-0.053v-0.055l0.049-0.098
	h0.199l0.199,0.148h0.301l0.2,0.051l0.553-0.252l0.448-0.051l0.251,0.104l0.446,0.301l0.305,0.049l0.197,0.25l0.249,0.102
	l0.054-0.25v-0.201l-0.252-0.248l-0.199-0.402v-0.352l-0.049-0.098l0.049-0.199l0.054-0.15l-0.054-0.203l0.054-0.199h0.146
	l0.148-0.1l0.104,0.1l0.204-0.1l0.103-0.146l0.248-0.104l0.199-0.098l0.549-0.502l0.2-0.4l0.253-0.049l0.146-0.199l0.251-0.055
	l0.052-0.246l0.103-0.352h0.149l0.048,0.148l0.152-0.053l0.147,0.053l0.203-0.104l0.2,0.104l0.248-0.053l0.198,0.104l0.103-0.051
	l0.25,0.051l0.351-0.051V54.1l-0.148-0.15l-0.449-0.098l0.051-0.197l0.601-0.15l-0.3-0.252l-0.148-0.25l0.55-0.502l-0.102-0.252
	l-0.3,0.049l-0.053,0.055l-0.199-0.055V52.15l0.15-0.103l-0.199-0.247l-0.148-0.054l-0.101-0.248l0.146-0.151l0.052-0.449
	l0.299-0.051l0.15-0.351l-0.249-0.752l-0.149-0.099l-0.051-0.104l0.2-0.051l-0.055-0.649h0.304V49l0.148,0.047l0.103-0.197h0.551
	l0.203-0.199l0.2-0.051l0.349-0.354l0.104-0.146v-0.146L63.52,47.65l0.353-0.104l0.2-0.351l-0.349-0.399l0.05-0.198l-0.148-0.353
	l-0.149-0.25l-0.354,0.103h-0.202l-0.45-0.302h-0.25l-0.199-0.104l-0.199-0.049l-0.25-0.103l0.147-0.199l0.053-0.25l0.2,0.15
	l0.101-0.15l0.249-0.146l0.248-0.057l0.103-0.197l-0.048-0.152l0.099-0.199h0.401l0.104-0.096l0.249,0.047l0.149,0.15l0.301,0.049
	l0.199,0.104l0.198,0.354l0.15,0.246l0.1,0.053l0.549,0.049l0.354-0.45l0.053,0.302l1.898-0.195l-0.15-0.207v-0.6l-0.099-0.3
	l0.146-0.099l-0.146-0.354v-0.197l-0.302-0.201l0.049-0.15h0.253l0.351-0.197l0.099-0.451l-0.099-0.146l0.2-0.351l-0.15-0.104
	l0.104-0.199l0.502-0.299l-0.305-0.199l-0.103-0.102l-0.198,0.102l-0.1-0.102l0.05-0.402v-0.047l-0.05-0.201l0.146-0.303
	l-0.099-0.197c-0.263-0.574-1.172-0.225-1.099-2.002l-0.306-0.201l-0.148-0.199l-0.05-0.15l0.099-0.15l-0.049-0.098l-0.199-0.15
	L65.73,36.54h-0.2l-0.104-0.251l0.055-0.152l0.103-0.146l0.049-0.204l-0.099-0.5l0.099-0.199l0.253-0.248l0.05-0.203l0.15-0.049
	l0.047-0.201l0.201-0.1l0.049-0.25l-0.099-0.403v-0.4l0.099-0.148l-0.25-0.152l0.053-0.146v-0.452l-0.1-0.102l0.047-0.35
	l-0.148-0.201l-0.099-0.103l-0.148,0.151H65.38l-0.252,0.104l-0.146-0.104h-0.149L64.73,31.58l-0.149-0.046l-0.1-0.104h-0.15
	l-0.198,0.104l-0.104-0.15l0.104-0.201l-0.104-0.253l-0.248-0.146l-0.148,0.048h-0.2l-0.555-0.4l-0.303,0.204l-0.396-0.102
	l-0.249,0.5l-0.203,0.247l-0.298,0.15l-0.15-0.15l-0.198,0.15l-0.398-0.15l-0.307,0.054H60.22l-0.25-0.054l-0.15-0.097l-0.649,0.048
	l-0.699-0.301l-0.25-0.401l0.148-0.104l-0.351-0.201v-0.299h-0.256v-0.148h-0.249l0.049-0.104l-0.198-0.047l-0.15-0.102l-0.146-0.15
	v-0.15l-0.501,0.053l-0.352,0.248l-0.5-0.102l-0.703-0.447l-0.352-0.102l-0.398-0.15l-0.302-0.4l-0.55-0.103l-0.506-0.398
	l-0.195-0.053l-0.354,0.102l-0.101-0.199l-0.197,0.049l-0.104,0.405h-0.351l-0.249,0.197h-0.198l-0.05-0.047l-0.053-0.056
	l0.103-0.199v-0.199l-0.152-0.203l-0.148-0.098l-0.455,0.098l-0.198-0.25h-0.2l-0.098-0.047h-0.15l-0.149,0.1l-0.199,0.498
	l0.049,0.403l-0.049,0.201l0.049,0.25l-0.099,0.549v0.25l-0.149,0.303l-0.102,0.253l0.052,0.199l0.15,0.147l-0.054,0.153
	c-0.732,0.083-0.594-0.306-1.353-0.253l-0.2,0.645l-0.5,0.397l-0.15,0.15L47,31.924v0.402l-0.054,0.398l-0.146,0.15h-0.302
	l-0.199-0.3l-0.102,0.053l-0.199-0.301L45.6,32.525l-0.503-0.199l-0.151-0.252l-0.198-0.051l-0.1,0.051l0.051,0.201l-0.303,0.449
	h-0.298l-0.054,0.199h-0.197l-0.249,0.201L43,32.777l-0.256-0.054l-1.403-0.248l-0.047-0.15l-0.148-0.051l-0.049-0.155l-0.201-0.196
	l0.05-0.201l0.302-0.1l-0.397-0.503l-0.054-0.146l-0.354-0.153l-0.602-0.696l-0.35-0.104l-0.25,0.604v0.247l0.099,0.398
	l-0.049,0.704l-0.301,0.652h-0.249l-0.102,0.098l-0.1,0.252l-0.15,0.202l-0.049,0.095l-0.198,0.053l-0.256-0.102l-0.2-0.35
	l-0.248-0.049l-0.15-0.199l-0.148,0.098l-0.5-0.398l-0.249,0.15l0.149,0.199l-0.104,0.103l-0.296,0.048l-0.104-0.252
	c0.011,1.602-0.53,3.734-2.604,3.408c-1.479,0.439-0.743-0.123-2.006,0.9L31.03,36.93l-0.398,0.102l-0.202,0.398l-0.199,0.201
	l-0.204,0.051L29.88,37.98l-0.352-0.049l-0.05,0.301l0.202,0.349l0.146,0.399l0.55,0.552l0.053,0.153l-0.053,0.301v0.146
	l0.105,0.104l0.199,0.05l0.102,0.096l0.248,0.455l0.396,0.951l-0.048,0.149l-0.301,0.396l-0.297,0.403l-0.251,0.552l0.101,0.149
	l0.353,0.147l0.447-0.147l0.198,0.103l0.152,0.146l0.1,0.354l0.201,0.301l0.05,0.303l-0.05,0.098l-0.201,0.15l-0.051,0.303
	l-0.2,0.053l0.104,0.352l-0.104,0.299v0.449l-0.249,0.201l-0.048,0.051l-0.201,0.098l-0.5-0.197l-0.554-0.5l-0.252-0.199
	l-0.051-0.148c-0.761-0.09-0.638-0.498-0.198-0.95l-0.352-0.354l-0.1-0.35l-0.301-0.15h-0.248l-0.757,0.051l-0.098,0.053
	L27.419,44.245z"/>
<path style="fill:#EBEBEB;stroke:#525252;stroke-width:0.2;stroke-linejoin:round;stroke-miterlimit:10;" d="M35.898,71.784
	l0.336,0.348l-0.098,0.304l-1.405,0.047l0.146,0.304l-0.249,0.254l0.249,0.444l0.199,0.058l0.149,0.049l0.198,0.146l0.759-0.401
	c0.474,0.405,0.798-0.224,1.3,0.756l0.148-0.149l0.098-0.104l0.149-0.047l0.154-0.147h0.15l0.196,0.051l0.25-0.103l0.054-0.254
	l0.146-0.146h0.15l0.198,0.146l0.203,0.104l0.399,0.103c1.185,0.147,1.844-0.287,2.902-0.453l0.197-0.049l0.154-0.103l0.1-0.149
	l0.053-0.101l-0.053-0.149l0.053-0.25v-0.201l0.05-0.101l0.2-0.049l0.197-0.103l0.104-0.203l0.1-0.444l0.198,0.099l0.149-0.05
	l0.149,0.05l0.104,0.103l-0.054,0.149l-0.099,0.147l-0.052,0.198l0.148,0.103l0.104,0.052v0.198l0.198,0.052l0.098,0.053
	l0.103,0.146l0.051,0.102l0.053,0.153l-0.053,0.146l-0.051,0.151l0.199,0.099l0.149-0.05l0.098,0.103l0.053,0.101l0.155,0.047
	l0.148-0.047h0.098l0.249,0.149v0.25l0.104,0.199h0.301l0.099-0.054l0.149-0.047l0.148-0.051l0.05-0.101l0.05-0.152l-0.05-0.149
	l0.05-0.198l0.149-0.05h0.152l0.101,0.103l0.099,0.101l0.15,0.149l0.103,0.104h0.25l0.104,0.099l0.201-0.049h0.149l0.098,0.1
	l0.103,0.05v0.149l0.051,0.103l0.099,0.101l0.15,0.099l0.198,0.104l0.053,0.148l0.148,0.149l0.146-0.048h0.199l0.148-0.055
	l0.054-0.149l0.147-0.099h0.15l0.1-0.054H50.4l0.157,0.054h0.146l0.149-0.054l0.147-0.051l0.15-0.047l0.098-0.15l0.104-0.2
	l-0.2-0.101l-0.15-0.049l-0.102-0.199l-0.1-0.104L50.7,73.193l-0.052-0.103l-0.047-0.149v-0.103l0.047-0.198l-0.047-0.151
	L50.5,72.341v-0.104l0.202-0.148v-0.146l0.103-0.051l0.197-0.102l0.05-0.104l0.253,0.049l0.2-0.049l0.05-0.1l-0.05-0.15
	l-0.104-0.098l-0.15-0.053l-0.047-0.15l-0.051-0.201l-0.104-0.146l-0.099,0.146l-0.102,0.104l-0.099,0.15l-0.15,0.049l-0.104-0.148
	v-0.102H50.25l-0.051-0.1l-0.049-0.102l0.049-0.201l0.149-0.049l0.406-0.199l0.646-0.301h0.2l0.103-0.055l0.15-0.049l0.199,0.104
	l0.099-0.15v-0.199l0.053-0.148l0.048-0.152l0.101-0.103l0.103,0.103l0.103,0.053l0.15-0.053l0.196-0.148l0.053-0.1l0.203-0.053
	l0.198,0.104l0.201,0.049l0.148,0.049l0.104,0.102l0.2,0.053l0.099-0.104l0.301-0.293l-0.103-0.054l-0.048-0.103l-0.051-0.15
	l-0.053-0.295l0.053-0.104l0.149-0.25l0.1-0.146l-0.05-0.102l0.05-0.15l0.049-0.104v-0.302l-0.049-0.099l0.049-0.148
	c0.187-0.416,0.146-0.484-0.247-0.751c-0.417-0.071-0.692-0.483-0.65-0.851l-0.05-0.149l0.05-0.104l0.102-0.197l0.149-0.104
	l0.151-0.195l0.049-0.148l-0.049-0.152l0.146,0.053h0.203l0.199,0.051l0.15,0.098h0.296l0.151-0.098l0.104-0.051l0.097-0.146v-0.41
	c1.003-0.146,0.19-0.195,1.254-0.502l0.253-0.047l0.146-0.104h0.147l0.152-0.1l0.102-0.104l0.101-0.148l0.148-0.05l0.2-0.104
	c-0.203-0.717,0.134-0.646,0.703-0.799l0.2,0.049l0.102,0.053l0.146,0.102l0.102,0.051h0.453l0.198,0.051l0.198,0.102l0.15-0.102
	l-0.054-0.148l-0.099-0.15l-0.148-0.201l-0.05-0.352l-0.054-0.447l0.054-0.303l0.05-0.148l0.148-0.15h0.2l0.148-0.051l0.252-0.1
	h0.103l0.15,0.146l0.098-0.102h0.198l0.15,0.203h0.249l0.148,0.104l0.199,0.096l0.151,0.101l0.103,0.151l0.148,0.052l0.1-0.304
	l-0.1-0.147l-0.054-0.201v-0.25h-0.298l-0.054-0.25l-0.15-0.103l-0.146-0.198l-0.199-0.149l-0.15-0.199l-0.103-0.103v-0.25
	l0.103-0.049l0.15-0.052l-0.053-0.354l-0.2-0.05l-0.097-0.049l-0.055-0.302l-0.249,0.097l-0.048-0.349l-0.149-0.149l0.049-0.101
	v-0.198l-0.153-0.104l0.104-0.196l0.149-0.104l0.048-0.301v-0.199l-0.249-0.197l-0.152-0.1l-0.148-0.104l-0.15-0.048h-0.302
	l-0.198,0.048l-0.199,0.152h-0.2l-0.302,0.05l-0.248-0.25l-0.199,0.097l-0.248,0.104l-0.104,0.146l-0.203,0.1l-0.104-0.1l-0.147,0.1
	h-0.147l-0.053,0.199l0.053,0.203l-0.053,0.15l-0.049,0.199l0.049,0.098v0.352l0.2,0.402l0.251,0.248v0.201l-0.054,0.25
	c-0.475-0.283-0.906-0.566-1.45-0.801l-0.447,0.051L55.3,58.12L55.1,58.068h-0.302l-0.198-0.15h-0.199l-0.05,0.096v0.058
	l-0.204,0.052l-0.098,0.1h-0.103l-0.146-0.053l-0.403,0.252l0.054,0.198l-0.103,0.201l-0.4,0.252h-0.303l-0.101-0.203v-0.15h-0.147
	l-0.252-0.2l-0.601,0.051l-0.149-0.051h-0.296l-0.151,0.101l-0.351,0.053L50.29,58.62l-0.147-0.146l-0.352-0.054l-0.397,0.054
	l-0.198,0.101l-0.15-0.101h-0.248l-0.253,0.146l-0.146,0.2h-0.149l-0.2-0.101l-0.104,0.05l-0.2,0.051l-0.05,0.199l-0.302-0.05H47.25
	l-0.15,0.351l-0.151,0.104c0.031,0.646-0.431,1.291-1.099,0.851l-0.146,0.351L45.6,60.777h-0.099l-0.104,0.199l-0.149,0.049
	l-0.396,0.055l-0.2,0.097l-0.104,0.15l0.051,0.248l-0.051,0.305l-0.249,0.052l-0.102-0.302l-0.199-0.397l-0.352,0.146l-0.148-0.146
	l-0.299-0.149v-0.149l-0.954,0.149l-0.397-0.201l-0.398,0.146l-0.351-0.146l-0.353,0.101l-0.098-0.101l-0.208-0.399l-0.298-0.201
	l-0.403-0.1l-0.296,0.1l-0.604-0.401l-0.248-0.099L38.04,59.73l-0.553,0.101l-0.399-0.199h-0.351l0.049,0.149l-0.102,0.099v0.353
	l-0.146,0.203l-0.054,0.297h-0.147l-0.3-0.101l-0.453,0.052l-0.098,0.104v0.197l-0.153,0.149l-0.453,0.199l-0.249,0.198
	l-0.446,0.104L34.08,61.72l0.104,0.251l-0.199,0.104l-0.154,0.199l-0.248,0.197l0.103,0.201l0.051,0.35l0.147,0.199l-0.102,0.254
	l0.15,0.15l0.1-0.104l0.101-0.15l0.149,0.051l0.253,0.053l0.097,0.102l0.149-0.053l0.25,0.104l0.149,0.297h0.247l0.207,0.054
	l0.298,0.047l0.104,0.104l-0.051,0.353l-0.149,0.201l-0.705,0.603l-0.3,0.098l-0.148,0.149l-0.249,0.052v0.149l0.102,0.25
	l-0.252,0.302l-0.048,0.1l0.448,0.5l0.351-0.051l0.149-0.147h0.504l0.051,0.198l-0.051,0.351v0.199l-0.255,0.104l-0.05,0.199
	l-0.15,0.104l-0.149,0.498l-0.048,0.148l0.1,0.454l0.101,0.101l0.104,0.103l0.503,0.047l0.552,0.601l0.501,0.198l0.249,0.302
	l0.147,0.405l0.201,0.396l0.351,0.199l0.05,0.104c-0.536,0.668-0.413,0.967-1.499,0.5L35.898,71.784z"/>
<path style="fill:#EBEBEB;stroke:#525252;stroke-width:0.2;stroke-linejoin:round;stroke-miterlimit:10;" d="M88.362,20.307
	l-0.198-0.199l-0.05-0.15l-0.505,0.1l-0.049,0.25l-0.15,0.102l-0.098,0.049l-0.054,0.15l-0.053,0.199l-0.103,0.053l-0.196,0.049
	c-0.699-0.301-1.037,0.642-0.849,1.1l-0.203,0.054l-0.102,0.097l0.102,0.15v0.102c-0.358,0.202-0.638,0.396-1.003,0.049
	c-0.524,0.371-0.453,0.174-0.897,0.301l-0.103-0.15l0.148-0.199l-0.049-0.198l-0.048-0.15L83.8,21.915
	c-0.041-0.323,0.242-0.733-0.353-0.752l-0.197,0.051l-0.2-0.051l-0.253-0.1l-0.253,0.1l-0.148,0.051l-0.146,0.051l-0.104,0.1
	L82,21.465l-0.148,0.049l-0.15-0.098l-0.199-0.051h-0.448l-0.149,0.051l-0.248-0.102l-0.149-0.049h-0.15l-0.152,0.1l-0.049,0.148
	l0.049,0.15c-0.069,0.326-0.229,0.644-0.5,0.852l-0.152,0.1L79.4,22.712L79.3,22.809H79.15l-0.151,0.049
	c0.252,0.514-0.377,0.868-0.748,1.056c-0.771,0.356-1.412,0.017-1.454,1.148c-0.321,0.866-0.231,0.942-0.247,1.755
	c-0.187,0.563-0.456,0.91-1.104,0.852h-0.199l-0.148,0.049l-0.149,0.049l-0.104,0.102l-0.148,0.15l-0.05,0.15v0.199
	c-0.142,0.954-0.224,0.515-0.998,0.702c-0.423,0.405-0.349,0.905-1.104,0.803l-0.205,0.049l-0.146,0.051l-0.151,0.153l-0.101,0.095
	l-0.199,0.104l-0.149,0.048l-0.099,0.1h-0.25l-0.054-0.1l-0.104-0.152l-0.049-0.095l-0.25-0.054l-0.148,0.103l-0.202,0.095H70.29
	c-0.557,0.095-0.505-0.481-1.648-0.699l-0.15,0.15l-0.2,0.152l-0.101,0.1l-0.146,0.049l-0.152,0.104l-0.056,0.144
	c-0.25,0.799-0.242,0.289-0.599,0.852c-0.325,0.271-0.084,0.426-0.502,0.905L66.63,32.12l-0.048,0.155v0.148l-0.055,0.252
	l-0.049,0.103l-0.104,0.097l-0.248,0.049l0.248,0.152l-0.099,0.148v0.4l0.099,0.403l-0.049,0.25l-0.199,0.1l-0.049,0.201
	l-0.148,0.049l-0.052,0.203l-0.251,0.248l-0.101,0.199l0.101,0.5l-0.051,0.204l-0.103,0.147l-0.054,0.15l0.104,0.251h0.201
	l0.049,0.152l0.197,0.15l0.049,0.098l-0.098,0.15l0.049,0.15l0.15,0.199l0.302,0.201c-0.069,1.782,0.836,1.426,1.101,2.002
	l0.1,0.199l-0.146,0.301l0.049,0.203v0.045l-0.049,0.404l0.099,0.1l0.198-0.1l0.104,0.1l0.304,0.201l0.148-0.102l0.301-0.051h0.15
	l0.198-0.051l0.049,0.152l0.103,0.148l0.1,0.146h0.351l0.202,0.051l0.052,0.104l0.146,0.049l0.15,0.051l0.103,0.104l0.199,0.248
	c0.476,0.551,1.005,1.088,1.403,1.7h0.398l0.097,0.05l0.205,0.151l0.146,0.149l0.357,0.255l0.049,0.146l0.2,0.053l0.247,0.098
	l0.651,0.055l0.497,0.049l0.253-0.049l0.301-0.104l0.049-0.101c0.659,0.314,0.58-0.223,1.604,0.101l0.296,0.104h0.253l0.247-0.055
	l0.307,0.104l0.299,0.053l0.25-0.102l0.354-0.055l0.799-0.248l0.5,0.102l0.307-0.146h0.25L81,44.293h0.404l0.297-0.049l0.255-0.152
	l0.146-0.1l0.049-0.305l0.202-0.146l0.353-0.051l0.303,0.051l0.146,0.049l0.203-0.049c-0.502-0.635-0.678-0.424-0.854-1.252v-0.25
	l-0.054-0.301v-0.205l0.104-0.201l0.253-0.047v-0.303l0.049-0.148l0.048-0.198l0.204-0.151h0.204l0.194-0.146l0.147-0.053
	l0.152-0.15l0.25,0.104h0.101l0.103,0.102l0.199-0.102l0.099-0.055h0.151l0.101,0.104h0.299l0.199-0.104l0.257,0.055l0.099-0.055
	l0.401,0.055l0.199,0.049h0.148l0.146,0.053l0.15-0.201l0.104-0.1l0.196-0.051l0.304-0.1l0.194-0.057h0.102l0.15,0.057l0.102-0.057
	l0.253,0.104l0.103-0.149l0.1-0.052l0.15,0.101l0.248-0.146v-0.448l0.102-0.15l0.051-0.153l-0.051-0.197l0.15-0.151l0.051-0.25
	l0.103-0.146h0.397l0.098-0.055l0.203-0.246l0.146-0.055h0.25l0.104,0.055l0.103,0.147l0.054,0.149l0.199,0.099l0.104-0.049
	l0.199-0.15l0.102,0.15l0.148,0.098l0.146,0.104v0.146l-0.104,0.152v0.149l0.149,0.049l0.252-0.149l0.147-0.049h0.252l0.103,0.049
	l0.146,0.104l0.054,0.149l-0.054,0.146l0.054,0.149c0.422-0.176,0.729-0.948,1.253-0.601l0.2-0.151l-0.054-0.147
	c0.521-0.645,0.748-0.11,0.604-1.001l0.296,0.102h0.204l0.051-0.15h0.199l0.102-0.102v-0.15l0.199-0.049l0.149,0.15l0.254,0.049
	l0.149-0.199l0.148-0.301l0.147-0.302l0.052-0.097l0.151-0.201l0.146-0.151v-0.15c-0.068-0.331,0.134-0.882,0.5-1.002l0.048-0.25
	c0.255-0.169,0.366-0.515,0.104-0.797l0.247-0.152l0.104,0.097l0.201-0.15l0.252,0.054l0.149-0.054l0.197-0.1h0.204l0.1-0.147h0.247
	l0.204-0.104l0.1-0.049h0.247l0.104-0.046l0.149,0.046l0.248-0.046l0.198-0.054l0.149,0.1l0.105,0.102l0.146,0.1h0.155l0.25-0.048
	l0.146,0.048l0.1,0.1v0.153l0.153,0.152h0.146l0.147-0.056l0.204-0.097l0.148,0.046l0.146,0.051h0.253l0.098,0.15l0.054,0.151
	l0.197,0.048l0.254-0.294l0.104-0.106l0.146,0.051l0.198-0.097l0.054-0.104l0.149-0.049h0.099l0.354,0.153h0.104l0.146-0.104
	l0.052-0.148V33.28l0.198-0.049h0.197l0.4-0.1h0.15l0.055-0.148l0.099-0.15l0.151,0.049l0.151,0.102l0.146,0.1l0.147,0.103
	l0.103,0.147l0.149,0.299l0.149,0.15l0.247,0.056l0.152-0.152l0.098,0.097l0.149,0.302l0.05,0.201l0.102,0.25l0.104,0.152
	l0.098,0.15l0.051,0.098c0.1,0.479,0.561,0.743,0.957,0.951l0.196-0.102l0.149,0.102l0.2-0.048v-0.25l0.198-0.1l0.102,0.048h0.25
	l0.151-0.1l0.199-0.1l0.095-0.102h0.201l0.257-0.051l0.104-0.1l0.198,0.049l0.146,0.051l0.201-0.051l0.1,0.102h0.201l0.104-0.051
	l0.098-0.1l0.102-0.201l-0.148-0.103l-0.104-0.347v-0.201l0.056-0.503v-0.451l0.098-0.495l0.149-0.253l0.248-0.451l0.303-0.352
	l0.3-0.348l0.201-0.051l0.25-0.35l0.148-0.35c0.191-1.371-0.158-0.653,0.305-2.306l0.148-0.452l0.199-0.398l0.352-0.502l0.25-0.35
	l0.197-0.352l-0.049-0.148l0.098-0.405h-0.199l-0.35-0.046h-0.353l-0.248-0.051l-0.149-0.1l-0.049-0.153l-0.103-0.097l-0.102-0.15
	l-0.103-0.103h-0.25l-0.201,0.15c-0.263-0.102-0.55-0.104-0.802-0.199l0.103-0.15L112,24.666l-0.149-0.052l-0.198,0.103
	c-0.438-0.257-0.927-0.373-1.405-0.554l0.049-0.25v-0.102l-0.049-0.15l-0.049-0.199l-0.253-0.199l-0.149-0.15l-0.051-0.15
	l-0.05-0.25l-0.104-0.148l-0.195,0.046l-0.151-0.1h-0.199l-0.101-0.146l-0.198-0.054h-0.103l-0.097-0.15l-0.151-0.097l-0.104,0.097
	l-0.148,0.104l-0.1,0.247h-0.104l-0.104-0.146v-0.15l-0.146-0.103l-0.104-0.15l-0.097-0.049l-0.104-0.102h-0.396l-0.104-0.097
	l-0.15-0.204l-0.1-0.098l-0.303,0.15l-0.148-0.053h-0.147l-0.146,0.053l-0.15,0.197h-0.152l-0.098-0.046l-0.104,0.147
	c-0.686,0.042-0.933-0.363-1.903-0.4l-0.049,0.199l-0.149,0.054l-0.146,0.097l0.052,0.15l-0.104,0.15l-0.103,0.049l-0.45-0.299
	l-0.15-0.051l-0.098,0.051h-0.256l-0.301,0.1l0.055,0.199l0.149,0.15l0.148,0.102l0.099,0.199l-0.15,0.103l-0.097,0.048
	l-0.149-0.048h-0.151l-0.097,0.097l-0.103,0.104l-0.104,0.248l-0.101,0.102l0.101,0.199h-0.25l-0.148,0.102l-0.099,0.049
	l-0.149-0.049l-0.149-0.15l-0.154-0.054l-0.149,0.103v-0.199l-0.099-0.199l-0.103,0.049l-0.198,0.1l-0.05-0.1l-0.149-0.049
	l0.051-0.15l-0.151-0.056l-0.048-0.146l-0.2,0.047l-0.1-0.15l-0.056-0.1l-0.046-0.201v-0.097l-0.25-0.103l-0.199,0.049l-0.153,0.104
	l-0.199,0.1l-0.198-0.1L97.98,22.16l-0.057,0.104l0.057,0.1l-0.104,0.097v0.15c-0.66,0.28-0.813-0.465-1.452-0.397v0.198
	l-0.347,0.153l-0.101-0.104h-0.149l-0.403-0.097l0.056,0.247v0.454l-0.056,0.098l-0.199-0.049h-0.102l-0.199,0.1l-0.199-0.051
	l-0.15-0.049l-0.149,0.15l-0.146,0.15l-0.152,0.15l0.104,0.15l-0.11,0.096l-0.098-0.199l-0.149,0.35l-0.049,0.301l-0.15,0.146
	l-0.051,0.153l0.051,0.252l-0.104,0.15l-0.046,0.151v0.198l-0.104,0.1l-0.146-0.1l-0.104-0.102l-0.196-0.049l-0.104-0.102
	l-0.052-0.098l-0.149-0.15l-0.496-0.097l-0.502,0.495l-0.148,0.054l-0.104,0.097l-0.346-0.15l-0.103,0.102l-0.199-0.15l-0.058-0.15
	l0.058-0.15l0.148-0.301l0.051-0.199l0.197-0.1l0.053-0.152l-0.201-0.096L90.97,23.86l0.103-0.199l-0.103-0.302l0.049-0.198
	l-0.049-0.15L90.92,22.76v-0.15l-0.053-0.1l-0.25-0.051l-0.099,0.104l-0.154,0.196l-0.103-0.102l-0.147-0.049l-0.152-0.046
	l-0.396-0.054l0.101-0.247l-0.051-0.153v-0.15l-0.199,0.103l-0.148-0.103l-0.1-0.049l-0.148-0.102l-0.049-0.15l-0.053-0.15
	c-0.14-0.407-0.356-0.734-0.301-1.15L88.362,20.307z"/>
<path style="fill:#EBEBEB;stroke:#525252;stroke-width:0.2;stroke-linejoin:round;stroke-miterlimit:10;" d="M108.441,53.104
	l0.15-0.047l0.148-0.151l0.147-0.247l0.053-0.104l0.099-0.146l0.201-0.201l0.198-0.049l0.146-0.104v-0.15l0.104-0.197v-0.199
	l0.101-0.15l0.051-0.148l0.201-0.104l0.147-0.195l-0.056-0.205l-0.095-0.146V50.4l0.199-0.502v-0.353l0.1-0.196l0.201-0.149
	c0.13-0.931,0.308-0.498,0.753-0.806l0.151-0.149l0.05-0.146l0.05-0.1l-0.049-0.25v-0.104l-0.05-0.152l-0.053-0.102l-0.102-0.1
	l-0.051-0.25c0.21-1.27,0.497-0.51,1.102-1.551l0.248,0.045l0.15-0.098v-0.398l0.051-0.102l0.201-0.203l0.152-0.494l0.049-0.104
	c0.407-0.548,0.104-0.306,0.747-0.804l0.104,0.051l0.152,0.054h0.148l0.397,0.052c0.215-0.425-0.074-0.748,0.397-0.854
	c0.504,0.063,0.486,0.442,1.007,0.454c1.706-0.493,0.208-0.784,1.646-1.104l-0.047-0.198l-0.103-0.099l-0.05-0.153l0.1-0.201
	l0.147,0.052l0.106-0.099l0.097-0.099l0.253-0.104l0.099-0.103l0.055-0.101l0.097-0.301l0.104-0.103l0.098-0.104l0.354-0.045
	l0.048-0.154l-0.048-0.146l-0.149-0.053h-0.354l-0.099-0.1l-0.148-0.152l0.048-0.199l-0.048-0.199l-0.05-0.354l-0.055-0.302
	l-0.199-0.146l-0.301-0.104l-0.252-0.051c-1.766,0.164-1.153-0.741-2.001-1.252l-0.252-0.202l-0.199-0.095l-0.301-0.102
	l-0.351,0.049l-0.354-0.049l-0.148-0.201l-0.15-0.299c-0.427-0.942-0.953-1.142-1.9-1.354l-0.102,0.201l-0.099,0.1l-0.104,0.051
	h-0.201l-0.1-0.102l-0.199,0.051l-0.146-0.051l-0.201-0.049l-0.102,0.1l-0.255,0.051h-0.204l-0.095,0.102l-0.201,0.098l-0.148,0.1
	h-0.25l-0.102-0.046l-0.198,0.097v0.253l-0.198,0.048l-0.149-0.102l-0.199,0.102c-0.396-0.208-0.856-0.472-0.956-0.953l-0.051-0.098
	l-0.099-0.15l-0.104-0.15l-0.1-0.25l-0.052-0.201l-0.147-0.302l-0.099-0.097l-0.151,0.15c-0.68-0.037-0.169-0.595-1.25-1.003
	l-0.097,0.15l-0.06,0.148h-0.148l-0.399,0.1h-0.199l-0.197,0.049v0.152l-0.053,0.148l-0.146,0.104h-0.104l-0.352-0.153h-0.099
	l-0.149,0.049l-0.052,0.104l-0.2,0.097l-0.146-0.051l-0.101,0.104l-0.254,0.296l-0.199-0.048l-0.054-0.151l-0.098-0.15h-0.254
	l-0.146-0.051l-0.15-0.046l-0.202,0.097l-0.146,0.054h-0.15l-0.148-0.15V33.52l-0.104-0.1l-0.146-0.051l-0.25,0.051h-0.153
	l-0.146-0.1l-0.105-0.102l-0.148-0.1l-0.199,0.051l-0.248,0.049l-0.149-0.049l-0.103,0.049h-0.25l-0.1,0.049l-0.199,0.102h-0.25
	l-0.099,0.15H98.42l-0.197,0.1l-0.149,0.054l-0.252-0.054l-0.202,0.15l-0.103-0.097l-0.248,0.15c0.266,0.282,0.151,0.63-0.104,0.796
	l-0.049,0.253c-0.365,0.12-0.569,0.671-0.5,1.002v0.15l-0.146,0.151l-0.153,0.201l-0.051,0.097l-0.146,0.302l-0.149,0.301
	l-0.15,0.199l-0.252-0.049l-0.149-0.15l-0.197,0.049v0.15l-0.104,0.102H94.92l-0.049,0.15h-0.206l-0.296-0.102
	c0.146,0.891-0.084,0.358-0.604,1.002l0.054,0.147l-0.203,0.151c-0.521-0.351-0.829,0.424-1.25,0.601l-0.055-0.149l0.055-0.146
	l-0.055-0.15l-0.146-0.104l-0.103-0.049h-0.253l-0.146,0.049l-0.255,0.15l-0.15-0.05V38.73l0.104-0.151V38.43l-0.146-0.102
	l-0.146-0.1l-0.104-0.148l-0.197,0.148l-0.104,0.049l-0.201-0.101l-0.051-0.149l-0.104-0.146l-0.102-0.053H89.96l-0.146,0.053
	l-0.204,0.246l-0.097,0.053h-0.398l-0.102,0.148l-0.051,0.25l-0.151,0.15l0.052,0.198L88.81,39.08l-0.102,0.148v0.449l-0.247,0.146
	l-0.151-0.1l-0.099,0.051l-0.104,0.146l-0.252-0.101l-0.102,0.056l-0.15-0.056h-0.102l-0.195,0.056l-0.303,0.101l-0.197,0.051
	l-0.104,0.099l-0.153,0.203c-0.41-0.134-0.88-0.106-1.252-0.154l-0.197,0.104h-0.297l-0.104-0.104h-0.148l-0.102,0.056l-0.199,0.103
	L84.15,40.23H84.05l-0.25-0.104l-0.148,0.149l-0.149,0.054l-0.195,0.146h-0.203l-0.204,0.149l-0.049,0.201L82.8,40.98v0.302
	l-0.252,0.047l-0.103,0.2v0.203l0.054,0.302v0.25c0.181,0.829,0.354,0.612,0.854,1.252l-0.204,0.049l-0.146-0.049l-0.307-0.052
	l-0.35,0.052l-0.201,0.146l-0.047,0.301l-0.149,0.104l-0.255,0.153l-0.297,0.048H81l-0.25-0.048h-0.248l-0.307,0.146l-0.5-0.1
	c-1.885,0.623-1.125,0.238-2.505,0.301c-1.313-0.512-1.188,0.133-1.9-0.201l-0.05,0.1l-0.302,0.104l-0.251,0.047l-0.497-0.047
	l-0.651-0.055l-0.249-0.101l-0.198-0.05l-0.049-0.146l-0.356-0.256l-0.146-0.149l-0.203-0.149l-0.099-0.05H71.84
	c-0.211-0.344-1.036-1.344-1.299-1.551l-0.105-0.149l-0.199-0.248l-0.104-0.104l-0.149-0.051l-0.146-0.049l-0.054-0.104
	l-0.198-0.051H69.23l-0.1-0.146l-0.103-0.148l-0.049-0.152l-0.2,0.049h-0.147L68.33,40.98l-0.148,0.103l-0.5,0.297l-0.104,0.201
	l0.149,0.104l-0.199,0.351l0.099,0.146l-0.099,0.45l-0.35,0.203h-0.254l-0.049,0.149l0.303,0.199v0.196l0.146,0.354l-0.146,0.097
	l0.098,0.301v0.603l0.148,0.203l-1.896,0.198l-0.053-0.303l-0.354,0.453l-0.55-0.052l-0.1-0.053l-0.15-0.248l-0.198-0.351
	l-0.199-0.103l-0.301-0.051l-0.148-0.147l-0.25-0.05l-0.104,0.099H62.72l-0.1,0.199l0.047,0.149l-0.1,0.196l-0.25,0.056
	l-0.249,0.149l-0.102,0.147l-0.199-0.147l-0.055,0.25l-0.146,0.194l0.25,0.104l0.199,0.052l0.197,0.103h0.25l0.452,0.301h0.202
	l0.354-0.103l0.148,0.25l0.149,0.353l-0.049,0.199l0.348,0.399l-0.2,0.351l-0.353,0.103l0.154,0.301v0.147l-0.104,0.147
	l-0.351,0.354l-0.198,0.051l-0.203,0.199h-0.55l-0.104,0.197L62.019,49v-0.15h-0.303l0.055,0.65l-0.201,0.049l0.053,0.102
	l0.148,0.102l0.248,0.75l-0.15,0.354l-0.299,0.052l-0.051,0.448l-0.146,0.151l0.099,0.248l0.15,0.054l0.197,0.248l-0.149,0.103
	v0.146l0.198,0.053l0.054-0.053l0.299-0.05l0.103,0.252l-0.55,0.5l0.148,0.25l0.299,0.252l-0.599,0.15l-0.053,0.198l0.449,0.099
	l0.148,0.149v0.103l-0.351,0.049l-0.25-0.049l-0.102,0.049l-0.197-0.1l-0.249,0.051l-0.201-0.103l-0.201,0.103l-0.146-0.051
	l-0.154,0.051l-0.05-0.147h-0.149l-0.102,0.353l-0.052,0.248l-0.252,0.053l-0.146,0.197l-0.251,0.051l-0.201,0.399l-0.55,0.503
	l0.249,0.25c0.956-0.021,0.441-0.402,1.353-0.201l0.149,0.104l0.154,0.099l0.246,0.198v0.196l-0.047,0.304l-0.149,0.103
	l-0.105,0.199l0.154,0.102v0.199l-0.049,0.101l0.149,0.149l0.047,0.349l0.25-0.097l0.054,0.304l0.098,0.047l0.2,0.049l0.053,0.354
	l-0.152,0.052l-0.102,0.049v0.252l0.102,0.103l0.152,0.198l0.196,0.148l0.146,0.198l0.149,0.104l0.054,0.248h0.297v0.252
	l0.056,0.201l0.098,0.146l-0.098,0.301c0.514,0.189,0.753,0.412,1.354,0.554l-0.104,0.149l0.154,0.101l0.146,0.149l0.103,0.351
	l0.099,0.103l0.149-0.149l0.104,0.248l0.199,0.103l0.149-0.052h0.197l0.152,0.151l0.297,0.199l0.148,0.149l0.104,0.149v0.248
	l0.05,0.252v0.152l0.248,0.297l0.104,0.147l0.15,0.149l0.198,0.051l0.048,0.148l0.151,0.057l0.301,0.095l0.199,0.149l0.148,0.104
	l0.498,0.248l0.253,0.103h0.152l0.099,0.198v0.351l0.05,0.149l0.251,0.05l0.102,0.104l0.049,0.244l0.149,0.203l-0.099,0.102
	l0.298,0.1l-0.05,0.354l0.199-0.104l0.102,0.199l-0.301,0.104l0.104,0.102l0.248,0.051l0.049,0.301l0.15-0.102v0.148h0.15
	l0.048-0.148l0.054,0.148l0.248-0.102l-0.049,0.301l-0.103,0.051v0.148l0.197,0.051l0.055,0.15l0.199-0.047l0.148,0.098l0.104-0.098
	l-0.056-0.154l0.156-0.098c1.198,0.49,1.396-0.164,1.998,1.449l0.149,0.102l0.199-0.049l0.307,0.146l0.193,0.104l0.202,0.103
	l0.153,0.049l0.097,0.05h0.148l0.151,0.149l0.098,0.103l0.148,0.149l0.151-0.049l0.149-0.15l0.197,0.05l0.303-0.05h0.253
	l0.249-0.053l0.148,0.149l0.199,0.103l0.303,0.099h0.199l0.103-0.099l0.146-0.149h0.198l0.148,0.049l0.104,0.055l0.147-0.104
	l0.201,0.049l0.148,0.149l0.401,0.15h0.25l0.198,0.1l0.252,0.054l0.1-0.199h0.351l0.103,0.146l0.052,0.15l0.198-0.051l0.149-0.047
	l0.049-0.199h0.203l0.049-0.152l0.146-0.199l0.208,0.15l0.049-0.102l0.25-0.104l0.148-0.149l0.102-0.149l0.201-0.097l0.147-0.199
	V69.49l0.1-0.153l0.148-0.1l-0.049-0.148l0.15-0.198l0.049-0.103l0.098-0.051h0.252l0.201,0.104l0.199,0.05l0.198,0.151l0.307,0.047
	l0.049-0.248l0.152-0.149l0.146,0.099l0.449-0.199l0.252-0.146l0.449,0.097l0.252-0.097l0.146-0.055l-0.101-0.149l0.15-0.199
	l0.447-0.149V67.78l-0.05-0.152l0.354-0.549l0.049-0.05l0.199,0.103v0.199l0.102,0.149l0.15,0.099l0.248,0.049l0.199-0.099
	c0.287,0.052,0.551,0.134,0.852,0.05l-0.199-0.197l0.148-0.151l0.199-0.099l0.1-0.149l0.206-0.103h0.099l0.151,0.15l0.148-0.099
	l0.198-0.056l0.1-0.2l0.102-0.101l0.153-0.101l0.097-0.3l0.101-0.104h0.152l0.199-0.147v-0.098l-0.104-0.201l0.057-0.149
	l0.193-0.052l0.153-0.252h0.648l0.149-0.101l0.153-0.098l0.198,0.047c0.436-0.063,0.202,0.217,0.996,0.502l0.104,0.052l0.247,0.1
	l0.104-0.049l0.102-0.103l0.199-0.103l0.604-0.353c0.465,0.033,0.664-0.266,0.897,0.353l0.25-0.051l0.195-0.25l0.104-0.103
	l0.102,0.2l0.199,0.103l0.199,0.05l0.097-0.05l0.255-0.2c0.294,0.385,0.263,0.559,0.65,0.502l0.051-0.201l0.153-0.101l0.097-0.049
	h0.199l0.148-0.054l0.15-0.149h0.098l0.149,0.101l0.199,0.053l0.151,0.104h0.247l0.209-0.05l0.146-0.104l0.051-0.101v-0.2
	l0.052-0.15c0.777,0.255,0.698,0.354,1.299,0.757l0.104-0.103l0.049-0.099l0.199-0.053l0.049-0.054
	c0.62-0.371,0.188-0.424,0.555-0.696l0.055-0.199v-0.301l0.049-0.199l0.148-0.104l0.104-0.099l0.296-0.151l0.351-0.099l0.5,0.3
	l0.102-0.101v-0.103h0.148l0.149,0.201l0.398-0.052l0.155-0.051l0.147,0.147l0.049,0.104l0.199,0.096l0.15-0.149l0.102-0.051
	l0.148-0.147l0.053-0.304l0.047-0.099l0.201-0.049l0.147,0.049l0.199-0.103v-0.198l0.049-0.199l0.104-0.151l-0.047-0.25v-0.101
	c0.103-0.51,0.113-0.522,0.549-0.752l0.146,0.148h0.157l0.047-0.148v-0.198l0.098-0.099v-0.203l-0.098-0.149l-0.104-0.049
	l-0.15-0.101l-0.098-0.147V60.26l0.049-0.15l0.1-0.149l0.053-0.103l0.151-0.147l0.05-0.199l0.104-0.151l-0.15-0.096
	c0.142-0.57-0.044-0.568,0.552-0.701l0.152,0.147l0.196-0.051l0.098-0.25l0.252-0.15v-0.146l-0.147-0.107l-0.051-0.096l0.146-0.149
	h0.204l0.201,0.05l0.197-0.25l0.149-0.199v-0.148l-0.104-0.053l-0.245-0.199l0.049-0.199l0.047-0.104l0.149-0.297V55.91l0.054-0.15
	l0.146-0.102h0.149l0.201-0.146l0.151-0.15l0.05-0.201v-0.1l-0.1-0.35l0.05-0.104l0.05-0.1l0.2-0.055l0.102-0.146l0.051-0.102h0.15
	v-0.199l-0.05-0.201l0.146-0.146l-0.051-0.203L108.441,53.104z"/>
<path style="fill:#EBEBEB;stroke:#525252;stroke-width:0.2;stroke-linejoin:round;stroke-miterlimit:10;" d="M36.985,27.318
	l0.352-0.104l0.303,0.203l0.197,0.197l0.154,0.451l0.15,0.253l0.198,0.097h0.352l0.146,0.102l0.103,0.353l0.248,0.35l0.103,0.449
	l0.201,0.352l0.351,0.102l0.601,0.699l0.354,0.153l0.055,0.146l0.396,0.503l-0.302,0.1l-0.049,0.201l0.2,0.196l0.049,0.155
	l0.148,0.051l0.047,0.15l1.403,0.248L43,32.779l0.6,0.347l0.249-0.201h0.197l0.055-0.199h0.296l0.302-0.449l-0.048-0.201
	l0.098-0.051l0.198,0.051l0.151,0.252l0.505,0.199L46,32.326l0.199,0.301l0.102-0.053l0.199,0.301h0.301l0.146-0.15L47,32.326
	v-0.402l0.05-0.353l0.15-0.15l0.5-0.397l0.2-0.653c0.759-0.051,0.618,0.338,1.353,0.255l0.056-0.153l-0.151-0.147l-0.053-0.202
	l0.102-0.25l0.149-0.303v-0.25l0.099-0.549l-0.049-0.253l0.049-0.198l-0.049-0.403l0.2-0.498l0.148-0.1h0.152l0.096,0.047h0.2
	l0.198,0.25l0.456-0.1l0.147,0.1l0.152,0.203v0.199l-0.103,0.199l0.053,0.054l0.05,0.049h0.198l0.249-0.199h0.352l0.104-0.403
	l0.197-0.049l0.1,0.199l0.354-0.102l0.193,0.053l0.506,0.398l0.55,0.103l0.301,0.4l0.399,0.15l0.35,0.102l0.705,0.447l0.501,0.102
	l0.352-0.25l0.5-0.051v0.15l0.146,0.15l0.149,0.1l0.199,0.049l-0.049,0.104h0.247v0.148h0.258v0.299l0.351,0.201l-0.15,0.1
	l0.249,0.4l0.701,0.301l0.649-0.048l0.148,0.097l0.25,0.054h0.152l0.303-0.054l0.398,0.15l0.2-0.15l0.148,0.15l0.297-0.15
	l0.203-0.247l0.25-0.503l0.397,0.104l0.302-0.204l0.554,0.4h0.201l0.148-0.048l0.249,0.147l0.103,0.253l-0.103,0.201l0.103,0.15
	l0.198-0.104h0.149l0.101,0.104l0.148,0.046l0.104,0.151h0.149l0.146,0.102l0.252-0.102h0.354l0.147-0.151l0.098,0.103l0.151,0.201
	l-0.049,0.35l0.098,0.102v0.452l-0.049,0.146l0.248-0.049l0.104-0.097l0.048-0.103l0.055-0.252v-0.148l0.048-0.155
	c0.501-0.458,0.282-0.75,0.602-1c0.285-0.481,0.357-0.137,0.55-0.699c0.118-0.571,0.308-0.222,0.854-0.852
	c0.994,0.287,0.662,0.227,1.4,0.699h0.396l0.202-0.095l0.15-0.103l0.25,0.051l0.049,0.098l0.104,0.15l0.053,0.102
	c0.426,0.04,0.744-0.375,1.096-0.551c0.813-0.164,0.578,0.206,1.206-0.752l0.103-0.103l0.25-0.046h0.397l0.149-0.049l0.103-0.102
	l0.05-0.201v-0.151l0.048-0.15v-0.201l0.052-0.148l0.147-0.15l0.104-0.102l0.147-0.049l0.15-0.049h0.199
	c0.565,0.049,0.854-0.201,1.052-0.701c0.188-0.632-0.133-0.843,0.253-1.755c0.178-1.072,0.213-0.931,1.195-1.197
	c0.445-0.139,1.336-0.541,1.055-1.157l0.151-0.049h0.16l0.102-0.097l0.146-0.103l0.152-0.1l0.149-0.147l0.104-0.103l0.097-0.198
	l0.104-0.204l0.049-0.199l-0.049-0.15L80.2,21.36l0.152-0.1h0.15l0.149,0.049l0.25,0.102l0.146-0.051H81.5l0.199,0.051l0.149,0.098
	L82,21.458l0.149-0.098l0.104-0.1l0.146-0.051l0.148-0.051l0.253-0.1l0.146-0.35l-0.146-0.15l-0.153-0.252l-0.146-1.003
	l-0.054-0.095l-0.146-0.201l-0.952-0.253l-0.248-0.15l-0.149-0.15l-0.25-0.801l-0.256-0.449l0.057-0.253l0.1-0.048l-0.403-0.753
	L79.8,16.1l-0.104-0.049l-0.198-0.15l-0.25-0.199l-0.148-0.049h-0.451l-0.198,0.15l-0.2,0.097l-0.15-0.199L77.999,15.4l-0.057-0.1
	l-0.352-0.102L77.446,15.3l-0.054-0.204v-0.15L77.193,14.8l-0.198,0.049V15l-0.148,0.049l-0.099-0.15l-0.253-0.049l-0.098-0.15
	l0.046-0.248l-0.097-0.204l-0.199-0.097l-0.104-0.102l-0.198-0.052l-0.102,0.1l-0.101,0.15v0.15l0.298-0.048l0.055,0.199v0.196
	l-0.303-0.097h-0.199l-0.153,0.152l-0.148,0.049l-0.198,0.199l-0.104,0.048h-0.146l-0.303,0.049l-0.104-0.049L74.242,15
	l-0.099-0.054l-0.252-0.097l-0.053-0.201l-0.1-0.052l-0.101-0.199v-0.15l-0.104-0.198l-0.049-0.151l-0.104-0.1l-0.146-0.301
	l-0.252-0.199l-0.156,0.098l-0.148-0.049l-0.099-0.15l-0.104-0.15l-0.15-0.049l-0.098-0.102l-0.049-0.102l0.049-0.148l0.199-0.051
	l0.396-0.15h0.209l0.099-0.199l0.298-0.051l0.103-0.098v-0.354l-0.149-0.147l-0.098-0.148v-0.104l0.098-0.198l0.104-0.153
	l-0.198-0.15l-0.149-0.196l-0.1-0.052l-0.104,0.052v0.196l-0.2,0.252l-0.149,0.148l-0.254,0.153l-0.247-0.153H71.99l-0.15,0.054
	l-0.352-0.103l-0.248,0.049l-0.102,0.054l-0.151,0.048l-0.049,0.199l-0.198-0.046l-0.054-0.255l-0.199-0.148h-0.203l-0.05,0.1v0.15
	h-0.149l-0.05-0.198l0.05-0.255l0.05-0.245l-0.1-0.052h-0.15l-0.252,0.052l-0.146-0.052l-0.254-0.15l-0.446-0.451l-0.054-0.201
	l-0.149-0.1l-0.199,0.1l-0.297-0.148v-0.15h-0.4l-0.056-0.104H67.43l-0.104-0.15c-0.553,0.058-0.563-0.22-1.048-0.296L66.13,9.147
	l-0.049,0.196v0.153l0.146,0.098l0.148,0.053l0.056,0.148l0.049,0.1v0.203l0.103,0.146l0.048,0.252l0.1,0.153l0.353,0.147
	l0.103,0.049l0.099,0.199v0.255l-0.099,0.15l0.099,0.199l0.05,0.097l-0.05,0.204l-0.146-0.054l-0.148-0.199l-0.149-0.048v0.146
	l-0.199,0.054l-0.149-0.054l-0.253,0.102L66.133,12.1l-0.104,0.049L65.883,12.1l-0.147,0.049l-0.104,0.15L65.48,12.35l-0.052,0.098
	l-0.104,0.201l-0.1,0.199L65.077,13l-0.15,0.049l-0.148,0.301l-0.146,0.098L64.33,13.35l-0.351-0.102L63.828,13l-0.099-0.152
	l-0.149-0.051l-0.149-0.199c-0.008-0.285-0.101-0.563-0.103-0.853c-0.884-0.845-0.479-0.569-0.954-1.25h-0.296l-0.204-0.199
	l-0.049-0.199V9.791L61.72,9.74l-0.347-0.098L61.12,9.841L60.971,9.79l-0.049-0.403L60.62,9.291l-0.098-0.1l-0.049-0.304
	c0.347-0.141,0.229-0.505,0.947-0.648l-0.048-0.102l0.048-0.1l0.249,0.148l0.149-0.049l0.15-0.196l0.104-0.049V7.688l0.146-0.15
	l0.052-0.201l0.25-0.15l0.103-0.103l-0.202-0.296l-0.397-0.35l-0.102-0.153l-0.101-0.099l-0.051-0.148l-0.103-0.103h-0.397
	l-0.199-0.051l-0.248-0.053l-0.151,0.104l0.051,0.251l-0.104,0.15l-0.098,0.051H60.37l-0.152-0.201L60.02,6.038l-0.25-0.054
	l-0.15,0.054l-0.05,0.097l-0.104,0.103l-0.101,0.201l-0.051,0.098l-0.198,0.099L58.87,6.587l0.05-0.148l0.149-0.102l-0.104-0.15
	V5.832l-0.147-0.146l-0.101-0.099l-0.102-0.052h-0.151l-0.198,0.1L58.12,5.686l-0.147,0.052h-0.156l-0.052-0.202v-0.1l-0.101-0.15
	l-0.103-0.15l-0.049-0.303l-0.15-0.15h-0.149l-0.1,0.15l-0.149-0.047l-0.196,0.148l-0.104-0.051h-0.198l-0.149-0.098V4.682
	l-0.146-0.098l-0.199-0.051l-0.253-0.15l-0.148-0.051h-0.151l-0.148-0.049l-0.147-0.049H54.92l-0.197-0.053L54.42,4.035
	l-0.104-0.206l-0.15,0.105l-0.051,0.15l-0.197,0.199L53.71,4.182v-0.7l-0.1-0.151l-0.2-0.099l-0.098-0.049l-0.253-0.3l-0.051-0.151
	l-0.104-0.301l-0.049-0.102l0.049-0.148l0.207-0.201L53.06,1.83l-0.049-0.153L52.856,1.58l-0.099-0.103l-0.048-0.15h-0.15
	L52.356,1.38l-0.1,0.146L52.156,1.38V1.03l-0.198,0.049l-0.099,0.199h-0.301v-0.15l-0.104-0.049l-0.2-0.199l-0.047,0.199l-0.15-0.15
	l-0.2,0.101l-0.249,0.049l-0.05,0.102l-0.104,0.146l0.154,0.104l0.148-0.051l0.1,0.199l-0.048,0.25v0.15l-0.2,0.201v0.201
	l0.047,0.151v0.15l-0.047,0.199l-0.154,0.097h-0.147l-0.151-0.049l-0.198-0.048l-0.25-0.054l-0.198,0.054L49.004,2.63l0.1,0.253
	v0.15L49.052,3.28l-0.096,0.153l-0.104,0.1l-0.198,0.049l-0.15-0.049l-0.149-0.051c-1.122-0.66-0.841-0.69-0.507-1.704L47.7,1.729
	l-0.1,0.049l-0.4,0.153h-0.1L47.05,1.829l0.104-0.304L47.2,1.229v-0.15l-0.15-0.1l-0.15-0.051L46.252,0.68l-0.958-0.405l-0.352-0.15
	h-0.296l-0.104,0.049l-0.098,0.102l-0.053,0.15l0.053,0.15l0.049,0.353l0.049,0.15c0.243,0.453,0.286,0.409,0.75,0.397l0.05,0.103
	v0.352l-0.099,0.148l-0.5,0.051h-0.396l-0.249,0.051l-0.149,0.1c-1.405,1.054-0.817,0.961-2.706,1.104L41.14,3.233l-0.099,0.25v0.15
	l0.099,0.35l-0.299,0.15h-0.351l-1.506-0.049l-1.104,0.4c0.315,0.537,0.401,0.709-0.148,1.051l-0.151,0.1h-0.198l-0.1-0.1
	l-0.251-0.298l-0.099-0.103l-0.103-0.102l-0.149,0.053l-0.2,0.049l-0.198,0.103l-0.249,0.198c-0.947,0.736-0.396,0.54-0.904,1.353
	l-0.197-0.049l-0.149-0.053l-0.551-0.052h-0.403L33.73,6.686l-0.101,0.15l-0.103,0.5L33.48,7.438l-0.103,0.199l-0.198,0.102
	l-0.101,0.202l-0.207,0.048l-0.147-0.097c-0.727-1.181-0.759-0.322-1.699-0.054h-0.198l-0.302-0.201l-0.604,0.15l-0.446,0.051
	l-0.203,0.103l-0.249,0.196L28.72,8.443l-1.104,1.199l0.104,0.098L27.57,9.842v0.252l0.049,0.398v0.199l-0.151,0.102l-0.146,0.049
	l-0.101-0.1l-0.151-0.299l-0.098-0.301L26.67,9.237l-0.101-0.245l-0.098-0.201L26.32,8.688h-0.15l0.199,0.503l-0.448,0.25
	l-0.053,0.201L25.97,9.74l0.301,0.051l0.248,0.352l0.103,0.15l0.146,0.398l-0.049,0.604l0.396,0.397l0.053,0.253l0.149,0.299
	l0.199,0.051l0.099,0.25l0.249,0.049l0.052,0.15l0.155,0.15l0.799,0.402l0.104,0.199l-0.104,0.353l0.398,0.35l0.103,0.15
	l-0.103,0.247L28.874,15l-0.05,0.301l-0.199,0.051L28.577,15.9l-0.453,0.398l-0.104,0.15l0.402,0.602l0.448,0.199l0.104,0.201v0.503
	l0.297,0.5l0.053,0.5l0.098,0.255l0.104,0.196l0.199,0.098l0.148,0.155v0.299l-0.053,0.252l0.102,0.447l0.557,0.402l0.5,0.852
	l0.75,0.199l0.049-0.252l0.5,0.252l0.249,0.199l0.302,0.403l0.099,0.4l0.258,0.049l0.249,0.65l0.201,0.15l0.249,0.4l0.104,0.4
	l0.146,0.25l0.251,0.15h0.301l0.252,0.103l0.446,0.35l0.455,0.6l0.052,0.548l0.047,0.103l0.104,0.199l0.749,0.404L36.985,27.318z"/>
</svg>
