<?xml version="1.0" encoding="utf-8"?>
<!-- Generator: Adobe Illustrator 16.0.3, SVG Export Plug-In . SVG Version: 6.00 Build 0)  -->
<!DOCTYPE svg PUBLIC "-//W3C//DTD SVG 1.1//EN" "http://www.w3.org/Graphics/SVG/1.1/DTD/svg11.dtd">
<svg version="1.1" id="Vrstva_1" xmlns="http://www.w3.org/2000/svg" xmlns:xlink="http://www.w3.org/1999/xlink" x="0px" y="0px"
	 width="280.145px" height="160.157px" viewBox="0 0 280.145 160.157" enable-background="new 0 0 280.145 160.157"
	 xml:space="preserve">
<path fill="#130C0E" d="M45.273,77.391V20.617h23.53V1.569H0v19.048h23.532v56.774H45.273z M133.467,77.391
	c14.066-6.649,23.302-20.54,23.302-36.602v-0.223C156.769,18.039,138.84,0,114.633,0C90.43,0,72.279,18.266,72.279,40.789v0.223
	c0,16.024,9.073,29.772,23.021,36.379h9.674V63.842c-9.332-3.883-15.565-13.06-15.565-23.355c0-13.971,11.327-25.295,25.301-25.295
	c13.967,0,25.295,11.324,25.295,25.295c0,10.295-6.231,19.472-15.564,23.355v13.549H133.467z M204.601,77.391l14.583-41.982
	l14.688,41.982h21.105l25.166-75.822h-22.522L243.95,46.948L228.822,1.342h-18.714l-15.126,45.606L181.31,1.569h-22.972
	l25.168,75.822H204.601z"/>
<path fill="#130C0E" d="M1.889,159.106h10.818v-19.791h12.22c13.54,0,24.622-7.205,24.622-21.01v-0.178
	c0-12.397-9.059-20.576-23.394-20.576H1.889V159.106z M12.708,129.561v-22.164h12.569c8.092,0,13.278,3.781,13.278,10.994v0.175
	c0,6.416-5.099,10.995-13.278,10.995H12.708z M89.997,160.157c18.905,0,32.272-14.508,32.272-31.832v-0.174
	c0-17.324-13.194-31.658-32.1-31.658c-18.902,0-32.271,14.508-32.271,31.832v0.178C57.899,145.823,71.093,160.157,89.997,160.157
	 M90.17,150.221c-12.221,0-20.924-9.934-20.924-21.896v-0.174c0-11.959,8.524-21.723,20.75-21.723
	c12.222,0,20.924,9.939,20.924,21.896v0.178C110.92,140.461,102.397,150.221,90.17,150.221 M135.981,159.106H146.8V97.551h-10.819
	V159.106z M163.247,159.106h10.637v-43.792l33.941,43.792h9.055V97.551H206.24v42.563l-32.973-42.563h-10.021L163.247,159.106
	L163.247,159.106z M247.834,159.106h10.897v-51.531h19.525V97.551h-49.945v10.023h19.521L247.834,159.106L247.834,159.106z"/>
<path fill="#F48120" d="M114.708,18.746c12.007,0,21.738,9.736,21.738,21.741c0,9.861-6.563,18.186-15.56,20.848v19.61h157.159
	V92.61H2.444V80.945h106.082v-19.61c-9-2.662-15.56-10.987-15.56-20.848C92.966,28.481,102.701,18.746,114.708,18.746"/>
</svg>
