<?xml version="1.0" encoding="utf-8"?>
<!-- Generator: Adobe Illustrator 16.0.3, SVG Export Plug-In . SVG Version: 6.00 Build 0)  -->
<!DOCTYPE svg PUBLIC "-//W3C//DTD SVG 1.1//EN" "http://www.w3.org/Graphics/SVG/1.1/DTD/svg11.dtd">
<svg version="1.1" id="Vrstva_1" xmlns="http://www.w3.org/2000/svg" xmlns:xlink="http://www.w3.org/1999/xlink" x="0px" y="0px"
	 width="261.55px" height="42.362px" viewBox="0 0 261.55 42.362" enable-background="new 0 0 261.55 42.362" xml:space="preserve">
<path fill-rule="evenodd" clip-rule="evenodd" fill="#130C0E" d="M93.586,35.4l6.671-19.204l6.718,19.204h9.654L128.14,0.716
	h-10.304l-6.252,20.761l-6.919-20.861h-8.562l-6.917,20.861L82.932,0.716H72.425L83.937,35.4H93.586z M61.047,35.4
	c6.438-3.044,10.66-9.399,10.66-16.743v-0.103C71.707,8.251,63.506,0,52.436,0C41.362,0,33.061,8.354,33.061,18.657v0.102
	c0,7.328,4.148,13.618,10.529,16.642h4.425v-6.199c-4.269-1.775-7.12-5.972-7.12-10.684c0-6.389,5.183-11.569,11.572-11.569
	c6.389,0,11.57,5.181,11.57,11.569c0,4.712-2.852,8.908-7.117,10.684V35.4H61.047z M20.707,35.4V9.43h10.766V0.716H0V9.43h10.764
	V35.4H20.707z"/>
<path fill-rule="evenodd" clip-rule="evenodd" fill="#130C0E" d="M247.636,34.918h4.985v-23.57h8.929V6.763h-22.843v4.585h8.929
	V34.918z M208.943,34.918h4.865V14.887l15.525,20.031h4.145V6.763h-4.867v19.465L213.526,6.763h-4.583V34.918z M196.475,34.918
	h4.947V6.763h-4.947V34.918z M175.519,30.854c-5.589,0-9.571-4.545-9.571-10.017V20.76c0-5.471,3.9-9.936,9.492-9.936
	c5.59,0,9.572,4.546,9.572,10.014v0.081C185.012,26.39,181.109,30.854,175.519,30.854z M175.439,35.4
	c8.646,0,14.76-6.64,14.76-14.563V20.76c0-7.924-6.031-14.48-14.681-14.48c-8.646,0-14.759,6.637-14.759,14.559v0.081
	C160.76,28.845,166.792,35.4,175.439,35.4z M140.084,21.402V11.267h5.752c3.701,0,6.074,1.729,6.074,5.028v0.081
	c0,2.935-2.333,5.026-6.074,5.026H140.084z M135.138,34.918h4.946v-9.051h5.592c6.195,0,11.262-3.297,11.262-9.612v-0.081
	c0-5.671-4.142-9.411-10.699-9.411h-11.101V34.918z"/>
<path fill-rule="evenodd" clip-rule="evenodd" fill="#F6921E" d="M52.465,8.574c5.494,0,9.945,4.453,9.945,9.943
	c0,4.513-3.002,8.319-7.117,9.536v8.973h205.166l-0.004,5.336H1.118v-5.336h48.521v-8.973c-4.114-1.217-7.117-5.023-7.117-9.536
	C42.521,13.027,46.974,8.574,52.465,8.574"/>
</svg>
