<svg id="Vrstva_1" data-name="Vrstva 1" xmlns="http://www.w3.org/2000/svg" viewBox="0 0 1190.55 907.09"><defs><style>.cls-1{fill:#ebebeb;stroke:#7a7a7a;stroke-miterlimit:10;stroke-width:3px;}</style></defs><title>mapa_cesko</title><path class="cls-1" d="M200.7,232.78c1.21-.38,1.57-2.87,2-3.89.63-1.69,1.27-3.37,1.94-5,.9-2.26,1.87-4.5,2.84-6.73.66-1.53,1.09-3.33,2.23-4.6,2.35-2.62,5.67-4.61,8.43-6.79a85.5,85.5,0,0,1,7.33-5.86,23.08,23.08,0,0,1,4.77-2.31c1.41-.49,3.84-1.77,5.3-1a3.42,3.42,0,0,1,.9.84c1.8,2.18,3.6,4.38,5.45,6.52.94,1.09,2,2.09,2.89,3.19a3.15,3.15,0,0,0,2.55,1.44,8.69,8.69,0,0,0,4-.25c1.68-.62,3-2,4.36-3.07q1.59-1.29,3.24-2.49c1.83-1.34,2.88-2,3.07-4.41.22-2.94-1.17-4.93-2.78-7.2-.78-1.11-4.19-3.57-2.64-5.09a5.53,5.53,0,0,1,2-.82c1-.37,2-.75,3-1.13,2.87-1.11,5.84-2.32,8.75-3.47,1.37-.54,2.76-1,4.13-1.59a18.88,18.88,0,0,1,3.9-1.45c2.88-.48,6.12,0,9,.1q7.83.23,15.66.42l8.37.21,4.39.12c1.05,0,2.2.37,3.19-.05a10.73,10.73,0,0,0,2.7-1.88c.63-.56,1.89-1.23,1.78-2.17a47.48,47.48,0,0,0-.71-5.67c-.19-1.49-.37-3-.56-4.47-.12-1,.38-3.89,1.36-4.42a.73.73,0,0,1,.74.07,1.92,1.92,0,0,1,.55.55l.85,1.07a1.55,1.55,0,0,0,.47.45,1.43,1.43,0,0,0,.74.11q6.06-.09,12.14-.15l6.16,0a26.08,26.08,0,0,0,4.42-.05,32.92,32.92,0,0,0,3.75-1,21.06,21.06,0,0,0,4.82-2,45.87,45.87,0,0,0,4.25-3.37,50.29,50.29,0,0,1,4.62-3.61l5.29-4.14,7.49-5.87c2.24-1.76,4.08-3.54,7.05-3.66,6.64-.28,13.29-.06,19.93,0,1.72,0,2.86-1.75,3.44-3.16.84-2.06.45-4.1.45-6.25v-3.08c0-.93.35-1.59-.83-1.57-2.91,0-5.82,0-8.73,0-.91,0-1-.09-1.5-.75l-1.08-1.5-3.78-5.24c-1.2-1.66-2.1-2.86-2.32-4.94-.26-2.52-.65-5.15-.9-7.72A21.16,21.16,0,0,1,392,97.4a2.27,2.27,0,0,1,.49-1.13c.7-.72,2.22-.71,3.15-.79a20.56,20.56,0,0,1,4,0c4,.4,7.65,2.25,11.38,3.74l18.3,7.32,9.36,3.74c2,.8,4,1.7,5.9,2.64,1,.49,2,1,3,1.5a1.33,1.33,0,0,1,.67,1.63c-.59,3.69-1.31,7.37-1.74,11.09-.11.93-.2,1.86-.26,2.8,0,.46-.4,2.39-.09,2.73.7.74,4.46-.37,5.32-.58a23.58,23.58,0,0,0,4.67-1.72c.84-.4,4.51-2.51,5.38-1.62a.29.29,0,0,1,.06.21,27.28,27.28,0,0,1,0,4.95c-.4,2-1.59,3.52-2.56,5.24a20.94,20.94,0,0,0-2.12,6.68,12.87,12.87,0,0,0,.14,6.32c.54,1.59,1.35,3.63,2.79,4.61.82.56,1.72,1,2.58,1.55l8,4.83,4.13,2.48c2.6,1.58,6,1.17,8.71.22a3,3,0,0,0,1-.48,2.79,2.79,0,0,0,.54-.7c1.51-2.42,3.14-4,2.76-7-.19-1.6-.17-3.2-.44-4.79-.24-1.4-.88-2.89-.78-4.38.11-1.7,2.22,0,2.87.27,1.54.69,3,1.56,4.45,2.35a6,6,0,0,0,.82.53,11.65,11.65,0,0,0,3.44.2c1.31,0,2.62.09,3.92.16a83.76,83.76,0,0,1,12.52,1.61,5.17,5.17,0,0,0,4.21-.48,2.79,2.79,0,0,0,1.07-1.11,11.39,11.39,0,0,0,.53-2.62,10.29,10.29,0,0,0,.43-3c-.15-2.17-1.31-4.08-1.87-6.14a2.77,2.77,0,0,1-.12-1.24c.11-.53.51-.75.88-1.08.56-.47,1.07-1,1.61-1.52s1.33-1,1.48-1.65a22.69,22.69,0,0,0,0-5.21c0-1.07,0-2.13,0-3.19,0-.5.29-2.3-.13-2.66a.73.73,0,0,0-.32-.12l-2.89-.52c-.53-.09-2.15-.08-2.48-.5a.91.91,0,0,1-.15-.35c-.16-.66-.85-2.38-.5-3a1.11,1.11,0,0,1,.28-.29c1.6-1.39,3.17-3.14,5.06-4.14a16.25,16.25,0,0,1,4.07-1.17l3-.74a6.79,6.79,0,0,1,3.11-.52c1.2.26,2.2,1.28,3.22,1.92,1.2.76,3.82,2.17,3.81,3.76,0,.62,0,1.25,0,1.87,0,.85.06.78.89.74,1.29-.06,2.58-.12,3.87-.21s1.4-.57,2-1.48c1-1.48,1.65-3.35,3.1-4.52.41-.32,2-1.2,2.36-.38a1,1,0,0,1,0,.42,8.66,8.66,0,0,0,.56,2.64,17,17,0,0,1,.14,3.57,23.24,23.24,0,0,0-.1,2.77c.07.55.1.68.62.47s.7-.41,1.06-.59c2.25-1.12,4.32-2.57,6.46-3.89a25.93,25.93,0,0,1,1.87,2.25,22.91,22.91,0,0,0,1.55,1.72,14.72,14.72,0,0,0,1.79,1.38c.5.37,1,.75,1.48,1.11,1.12.82,2.46,1.43,2.9,2.84l1.48,4.72a.75.75,0,0,1,0,.33.64.64,0,0,1-.3.35c-1.77,1.24-3.85,2-5.6,3.22-.59.42.53,2.88.7,3.46l1.52,4.92,1.23,4,5.26,8.66,5.52,3.38c1.15.7,2.32,1.38,3.45,2.11,1.31.84,1.06,2.56,1,3.89-.1,1.66-.06,3.33-.06,5v4.68a8.11,8.11,0,0,0,0,2l2.14,1.35c1.11.71,1.22.93,2.14-.07,1.45-1.6,2.62-3.42,3.94-5.13.49-.64,1.32-2.54,2.35-2.21a2.29,2.29,0,0,1,.67.44c1,.92,1.83,2.05,2.85,3s1.56,2.05,2.67,2.57c2.24,1.06,5.18,1,7.61,1.49l5.62,1.07,11.75,2.16c1.7.32,3.76,1.73,5.32,2.5a23.41,23.41,0,0,1,5.31,3.34l5,4.47c.35.31,2.2.06,2.64.08l3.74.11a2,2,0,0,0,.6,0,2,2,0,0,0,.59-.35l3.57-2.69,4.26-.54c.67-.09,1.66-.41,2.23-.08,1,.6,1.58,2.12,2.1,3.13a24.7,24.7,0,0,1,1.71,2.85l2.48,7,1.72,5.61c.3,1,.35,2.1,1.24,2.35s2.57-.37,3.45-.53a39,39,0,0,0,7-2.07c1.31-.5,2.76-1.63,4.24-1.38s3.25,1.59,4.55,2.34a6.13,6.13,0,0,1,1.29.91c1.29,1.3,1.91,3.69,2.67,5.35v9.27a14.79,14.79,0,0,1-.74,3.29c-.27,1.17-.07,1.05,1,1.09,1.27.06,2.94.79,4-.17a39.91,39.91,0,0,0,4-3.6,22.16,22.16,0,0,0,2.43-4.53c.77-1.56.88-3,2.71-3.65l5.17-1.7c.27-.09,1.24.6,1.53.73,1.58.77,3.47,1.31,4.63,2.69.64.77,1.14,1.66,1.77,2.43s3.62,3.47,4.74,2.84c.78-.43,1.56-.86,2.33-1.3,1-.55,1-.52,1.07-1.62.12-2.09-.5-4.84,0-6.84.44-1.67,5.33-.88,6.74-.84,2.64.09,5.26.33,7.88.61,2,.22,5.5-.16,6.72,1.62a93.26,93.26,0,0,0,10.23,12c2.19,2.24,4.54,4.3,6.63,6.63.91,1,2.34,2.35,2.72,3.71.73,2.6-4.72,3.72-6.12,4.86-1.57,1.28-2.68,3.38-3.89,5q-2.12,4.41-4.21,8.82a2.39,2.39,0,0,1-.32.56,2.84,2.84,0,0,1-.72.56c-1,.62-2,1.46-3,2-1.57.78-3.33.33-4.92-.12-1.06-.29-2.3-1.11-2.47.4-.11,1,.14,1.22-.64,1.82a23.51,23.51,0,0,1-4.66,2.16A24,24,0,0,0,728,270.7c-1.48,1.47-3.11,2.87-4.45,4.45-.83,1-.6,1.74-.53,3l.29,5.7c0,.73,1.26,2.06,1.65,2.68.87,1.42,4.28.05,5.56,0,.49,0,.89,5.84,1,6.38a4.47,4.47,0,0,0,.26,1.15c.31.7,1.82,2.45,2.7,2.32a1.6,1.6,0,0,0,.58-.26c2.14-1.37,5-4.43,7.84-3.64,2.62.74,5.51.31,5.88,3.64a50.31,50.31,0,0,0,1.22,6.79c.45,1.78.89,4.11,2.23,5.47.7.72,1.44.56,2.38.7,2.21.34,4.2-.11,5.7,1.86q1.92,2.54,3.85,5.05l13.2,16.68a15.35,15.35,0,0,1,2.24,2.91,13.71,13.71,0,0,1,.7,3.89c.32,2.5.65,5,1,7.5.2,1.54.13,3.11.47,4.63.39,1.71,1.21,2.43,2.51,3.52a27.37,27.37,0,0,1,5.47,5.44c.81,1.22,1.5,2.49,2.19,3.77.57,1.05.88,2.32,2.19,2.53l7.78,1.28a32.69,32.69,0,0,1,5.09,1.61,1.49,1.49,0,0,0,.83.11c.78-.19,1.74-2.83,2.13-3.51s1.5-3.65,2.26-4L815.4,361c3-1.3,4.83-5.63,6.58-8.24l4.17-6.21c.55-.81,2-1.07,2.83-1.38,1.14-.42,2.35-1.4,3.47-1.09a4.61,4.61,0,0,0,4.72-1.35c.82-1.08,1.58-2.27,2.47-3.3,1.24-1.44,4.13-1.67,6.11-2a4.16,4.16,0,0,1,1.22-.07l3.4.31a2.56,2.56,0,0,0,2.79-2.55.73.73,0,0,1,1-.67l1.86.79,2.71,3.32a2.51,2.51,0,0,0,2.53.84l1-.24c.29-.1.11-2.82.11-3.12a5.77,5.77,0,0,0-.06-1.61c-.54-1.59-2.82-2.58-3.72-4-.06-.08,2.68-2.56,2.91-2.83.93-1.09.55-1.92.3-3.25l-.91-4.72c-.14-.75,0-2.38-.79-2.7-1.9-.71-3.79-1.44-5.69-2.16s-3.69-2.43-5.38-3.7a1.47,1.47,0,0,1-.71-1.14q-1.12-5.19-2.27-10.37l-1-2.27c-.59-1-1.12-4.34-2.55-5.14s-3.08-1.78-4.61-2.68c-.66-.39-1.64-.69-1.69-1.42-.08-1.18,1-2.89,1.34-4a17,17,0,0,1,.75-2.64c.22-.43,3.76-4.65,4-4.54,2.08,1.07,4.15,2.17,6.22,3.27a21.32,21.32,0,0,0,4.92,2.39,21.69,21.69,0,0,0,4.11.28l3.56.14c1.15,0,2.33-.36,2.84.9a30.08,30.08,0,0,1,.82,3.1,23.47,23.47,0,0,0,2.77-.21,3.2,3.2,0,0,1,1.23,0c.57.31,1.37,3.37,1.77,3.35l4.22-.21,3.46-.17a.66.66,0,0,1,.51.14c.49.47.55,1.64.7,2.2a11.08,11.08,0,0,0,.59,2.16l4.54.83c.85.15,1.89-.64,2.64-1a13.2,13.2,0,0,1,1.88-.76c1.34-.31,3.08,2.3,3.93,3.15.4.41.35,2.3.48,2.91a5.14,5.14,0,0,0,1.34,2.74c1.18,1.16,2.53,2.19,3.77,3.28,2.13,1.86,4.26,3.7,6.37,5.57.66.58,2.24.42,3,.44,1.78,0,3.56,0,5.34-.09,1.29,0,2.57-.1,3.86-.13.75,0,1.92-.47,2.56.08a1.47,1.47,0,0,1,.37,1.22,91.44,91.44,0,0,0,.56,9.91v.24a1.33,1.33,0,0,0,2.54.44c.16-.31.28-.64.41-.95s.25-.9.44-1c.63-.45,2,.34,2.67.52a36,36,0,0,0,3.57.77,1.76,1.76,0,0,1,.64.19c.38.25.45.85.51,1.25.1.57.23,1.12.37,1.68l.53,2.1v1.66a2.65,2.65,0,0,0,2,2.57,2.3,2.3,0,0,0,2.71-1.34l.83-2a3.61,3.61,0,0,1,2.28-2l5.37-1.61a7.69,7.69,0,0,1,2.57-.32l7.43.31a5.12,5.12,0,0,1,2.17.58l1.77.94a7.11,7.11,0,0,0,3.09.64c2,0,4.76,1.09,6.5,0l2.84-1.86c2.39-1.57,3.92-4.36,5.6-6.6.67-.9.46-2.46.6-3.52.1-.73.13-1.47.24-2.19a2.16,2.16,0,0,1,.93-1.75c1.2-.78,2.63,1.5,3.36,2.21,1.52,1.47,3.06,2.93,4.56,4.42.51.52,1,1,1.55,1.55s.62.5.53,1.05a6.64,6.64,0,0,1-1.2,2.09c-.38.63-.7,1.29-1.09,1.91l-1.42,2.24a7.07,7.07,0,0,0-.86,1.38c-.32,1,.47,2.21.79,3.12.37,1.08.27,2.39,1.53,2.81.92.31,3.33.8,3.67,1.66a7.24,7.24,0,0,1,0,2.13v4c0,1.09-1.65,2.59-2.56,2.74-1.42.22-3.39-.26-4.49.95s-1.32,2.95-2.91,3.66a41.15,41.15,0,0,1-6.24,1.63,11.58,11.58,0,0,1-2.73.42,5.2,5.2,0,0,0-2.51.29l-2.29,1.23c-.79.42-1.65.7-2.43,1.15a1.61,1.61,0,0,0-1.05,1.75c0,1.18-.64,3,.26,3.94a21.24,21.24,0,0,0,2,1.62l2,2a20,20,0,0,0,5.29,3.42,49.14,49.14,0,0,0,4.44,2.49,22.83,22.83,0,0,0,5.25,1.11,1,1,0,0,1,.3.09.83.83,0,0,1,.26.3q2.1,3.44,4.22,6.86c1.22,2,3.07,4.12,3.44,6.47q.42,2.63.87,5.25c.2,1.18.15,3.56.94,4.51a2.16,2.16,0,0,0,.38.36q2.91,2.36,5.8,4.73a26.73,26.73,0,0,0,2.83,2.29c1.58,1,3.37,1.68,5,2.51a15.08,15.08,0,0,0,2.56,1.44c1.62.42,3.57-.27,5.2-.46,1-.12,2.06,0,3.06-.2,2-.42,3.84-1.85,5.6-2.8,1.11-.6,2.26-1.16,3.35-1.8l3.16-1.85a11.64,11.64,0,0,1,2.86-1.44,11.21,11.21,0,0,1,3.7,0c.36,0,7.55,2.86,6.13,1.72l-.33-4.11c-.15-1.77,0-4-.52-5.71a36.26,36.26,0,0,0-4.87.29,1.13,1.13,0,0,1-.83-.16,1.09,1.09,0,0,1-.25-.88q0-1.54.12-3.09a2.89,2.89,0,0,1,.37-1.42,2.72,2.72,0,0,1,1.2-.85,5.76,5.76,0,0,1,2.24-.8c1.41.07,3.18,1.49,4.42,2.12l2.75,1.37c.67.33,1.44.5,2.09.89,1.27.76,1.55,3.17,2,4.47.32,1,1.14,2.4,1.14,3.43v4.72c0,.86,2.21,1,2.76,1.12a6.06,6.06,0,0,1,1.69.41c1,.54,1.39,1.8,1.93,2.7.29.48.52,1,.84,1.43.49.68.6.81,1.23.27a8.12,8.12,0,0,0,2-3.41c.33-.82.56-2,1.6-2.23,2.65-.55,5.22,1.7,7.15,3.26.72.58.56.93.56,1.91s0,1.73,0,2.6-.11,1.48-.1,2.22c.06,2.2,2.11.15,3-.27.52-.24,1.84-1,2.45-.72l3.24,1.52,2.17,1c1.63.78,2.22,4.23,2.81,5.8.45,1.19.88,2.38,1.34,3.56.33.85.22.83,1,.54a47.57,47.57,0,0,0,5.1-2.67c.73-.39,1.36-1,2.12-1.29,1.26-.52,2.92-.22,4.26-.22h7.4c1.63,0,2.42.82,3.59,1.84l3.62,3.13,3.5,3a6.32,6.32,0,0,0,1.52,1.23c.94.36,2.19,0,3.18,0s2.23,0,3.35,0c.83,0,1.65-.08,2.48-.1a4.19,4.19,0,0,1,1.37,0c1,.45,1.63,3.32,2,4.31l2,4.95,1.82,4.39c.24.57.86,1.19.77,1.88a6.29,6.29,0,0,1-1,1.73c-1.23,2.17-2,4.05-1.23,6.51.44,1.39.92,2.76,1.38,4.14l3.71,8.45,1.28,4.14a22.49,22.49,0,0,0,2.21,5.8c.65,1,1,2.53,2.07,3.25l3.91,2.72c1.64,1.14,2.92,2.3,4.9,2.76l4.36,1,4.51,1.05a32.46,32.46,0,0,1,6.68,2.53c1.11.53,2.2,1.08,3.3,1.62.49.24,1.19.43,1.45.87A10.49,10.49,0,0,1,1174,490l.7,3.21c.29,1.3.72,2.64.88,4l1,8.42c.18,1.47.1,3.06.81,4.37,1,1.87,2.09,3.7,3.14,5.55,1.4,1.32,4.12,2.54,3.21,4.74l-1.4,3.45a10.27,10.27,0,0,1-.47,1.42c-.51.92-1.89,1.38-2.78,1.88l-3.19,1.8-4.23,2.38-6.3,4.11c-1,.68-2.39,2.1-3.62,1.93a33.05,33.05,0,0,1-5.33-1.71l-7.22-1h-6c-1.4-.14-2.89,0-4.21-.43-.94-.34-1.86-.81-2.77-1.21s-1.94-1-2.93-1.41a2.77,2.77,0,0,0-3,.07,10.87,10.87,0,0,0-2.2,1.34c-.65.67-.63,1.89-.8,2.77l-.6,3.12c-.25,1.33-.51,2.66-.76,4l-1.44,3.16c-.85,1.88-1.39,3.42-3,4.79l-3.61,3.11c-2.18,1.88-4.29,4.31-6.74,5.82a12.34,12.34,0,0,1-3.47,1c-1.47.38-2.94.72-4.41,1.09-1,.25-2.6.17-2.9,1.36a8.73,8.73,0,0,0,.27,2.82c.16,1.12.36,2.23.48,3.36l.34,3c.18,1.58-.84,2.4-1.88,3.55-1.4,1.54-2.85,3-4.25,4.55-.76.83-1.51,1.66-2.26,2.51a7.94,7.94,0,0,1-1.94,2,17.33,17.33,0,0,1-2.65.83l-8.51,2.66-1.87.58L1066.5,592c-1.55.45-3.32.52-4.71,1.4-2.57,1.64-3.11,4.16-3.73,6.85l-2,8.75-2,8.58c-.62,2.71-1.82,5.48-1.77,8.31,0,1.12.17,2.25.24,3.37l.72,10.26c.08,1.05.14,2.1.22,3.15a12.26,12.26,0,0,1,.15,3.14,8.58,8.58,0,0,1-1.56,3.16c-.69,1.06-1.23,2.17-1.85,3.27a30,30,0,0,1-2.28,4.07l-4,5c-.55.69-1,1.61-1.81,2-1,.52-2.24.28-3.31.33-2.89.15-5.76.71-8.65.89-1.91.12-3.83.3-5.74.45l-3.67.29c-1.67.13-2.85,1.53-4.08,2.55s-3,1.72-3.08,3.65c-.09,1.55-.21,3.11-.32,4.66l-.62,9.18v.25l-2.55,2.74c-1.4,1.5-2.24,3-4.48,3H995.2c-.71,0-1.84-.22-2.41.16-1.59,1.07-2.32,3.26-3.4,4.78l-3.7,5.19-3.2,4.49c-.24.33-.92,1.74-1.33,1.87a17.63,17.63,0,0,1-5.57,1.23h-9.85a5.49,5.49,0,0,0-2.83.35c-.67.39-1.3,1-1.93,1.44L956.64,714l-7.88,5.75c-1.52,1.11-3.64.67-5.37.51A3,3,0,0,1,941,719.1c-.76-.87-1.54-1.71-2.3-2.57s-2.15-3.4-3.24-3.5a8.52,8.52,0,0,0-2.49.8l-5.64,1.84c-1.15.37-2.28.76-3.42,1.14a14.1,14.1,0,0,1-1.9.63,11.48,11.48,0,0,1-3.43-.38,8.52,8.52,0,0,1-2.61-.51,14.55,14.55,0,0,1-1.76-1.27l-3.72-2.67-5.22-3.74-4-2.37a30.38,30.38,0,0,0-5.29-3,17.88,17.88,0,0,0-6-1c-1.66,0-2.6,1.12-3.85,2.06l-6.12,4.62a14.37,14.37,0,0,0-3.78,3.59l-3.78,5.75a94.44,94.44,0,0,1-8.48,15,9.07,9.07,0,0,1-2.55,2.65,7.13,7.13,0,0,0-2.53,2.93c-1.63,2.65-3.09,5.41-4.54,8.16-.64,1.21-1.27,2.42-1.89,3.64l-4.12,4.94-2.89,11.75-.8,2.6a6.57,6.57,0,0,1-1,2.67c-.77.84-2.17,1.11-3.11,1.76a18.28,18.28,0,0,1-1.78-1.74,7.49,7.49,0,0,1-1.09-1.09c-.6-.94-.12-2.63,0-3.69l.26-3.87c.1-1.37.61-3.32.32-4.67s-.56-2.74-.85-4.11a31.05,31.05,0,0,0-1.53-6.84,6.89,6.89,0,0,0-.66-.94,30.35,30.35,0,0,1-2-3,1.4,1.4,0,0,0-.56-.62c-1.18-.59-3.2,2.57-4.35,2.79l-6.66,1.29h-3.86c-1.6,0-4.11,0-5.56-.73a13.87,13.87,0,0,1-2.07-1.51c-1.37-1-2.71-2.08-4.12-3a21.33,21.33,0,0,0-3.48-2.22,2.38,2.38,0,0,0-1.7,0,25.08,25.08,0,0,0-3.12.72c-.58.08-2.84.34-3.26-.13-.21-.24,0-1.29,0-1.6a51.41,51.41,0,0,1,.68-6.77,2,2,0,0,0,0-.69c-.17-.72-1.12-1.36-1.56-2a6.28,6.28,0,0,0-1-1.32,2.33,2.33,0,0,0-.68-.31,16.43,16.43,0,0,0-3.74-1.19,3.73,3.73,0,0,0-.46,0l-3.17.41a21.38,21.38,0,0,0-3.67.55c-1.41.24-2.26-1.27-3-2.15-1.06-1.19-2.08-2.41-3.14-3.59a2.51,2.51,0,0,0-.37-.36,2.42,2.42,0,0,0-.48-.25l-3.24-1.44a2,2,0,0,0-.79-.23,1.62,1.62,0,0,0-1.13.62,13.23,13.23,0,0,1-1.75,1.76,14.45,14.45,0,0,1-3.08,1.58c-.45.18-1-.17-1.37-.3l-3.14-1-1.43-.25c-.63-.11-1.25-.26-1.88-.36a.27.27,0,0,0-.34.2c-.91,2.37-1.89,4.71-2.84,7.06L749,735.36l-3.5,4.11c-.17.2-.9.11-1.15.12l-1.35.08-2.63.16c-.43,0-1-.38-1.33-.57l-1.54-.77c-.25-.12-.88.13-1.15.19l-1.62.36-2.74.61a.4.4,0,0,1-.15,0l-4.48-.92-6.34-.47-10.51-1.54-8-.16c-3.56-.07-7.15.7-10.58-.5-2-.69-3.84-1.71-5.79-2.5-4.71-1.92-7.11-5.15-10.38-8.9l-.77-5.88-4.48-4.94-4-6.65c-1.33-2.2-6.92-2.6-9.12-4-3.47-2.24-6.06-5.79-10.07-7.19-5-1.75-9.25,3.66-13.61,5.11a2.09,2.09,0,0,1-1.46.07,44.55,44.55,0,0,1-8.93-2.44c-2-.86-4-1.72-6-2.65a48.33,48.33,0,0,1-6.76-3.73c-2.19-1.5-4.2-3.14-6.47-4.54a57.37,57.37,0,0,0-5.15-2.84c-.88-.43-1.79-.77-2.66-1.2a6.81,6.81,0,0,1-1.61-.83q-3-3.16-5.89-6.35a2.13,2.13,0,0,0-.74-.6,2.3,2.3,0,0,0-.91-.09l-7.46.35a4.75,4.75,0,0,1-2.84-.39,16.26,16.26,0,0,1-2.16-1.82l-4-3.36-6.41-5.37-.18-.15c-1.52-.23-3.55-1-5-.2a21.26,21.26,0,0,1-2.8,1.63,2.41,2.41,0,0,1-2-.05c-.85-.46-1.19-1.49-1.74-2.29a2,2,0,0,0-.71-.68,2.57,2.57,0,0,0-.91-.21c-.51,0-1-.07-1.54-.07-1.67,0-1.87,2.57-2.21,3.85a14.78,14.78,0,0,0,0,3.19c-.08,2.24-1.65,1.69-3.33,1.72-2.11,0-5.23-.16-6.63,1.78-.34.48-.55,1-.9,1.53a5.56,5.56,0,0,1-4.57,2,7.25,7.25,0,0,1-3.15-2.21c-1-1.1-.2-2.81.31-4a37.29,37.29,0,0,0,1.85-4.26c.33-1.09-1-2.07-1.73-2.66a30.68,30.68,0,0,1-2.73-3c-.66-.73-2-.48-2.86-.48-2.94,0-5.64,0-8.38,1.29-1.69.79-2-.54-2.77-1.73-.3-.45-1.44-2.7-1.91-2.79l-4.18-.77-5.72.31c-.24,0-1.39,1.51-1.61,1.74A11.17,11.17,0,0,0,497,661.8c-2,4.22-2.16,8.77-2.43,13.35-.47,8.22,0,16.46-.42,24.67-.16,3.59-2.15,6.63-4.08,9.47a8.28,8.28,0,0,0-1.1,6.94l.45,1.89a4,4,0,0,0,.29.91c.53,1.06,1.84,1.46,2.5,2.38.83,1.16-.6,2.71-1.15,3.73a.93.93,0,0,1-.22.3c-.86.68-3.37.17-4.38,0A39.53,39.53,0,0,1,474.63,722c-1.8-.82-3.57-1.69-5.37-2.5s-2.69-1.61-4.78-1.23c-.78.15-1.55.33-2.32.51s-.72,4.59-.79,5.5c-.16,2.1-.34,4.19-.49,6.29a.82.82,0,0,1-.08.35.76.76,0,0,1-.3.26,14,14,0,0,1-2.65,1.52,28,28,0,0,0-2.68,1.61,30.6,30.6,0,0,0-4.36,4.38l-6.13,7c-1.69,1.93-1,3.55-.87,5.89l.33,5.56.47,8v.09c0,.46-1,1.62-1.27,2-.74,1.14-1.49,2.27-2.32,3.35a.89.89,0,0,1-.33.31,1,1,0,0,1-.39.08A16.66,16.66,0,0,1,436,771a7.79,7.79,0,0,1-1.21-.4l-2.51-1a4.53,4.53,0,0,1-.74-.34,7.88,7.88,0,0,1-1.86-2.47c-.72-1-1.39-2.08-2.05-3.14a13.46,13.46,0,0,0-4.06-4.49.63.63,0,0,0-.31-.12.59.59,0,0,0-.33.13c-1.34.87-2.83,2.37-4.34,2.9a11.81,11.81,0,0,1-3.07.51,6.51,6.51,0,0,1-2.67.08,7.11,7.11,0,0,1-1.7-.95c-2.19-1.47-4.51-2.72-6.75-4.1-1-.59-1.95-1.19-2.87-1.86a8.43,8.43,0,0,0-2.81-1.76c-.54-.14-1.63-.41-2.06.08a1.91,1.91,0,0,0-.36.76q-1.27,4.18-2.57,8.36a4.08,4.08,0,0,1-.33.84,4.36,4.36,0,0,1-.6.76l-1.38,1.47c-1.29,1.38-3.13,1.8-4.85,2.39-1,.36-1.72,2.06-2.3,2.92a4.24,4.24,0,0,1-.59.75,3.74,3.74,0,0,1-1,.61,31.14,31.14,0,0,1-8.57,2.82c-.86.1-1.17-.23-1.95-.7-3.89-2.34-7.58-5.23-12-6.47-3.95-1-7.83-2.18-11.8-3.11-3.25-.76-6.52-1.44-9.8-2.06-1.61-.31-3.23-.59-4.84-.86-.81-.13-1.64-.22-2.43-.39a11.19,11.19,0,0,0-1.86-.55,14.83,14.83,0,0,1-3-2.08c-1.08-.82-2.29-1.5-3.42-2.25a8.46,8.46,0,0,1-1.76-1.44c-.73-.85-.68-1.86-1.05-2.86l-1.67-4.5a1.27,1.27,0,0,1-.11-.54c.12-1.07,2.14-1.21,2.9-1.42a17.81,17.81,0,0,0,2.35-.85c1.15-.51,1.67-.7,1-2a32.87,32.87,0,0,0-2.8-3.53c-.73-1-1.43-2-2.19-2.95l-5.77-7.34a82.81,82.81,0,0,0-8.72-9.24c-1.57-1.46-3.17-2.89-4.77-4.32s-3.17-3.53-5.49-3.53c-1.55,0-4.26.88-5.23-.51-.73-1-1.32-2.19-2-3.27L284,702.74l-1.39-7.58-3.24-6.8-1.87-4.53a12.58,12.58,0,0,0-1-2.33c-1.29-1.82-4.47-2.62-6.47-3.25a34.74,34.74,0,0,0-4.28-1.06c-1.38-.25-2.85-.24-4.2-.58-.44-.11-.46-1.06-.58-1.39-.27-.76-.74-1.49-1.08-2.22-.72-1.55-1.37-3.14-2-4.75a58.65,58.65,0,0,1-2.6-9.75c-.24-1.34-1.18-1.77-2.25-2.43l-2.55-1.58c-.7-.43-1.92-1.57-2.71-1.67a6.14,6.14,0,0,0-2.92.73c-1.06.38-2.15.69-3.23,1a32.93,32.93,0,0,0-4.2,1.42c-1.12.5-2.6,1.88-3.85,1.88-1,0-2.29-1-3.19-1.47-1.13-.56-2.29-1.09-3.45-1.58a14.14,14.14,0,0,1-5-2.94c-1.33-1.4-2.58-2.88-3.81-4.38-.93-1.13-2.59-2.22-2.92-3.73a11.14,11.14,0,0,1,.16-3l.36-4.39c.09-1.21.77-2.88.29-4.06a9.72,9.72,0,0,0-1.72-2.09c-2.12-2.44-4.3-4.83-6.44-7.25-4.66-3.54-9.4-7-14-10.63a4.48,4.48,0,0,0-1.71-1.08,25.15,25.15,0,0,0-4.68-.16l-2.66-.1c-.38,0-2.26.15-2.47-.09-2.29-2.62-4.56-5.25-6.84-7.87a1.34,1.34,0,0,1-.22-.31,1.22,1.22,0,0,1-.06-.47c0-2,.23-3.94.05-5.92a4.29,4.29,0,0,0-1.46-3.07c-1.9-2-3.37-4.43-5.08-6.63l-3.42-4.57-2.72-3.62c-.88-1.17-2.22-2.46-2.73-3.82a11.72,11.72,0,0,1-.31-2.9c-.09-.87-.25-1.74-.36-2.61a.34.34,0,0,0-.09-.22.35.35,0,0,0-.2-.07c-1.46-.17-2.94-.29-4.41-.44-.36,0-1.68-5.1-1.85-5.61a19.6,19.6,0,0,0-1.27-3.64,3.46,3.46,0,0,0-.49-.65c-2.85-3.33-5.67-6.69-8.52-10a12,12,0,0,0-1.08-1.17,14.49,14.49,0,0,0-4.29-2.36c-1-.43-2.05-.89-3.07-1.37-.46-.22-1.95-1.26-2.46-1.13s-.6,1.08-.69,1.59a16.85,16.85,0,0,1-.89,2.88c-.53,1.36-3,0-4-.18-1.4-.32-2.79-.67-4.19-1l-4.17-1.11c-1.09-.29-3.91-.23-4.3-1.46-1.51-4.75-3-9.48-4.54-14.23a.77.77,0,0,0-.18-.36.9.9,0,0,0-.28-.18,46.63,46.63,0,0,1-7.81-4.06l-4.69-3.36c-.88-.71-1.8-1.4-2.66-2.15s-.58-1.35-.58-2.4V502.62c0-1.16.42-3.07-.46-4l-5-5L84.63,491c-.89-.9-2.08-1.49-2.08-2.89,0-3,0-6.07,0-9.1a12.1,12.1,0,0,0-.46-2.23l-.92-4.45a12.93,12.93,0,0,0-.61-3,8.55,8.55,0,0,0-1.76-1.74l-3.46-3.27a2,2,0,0,1-.45-.52c-.56-1-.49-2.74-.66-3.89l-.66-4.5c-.24-1.62-.76-3.73-2-4.89-2.54-2.5-5.36-4.7-8.09-7a31.12,31.12,0,0,1-5.08-5.9,27.51,27.51,0,0,1-2.21-3.08c-.45-.89-1.57-3.22-1.26-4.15.2-.59,1.31-1.38,1.76-1.83,1.5-1.51,3-3,4.49-4.53s4-3.22,4.33-5.34q.39-2.65.79-5.32l.39-2.65c.08-.52,0-2,.5-2.29s1.5-.08,2.07-.09c.92,0,1.63.26,1.85-.65a16.18,16.18,0,0,0,.15-3c0-.42-.15-1.79.11-2.14q4.32-5.76,8.64-11.51a3.46,3.46,0,0,0,.41-.66c.37-.87-.11-2.12-.21-3-.2-1.89-3.21-3.51-4.51-4.71-.68-.58-1.32-1.22-2-1.82-.47-.44-1.31-1-1.54-1.57a2.26,2.26,0,0,1-.1-.69c-.1-3.18-.25-6.37-.25-9.56,0-.63-2.93-1.87-3.41-2.15-6.27-3.7-12.64-7.41-18.7-11.45a22.89,22.89,0,0,1-1.91-1.79c-.91-.78-1.79-1.6-2.64-2.44a61.16,61.16,0,0,1-7-8.91L33.55,334l-2.37-3.72c-1.27-2-2.81-3.53-3.07-6-.29-2.74-.22-5.51-.44-8.26a41.34,41.34,0,0,0-1.12-6.52c-.45-1.86-.66-4.48-2-5.92q-2.94-3.19-5.86-6.4l-4.64-2.63c-1.4-.8-2.86-1.45-4.21-2.35s1.73-4.19,2.3-5.07c1.45-2.21,4.25-3.28,6.4-4.65.26-.16-.85-4.57-.94-5.08l-.51-2.76c-.1-.53-.62-1.86-.3-2.34a1.22,1.22,0,0,1,.55-.42c1.31-.62,1.91.49,2.81,1.36l3.69,3.59c1.19,1.15,1.53,3.32,2.06,4.84.95,2.69,1.89,5.39,2.84,8.09l4.13,14.05c.59,2,1.12,4.1,1.77,6.12a6.51,6.51,0,0,0,1.17,2.53c.59.67,1.34,1.18,2,1.79,1,1,1.61,1.79,3.07,2a5.87,5.87,0,0,0,3.4-.27,4.1,4.1,0,0,0,1.47-2.12,18.82,18.82,0,0,0,.18-3.91l.18-4.81c.11-2.75.2-5.5.3-8.26.08-2.22-.18-4.64,1.29-6.49a90.08,90.08,0,0,1,6.84-7l8.14-8.22,15.19-15.32C79.19,258.58,80.32,257,82,256c1.91-1.16,4.57-1.35,6.73-1.85,3.19-.75,6.39-1.46,9.58-2.2,2.89-.66,6-2.09,8.74-.58l4.33,2.36c2.27,1.23,5,.39,7.49.13a7.67,7.67,0,0,0,1.85-.36,7.51,7.51,0,0,0,1.52-.9c4.43-3.12,8.89-6.19,13.34-9.28,1.26-.87,2.27-.31,3.62,0a9.65,9.65,0,0,1,2.16.46,5,5,0,0,1,1.05.79c2.45,2.23,5,4.35,7.27,6.79A57.6,57.6,0,0,1,154,257c.18.25.67,1.22,1,1.24.6,0,1.88-1.65,2.28-2l2.82-2.65,5.77-5.42a12.78,12.78,0,0,0,2.35-2.68,19.77,19.77,0,0,0,1.44-4.57c.55-1.82,1-3.67,1.61-5.48a13.48,13.48,0,0,1,1.12-3.35c.66-1,2.25-1.55,3.36-2a36.36,36.36,0,0,1,8-1.54,7.08,7.08,0,0,1,3.42.23c1.62.54,3.24.9,4.87,1.38l4.7,1.57,3.07,1A1.42,1.42,0,0,0,200.7,232.78Z"/></svg>