<?xml version="1.0" encoding="utf-8"?>
<!-- Generator: Adobe Illustrator 16.0.3, SVG Export Plug-In . SVG Version: 6.00 Build 0)  -->
<!DOCTYPE svg PUBLIC "-//W3C//DTD SVG 1.1//EN" "http://www.w3.org/Graphics/SVG/1.1/DTD/svg11.dtd">
<svg version="1.1" id="Vrstva_1" xmlns="http://www.w3.org/2000/svg" xmlns:xlink="http://www.w3.org/1999/xlink" x="0px" y="0px"
	 width="122.862px" height="16.998px" viewBox="0 0 122.862 16.998" enable-background="new 0 0 122.862 16.998"
	 xml:space="preserve">
<path fill-rule="evenodd" clip-rule="evenodd" fill="#C41A1B" d="M121.364,9.785c0.733,0,1.308,0.575,1.308,1.286
	c0,0.645-0.606,1.22-1.308,1.22c-0.733,0-1.308-0.542-1.308-1.253C120.057,10.36,120.631,9.785,121.364,9.785 M121.364,9.649
	c-0.829,0-1.498,0.645-1.498,1.389c0,0.813,0.638,1.389,1.498,1.389c0.797,0,1.498-0.609,1.498-1.355
	C122.862,10.26,122.193,9.649,121.364,9.649 M121.141,10.97V10.53h0.224c0.19,0,0.319,0.102,0.319,0.236
	c0,0.136-0.129,0.203-0.319,0.203H121.141z M120.79,11.851h0.351v-0.61c0.191,0.204,0.352,0.407,0.511,0.61
	c0.159-0.033,0.287-0.033,0.414-0.033c-0.159-0.17-0.318-0.373-0.478-0.577c0.286-0.033,0.445-0.271,0.445-0.507
	c0-0.136-0.063-0.271-0.159-0.373c-0.127-0.101-0.286-0.135-0.51-0.135h-0.574V11.851z M9.689,9.276
	c2.104,5.994,12.398,7.35,16.924,2.27c0.127-0.135,0.382-0.576,0.572-1.016c2.615,2.166,5.228,4.3,7.809,6.468
	c-3.506,0-12.109-0.034-15.648-0.034c-7.521,0.339-13.193-3.488-16.444-7.688H9.689z M0,3.419c3.219,0,6.438,0,9.625-0.033
	c1.85,1.592,3.665,3.148,5.482,4.74H2.104C0.988,6.501,0.319,4.841,0,3.419 M11.475,3.556c0.382-0.746,0.955-1.321,1.688-1.83
	C14.82,0.542,16.733,0,18.932,0c1.689,0,3.188,0.338,4.398,0.981s1.784,1.049,2.422,2.133c0.064,0.067,0.096,0.203,0.159,0.271
	c-2.454,0-4.907,0.033-7.394,0.033c2.645,2.134,5.259,4.301,7.871,6.434c-0.35,0.712-0.892,1.354-1.592,1.896
	c-1.498,1.151-3.475,1.692-5.929,1.692c-0.573,0-1.116,0-1.69-0.101c-0.541-0.035-1.146-0.137-1.719-0.305
	c-1.148-0.271-2.232-0.949-3.221-1.998c-0.445-0.474-0.796-1.049-1.051-1.728c2.359-0.034,4.717-0.034,7.074-0.034
	C16,7.38,13.737,5.485,11.475,3.556 M52.204,12.663c-3.442,0-6.916,0-10.389,0.033V1.185C45.288,1.15,48.731,1.15,52.174,1.15v2.065
	h-6.629v2.642c2.23,0,4.43-0.034,6.629-0.034v1.998c-2.199,0-4.398,0-6.629,0.033v2.777c2.23,0,4.43,0,6.659-0.034V12.663z
	 M31.584,3.386h-4.207c0-0.746-0.031-1.49-0.031-2.201C31.457,1.15,35.568,1.15,39.647,1.15v2.201
	c-1.37,0.034-2.772,0.034-4.175,0.034c0,3.115,0.033,6.162,0.033,9.244h-3.89C31.616,9.548,31.616,6.501,31.584,3.386 M58.547,1.117
	h-3.855c0,3.86,0.031,7.687,0.031,11.513h3.856C58.579,8.769,58.579,4.978,58.547,1.117 M61.192,1.117h4.303
	c1.88,2.269,3.761,4.503,5.609,6.771h0.032V1.117h3.09v11.479H70.85c-2.135-2.573-4.303-5.112-6.471-7.687h-0.063v7.687h-3.091
	C61.225,8.804,61.225,4.978,61.192,1.117 M77.064,12.562c-0.032-3.826-0.032-7.652-0.032-11.512h3.952v4.503h5.195
	c-0.032-1.489-0.032-3.014-0.032-4.503h3.92v11.512H86.18V7.854h-5.195v4.707H77.064z M96.584,6.805c0,1.335,0.266,2.29,0.803,2.873
	c0.539,0.581,1.271,0.873,2.197,0.873c0.95,0,1.688-0.286,2.209-0.854c0.521-0.571,0.783-1.595,0.783-3.07
	c0-1.244-0.273-2.15-0.816-2.726c-0.545-0.571-1.283-0.857-2.217-0.857c-0.891,0-1.607,0.289-2.148,0.873
	C96.854,4.497,96.584,5.461,96.584,6.805 M92.457,6.67V6.636c0-1.896,0.734-3.318,2.168-4.266c1.434-1.016,3.123-1.524,5.035-1.524
	c1.498,0,2.805,0.271,3.855,0.847c1.084,0.575,1.914,1.32,2.488,2.303c0.508,0.846,0.764,1.828,0.764,2.742v0.135
	c0,0.916-0.159,1.695-0.479,2.404c-0.35,0.713-0.828,1.321-1.529,1.83c-1.244,1.016-2.963,1.489-5.164,1.489
	c-0.508,0-0.986-0.034-1.465-0.101c-0.479-0.035-0.988-0.137-1.529-0.271c-0.988-0.271-1.945-0.848-2.805-1.727
	c-0.384-0.441-0.733-0.982-0.957-1.627C92.586,8.228,92.457,7.483,92.457,6.67 M109.03,0.981h11.888v2.234
	c-2.645,0-5.291,0-7.968,0.033v2.574h6.343v2.168c-2.104,0.033-4.207,0.033-6.343,0.033v4.471h-3.92V0.981z"/>
</svg>
