<?xml version="1.0" encoding="utf-8"?>
<!-- Generator: Adobe Illustrator 16.0.3, SVG Export Plug-In . SVG Version: 6.00 Build 0)  -->
<!DOCTYPE svg PUBLIC "-//W3C//DTD SVG 1.1//EN" "http://www.w3.org/Graphics/SVG/1.1/DTD/svg11.dtd">
<svg version="1.1" id="Vrstva_1" xmlns="http://www.w3.org/2000/svg" xmlns:xlink="http://www.w3.org/1999/xlink" x="0px" y="0px"
	 width="53.335px" height="53.334px" viewBox="0 0 53.335 53.334" enable-background="new 0 0 53.335 53.334" xml:space="preserve">
<g>
	<g>
		<path fill="#525252" d="M26.805,36.646v-5.27h-9.791v-3.366l8.329-13.462H31.7v12.953h2.618v3.875H31.7v5.27H26.805z
			 M26.805,27.501v-4.896c0-1.326,0.068-2.686,0.136-4.114h-0.102c-0.714,1.428-1.326,2.72-2.074,4.114l-2.924,4.828l-0.034,0.068
			H26.805z"/>
	</g>
</g>
<g>
	<path fill="#525252" d="M26.668,53.334C11.963,53.334,0,41.372,0,26.667C0,11.962,11.963,0,26.668,0
		c14.704,0,26.667,11.962,26.667,26.667C53.335,41.372,41.372,53.334,26.668,53.334z M26.668,6C15.271,6,6,15.271,6,26.667
		c0,11.396,9.271,20.668,20.668,20.668c11.396,0,20.667-9.271,20.667-20.668C47.335,15.271,38.063,6,26.668,6z"/>
</g>
</svg>
