<?xml version="1.0" encoding="utf-8"?>
<!-- Generator: Adobe Illustrator 16.0.3, SVG Export Plug-In . SVG Version: 6.00 Build 0)  -->
<!DOCTYPE svg PUBLIC "-//W3C//DTD SVG 1.1//EN" "http://www.w3.org/Graphics/SVG/1.1/DTD/svg11.dtd">
<svg version="1.1" id="Vrstva_1" xmlns="http://www.w3.org/2000/svg" xmlns:xlink="http://www.w3.org/1999/xlink" x="0px" y="0px"
	 width="370.395px" height="493.146px" viewBox="0 -67.854 370.395 493.146" enable-background="new 0 -67.854 370.395 493.146"
	 xml:space="preserve">
<g id="Vrstva_1_1_">
</g>
<g id="Vrstva_2" opacity="0.2">
	<g>
		<path fill="none" stroke="#000000" stroke-width="3" stroke-linecap="round" stroke-linejoin="round" stroke-miterlimit="10" d="
			M34.343,174.076c3.117-3.446,4.848-8.124,4.378-13.114c-0.673-7.158-5.653-12.865-12.135-14.824l-11.004,0.381
			c-7.067,2.658-11.785,9.777-11.044,17.658c0.357,3.812,1.95,7.198,4.325,9.842L34.343,174.076z"/>
		<path fill="none" stroke="#000000" stroke-width="3" stroke-linecap="round" stroke-linejoin="round" stroke-miterlimit="10" d="
			M34.343,174.076l-2.717,0.904c0,0-0.569,10.851,0.943,17.154c1.513,6.303,2.301,9.326,2.301,9.326s2.22,10.254,5.509,14.967
			c3.288,4.713,8.892,10.885,17.228,13.194c8.336,2.313,35.895,6.084,35.895,6.084l24.278,16.968l-1.808,11.051l-53.896-8.824
			c0,0-16.596-3.797-24.11-8.949c-7.516-5.152-12.78-9.512-15.178-13.639c-2.396-4.127-7.374-11.386-10.14-24.159
			c-1.775-8.203-0.38-15.616-0.514-19.706c-0.387-11.856-0.51-13.428-0.51-13.428l-2.663-0.942"/>
		<path fill="none" stroke="#000000" stroke-width="3" stroke-linecap="round" stroke-linejoin="round" stroke-miterlimit="10" d="
			M115.841,272.104l-3.412,1.992c0,0,2.771,0.995,2.747,2.504c-0.025,1.51-4.23,3.078-5.877,2.479
			c-3.645-1.324-19.895-12.929-24.003-20.261"/>
		<path fill="none" stroke="#000000" stroke-width="3" stroke-linecap="round" stroke-linejoin="round" stroke-miterlimit="10" d="
			M112.429,274.099c0,0-2.635,1.336-17.854-13.638"/>
	</g>
	<g>
		<path fill="none" stroke="#000000" stroke-linecap="round" stroke-linejoin="round" stroke-miterlimit="10" d="M115.498,263.558
			c0,0-1.163,8.332,2.293,13.029c3.456,4.696,10.981,4.617,12.656,4.396c1.674-0.221,5.15-1.301,6.453-2.806
			c1.304-1.503,3.882-5.448,7.05-5.811c3.169-0.359,5.41,0.118,5.41,0.118l-31.577-19.817"/>
		<path fill="none" stroke="#000000" stroke-linecap="round" stroke-linejoin="round" stroke-miterlimit="10" d="M125.708,266.655
			c0,0,7.063,0.341,7.709,1.869c0.646,1.529,1.505,3.543,0.649,5.129c-0.855,1.588-3.333,2.824-6.308,2.352
			c-2.975-0.473-5.64-1.229-6.717-2.884c-1.076-1.656-0.707-3.951,0.144-4.702C122.037,267.671,124.048,266.812,125.708,266.655z"/>
		<path fill="none" stroke="#000000" stroke-linecap="round" stroke-linejoin="round" stroke-miterlimit="10" d="M126.008,266.679
			c0,0-1.123,2.355-2.446,2.521c-1.323,0.168-1.731-0.174-2.202,0.166c-0.471,0.336-0.408,1.002-0.034,1.426
			c0.375,0.426,4.826,2.811,8.453,2.218c3.628-0.593,3.702-2.899,3.709-3.278c0.008-0.377-0.262-1.461-1.019-1.934"/>
		<path fill="none" stroke="#000000" stroke-linecap="round" stroke-linejoin="round" stroke-miterlimit="10" d="M93.501,235.702
			c0,0-8.033-6.422-10.439-12.662c8.294,6.754,14.128,10.057,21.581,11.865c3.112,0.723,7.452,1.811,7.452,1.811
			s8.263,1.085,11.328,4.313s8.866,8.834,8.866,8.834s1.335,1.507,2.988,1.728c1.652,0.222,66.734,6.72,142.486,7.632
			c75.749,0.91,96.243,1.66,96.243,1.66"/>
		<path fill="none" stroke="#000000" stroke-linecap="round" stroke-linejoin="round" stroke-miterlimit="10" d="M149.358,272.487
			l13.884,8.111l16.688,13.244l31.807,23.814l19.467,12.943c0,0,1.683,0.971,4.123,1.118c2.439,0.147,146.83,21.136,146.83,21.136"
			/>
		<path fill="none" stroke="#000000" stroke-linecap="round" stroke-linejoin="round" stroke-miterlimit="10" d="M137.057,251.819
			l68.139,55.031c0,0,4.643,3.957,22.458,5.168c17.817,1.213,46.603,2.899,46.603,2.899s15.078,1.469,16.883-11.381
			c1.806-12.851,2.734-37.672,2.734-37.672s0.695-1.948-3.832-2.025c-4.525-0.075-69.23-1.899-69.23-1.899
			s-58.06-4.146-83.734-10.143"/>
		<path fill="none" stroke="#000000" stroke-linecap="round" stroke-linejoin="round" stroke-miterlimit="10" d="M83.062,223.04
			c0,0-7.16-13.388-9.284-24.405c-2.124-11.016-0.505-14.265-0.505-14.265l7.989-34.315c0,0-1.966-1.321-1.889-5.849
			c0.076-4.527,2.335-10.766,2.335-10.766l6.999-29.703c0,0,1.734-0.247,2.716,2.172c0.98,2.418,6.157,17.417,6.157,17.417
			l-7.258,31.4c0,0-0.373,4.053-2.839,1.857c-2.467-2.196-6.243-6.527-6.243-6.527"/>
		<path fill="none" stroke="#000000" stroke-linecap="round" stroke-linejoin="round" stroke-miterlimit="10" d="M73.163,194.76
			c0,0,2.057,6.754,9.839,7.612c7.781,0.858,15.896-0.073,20.994-8.168c5.098-8.095,7.894-16.645,5.983-28.937
			c-1.909-12.293-7.626-28.579-12.398-41.94"/>
		<path fill="none" stroke="#000000" stroke-linecap="round" stroke-linejoin="round" stroke-miterlimit="10" d="M81.87,202.186
			c0,0,25.11,4.938,51.895,3.28c27.337-1.692,70.19-6.602,70.19-6.602"/>
		<path fill="none" stroke="#000000" stroke-linecap="round" stroke-linejoin="round" stroke-miterlimit="10" d="M88.707,103.738
			l-8.75-26.296c0,0-2.463-8.39-5.981-9.314c-3.52-0.924-10.07-2.066-10.07-2.066s-4.021-0.041-4.758-6.081
			c-0.735-6.041-0.282-5.666-0.282-5.666s0.848-4.349,3.916-7.316c3.068-2.967,4.191-3.491,4.191-3.491l1.117-9.479
			c0,0,0.819-1.082,2.499-1.91c1.68-0.828,265.783-103.131,265.783-103.131"/>
		<path fill="none" stroke="#000000" stroke-linecap="round" stroke-linejoin="round" stroke-miterlimit="10" d="M91.046,105.024
			c0,0,30.042,5.712,63.69,3.05c33.649-2.662,62.533-5.253,78.507-7.635c15.971-2.381,42.258-7.238,51.911-14.047
			c9.655-6.809,16.962-15.908,19.116-21.007c2.158-5.099,6.02-12.117,3.5-17.53c-2.518-5.413-9.25-4.906-13.617-4.62
			c-4.367,0.285-82.221,2.836-82.221,2.836l-75.921,1.742l-38.658,0.12c0,0-31.834,1.268-31.758-3.259"/>
	</g>
</g>
</svg>
