<?xml version="1.0" encoding="utf-8"?>
<!-- Generator: Adobe Illustrator 16.0.3, SVG Export Plug-In . SVG Version: 6.00 Build 0)  -->
<!DOCTYPE svg PUBLIC "-//W3C//DTD SVG 1.1//EN" "http://www.w3.org/Graphics/SVG/1.1/DTD/svg11.dtd">
<svg version="1.1" id="Vrstva_1" xmlns="http://www.w3.org/2000/svg" xmlns:xlink="http://www.w3.org/1999/xlink" x="0px" y="0px"
	 width="898.455px" height="890.957px" viewBox="0 0 898.455 890.957" enable-background="new 0 0 898.455 890.957"
	 xml:space="preserve">
<g opacity="0.2">
	<path fill="none" stroke="#000000" stroke-width="8" stroke-miterlimit="10" d="M20.693,591.632
		c-4.827-6.492-7.687-14.535-7.687-23.246c0-15.566,9.123-29,22.312-35.254h33.381c13.188,6.254,22.309,19.689,22.309,35.254
		c0,8.711-2.857,16.754-7.684,23.246H20.693z"/>
	<path fill="none" stroke="#000000" stroke-width="8" stroke-miterlimit="10" d="M80.798,591.632c-5.5,0-5.957,3.416-5.957,3.416
		s0,20.834,0,25c0,4.168,3,5.166,4,10c2,20.332,8.334,32,22,53.334s52,34.332,52,34.332l179,59.334c0,0,3.334-6.334,11.666-15.334
		c17.334,6.668,59.668,15.668,59.668,15.668l86.009,15.666c0,0,2.666,20.666-4.334,39.666s-24.057,26.75-24.057,26.75h-57.453
		l-17.834-7.25v1.668h-8.375l-3.875,0.5l-2.375,2.375l-3.375,0.375l-0.5-1l-2.875-0.25c0,0-1.625,1.5-2.25-0.875
		c0.125-5.25-3.041-6.959-3.041-6.959s-2,0-10.334-1.666s-27.666-7-27.666-7l-187.666-70.334c0,0-44-15.666-72.668-55
		c-28.666-39.332-29-81-29-81s0-30,0-35s-9.166-6.332-9.166-6.332"/>
	<path fill="none" stroke="#000000" stroke-width="8" stroke-miterlimit="10" d="M401.757,776.632c0,0-1.75,13.25-13.75,12
		c-19.5-0.25-56.166-11.584-56.166-11.584"/>
</g>
<g opacity="0.2">
	<path fill="none" stroke="#000000" stroke-width="3" stroke-miterlimit="10" d="M279.757-8.368c-4.25,32-5.75,102-5.75,102
		l2.25,107l4,3.75l-2.5,7.75l3.084,21.251c-17.666,16-35.666,37.333-47,55c-11.332,17.667-16.332,36.667-16,50
		c0.334,13.333-3.666,76.667-3.666,76.667s-17.668,3.666-31,10.333c-13.334,6.667-9.668,19-9.668,19s11.334,63.667,16.668,86.667
		c5.332,23,20.332,77.332,58.666,143c38.334,65.666,94.666,87.664,94.666,87.664"/>
	<path fill="none" stroke="#000000" stroke-width="3" stroke-miterlimit="10" d="M912.511,875.048l-115.667-18.332L664.52,836.382
		c0,0-97.669-16-118.001-21.334c-20.334-5.334-57.334-22-57.334-22"/>
	<path fill="none" stroke="#000000" stroke-width="3" stroke-miterlimit="10" d="M913.26,647.132l-116.416-2.084l-265.993-7.332
		c0,0-102.675-6-208.009-14.668c-105.334-8.666-110.334-22.166-110.334-22.166"/>
	<path fill="none" stroke="#000000" stroke-width="3" stroke-miterlimit="10" d="M451.008-8.618c-5.5,41.5-3,186.25-2.75,211.5
		c-19.25,7.5-41.25,27.25-51.5,38s-21.75,27.5-36.75,48.25s-19.166,53.583-19.166,53.583l-2.834,46.167
		c-1.832,19.167-1.5,22.5-7.5,40.5c-6.11,18.333-17.5,20.667-23,21.333c-5.5,0.668-19.332-0.666-42.332-1.332
		c-23-0.668-36.334-2.666-62.334-4.333c-26-1.667-29.666-6-29.666-6"/>
	<path fill="none" stroke="#000000" stroke-width="3" stroke-miterlimit="10" d="M280.841,233.384l5.666,32.999l11.5,67.167
		c0,0,10.834,48.833,12,56.5c1.168,7.666,5.834,7.333,5.834,7.333l21.334,1.333"/>
	<path fill="none" stroke="#000000" stroke-width="3" stroke-miterlimit="10" d="M310.257,391.382c-56.75,4.5-96,23.667-96,23.667"
		/>
	<path fill="none" stroke="#000000" stroke-width="3" stroke-miterlimit="10" d="M912.51,413.382c-28.5,0.5-576.502,0.5-576.502,0.5
		"/>
	<path fill="none" stroke="#000000" stroke-width="3" stroke-miterlimit="10" d="M912.843,298.382l-363.076-0.75l-93.006,0.75
		l-91.003,2.5c-9,1-23,32.25-23,32.25"/>
	
		<line fill="none" stroke="#000000" stroke-width="3" stroke-miterlimit="10" x1="911.761" y1="198.924" x2="448.091" y2="202.591"/>
	<line fill="none" stroke="#000000" stroke-width="3" stroke-miterlimit="10" x1="824.51" y1="-7.618" x2="824.51" y2="199.382"/>
	
		<line fill="none" stroke="#000000" stroke-width="3" stroke-miterlimit="10" x1="434.507" y1="201.216" x2="280.257" y2="204.382"/>
</g>
</svg>
