<?xml version="1.0" encoding="utf-8"?>
<!-- Generator: Adobe Illustrator 16.0.3, SVG Export Plug-In . SVG Version: 6.00 Build 0)  -->
<!DOCTYPE svg PUBLIC "-//W3C//DTD SVG 1.1//EN" "http://www.w3.org/Graphics/SVG/1.1/DTD/svg11.dtd">
<svg version="1.1" id="Vrstva_1" xmlns="http://www.w3.org/2000/svg" xmlns:xlink="http://www.w3.org/1999/xlink" x="0px" y="0px"
	 width="1288px" height="1016px" viewBox="0 0 1288 1016" enable-background="new 0 0 1288 1016" xml:space="preserve">
<image display="none" overflow="visible" width="1500" height="1101" xlink:href="B131EDA1.jpg"  transform="matrix(1 0 0 1 -198 -15)">
</image>
<g>
	<path fill="none" stroke="#525252" stroke-width="7" stroke-miterlimit="10" d="M720.333,770.666c0,0,36.667,11.334,56.167,11.584
		c12,1.25,13.75-12,13.75-12"/>
</g>
<g>
	<path fill="none" stroke="#525252" stroke-width="3" stroke-miterlimit="10" d="M732,755.333c0,0-56.332-21.998-94.666-87.665
		s-53.334-120-58.667-143c-5.333-23-16.667-86.667-16.667-86.667s-3.666-12.333,9.667-19s31-10.333,31-10.333s4-63.334,3.667-76.667
		s4.667-32.333,16-50s29.334-39,47-55l-3.084-21.251l2.5-7.75l-4-3.75l-2.25-107c0,0,1.5-70,5.75-102"/>
	<path fill="none" stroke="#525252" stroke-width="3" stroke-miterlimit="10" d="M877.667,786.666c0,0,37.001,16.667,57.334,22.001
		s118,21.334,118,21.334l132.333,20.333l115.667,18.333"/>
	<path fill="none" stroke="#525252" stroke-width="3" stroke-miterlimit="10" d="M601,594.5c0,0,5,13.5,110.334,22.167
		s208,14.667,208,14.667l266,7.333l116.416,2.083"/>
	<path fill="none" stroke="#525252" stroke-width="3" stroke-miterlimit="10" d="M561.667,432.667c0,0,3.666,4.333,29.666,6
		s39.334,3.666,62.334,4.333s36.833,2,42.333,1.333s16.889-3.001,23-21.333c6-18,5.667-21.333,7.5-40.5l2.834-46.167
		c0,0,4.166-32.833,19.166-53.583s26.5-37.5,36.75-48.25s32.25-30.5,51.5-38C836.5,171.25,834,26.5,839.5-15"/>
	<path fill="none" stroke="#525252" stroke-width="3" stroke-miterlimit="10" d="M725.667,392.333L704.333,391
		c0,0-4.666,0.333-5.833-7.333s-12-56.5-12-56.5L675,260l-5.666-32.999"/>
	<path fill="none" stroke="#525252" stroke-width="3" stroke-miterlimit="10" d="M602.75,408.667c0,0,39.25-19.167,96-23.667"/>
	<path fill="none" stroke="#525252" stroke-width="3" stroke-miterlimit="10" d="M724.5,407.5c0,0,548,0,576.5-0.5"/>
	<path fill="none" stroke="#525252" stroke-width="3" stroke-miterlimit="10" d="M731.25,326.75c0,0,14-31.25,23-32.25l91-2.5
		l93-0.75l363.083,0.75"/>
	
		<line fill="none" stroke="#525252" stroke-width="3" stroke-miterlimit="10" x1="836.584" y1="196.208" x2="1300.251" y2="192.542"/>
	<line fill="none" stroke="#525252" stroke-width="3" stroke-miterlimit="10" x1="1213" y1="193" x2="1213" y2="-14"/>
	<line fill="none" stroke="#525252" stroke-width="3" stroke-miterlimit="10" x1="668.75" y1="198" x2="823" y2="194.833"/>
</g>
<g>
	<path fill="none" stroke="#525252" stroke-width="7" stroke-miterlimit="10" d="M164.234,911.307
		c-6.826-4.342-15.054-6.607-23.742-5.975c-15.525,1.13-28.26,11.202-33.542,24.81l2.424,33.292
		c7.197,12.698,21.256,20.822,36.782,19.692c8.688-0.633,16.501-4.068,22.626-9.354L164.234,911.307z"/>
	<path fill="none" stroke="#525252" stroke-width="7" stroke-miterlimit="10" d="M168.746,972.122c0,0,0.664-9.238,5.65-9.602
		c4.987-0.363,34.908-2.542,34.908-2.542s6.601-0.533,16.895-3.168l0,0l7.751-14.08l-16.826-3.876l7.326-12.979l-15.541-6.89
		l1.331-7.533l-0.202,0.052c-2.271,0.558-4.648,1.049-7.166,1.483c-4.748,1.348-5.526,4.412-9.682,4.715s-24.934,1.815-24.934,1.815
		s-3.441-0.207-3.841-5.693"/>
</g>
<path fill="none" stroke="#525252" stroke-width="7" stroke-linejoin="round" stroke-miterlimit="10" d="M421.932,643.747
	l13.48,8.754l5.087-16.5l12.413,8.25l8-15l7.417,1.874l-0.002,0.001c2.758,16.037,9.099,27.286,21.006,45.874
	c13.667,21.334,52,34.333,52,34.333l179,59.333c0,0,3.334-6.333,11.667-15.333C749.333,762,791.667,771,791.667,771l86,15.666
	c0,0,2.666,20.667-4.334,39.667s-24.053,26.75-24.053,26.75h-57.447L774,845.833v1.667h-8.375l-3.875,0.5l-2.375,2.375L756,850.75
	l-0.5-1l-2.875-0.25c0,0-1.625,1.5-2.25-0.875c0.125-5.25-3.041-6.959-3.041-6.959s-2,0-10.334-1.666s-27.666-7-27.666-7
	l-187.667-70.333c0,0-44-15.667-72.667-55c-17.238-23.651-24.23-48.146-27.066-63.919L421.932,643.747z"/>
</svg>
