<?xml version="1.0" encoding="utf-8"?>
<!-- Generator: Adobe Illustrator 16.0.3, SVG Export Plug-In . SVG Version: 6.00 Build 0)  -->
<!DOCTYPE svg PUBLIC "-//W3C//DTD SVG 1.1//EN" "http://www.w3.org/Graphics/SVG/1.1/DTD/svg11.dtd">
<svg version="1.1" id="Vrstva_1" xmlns="http://www.w3.org/2000/svg" xmlns:xlink="http://www.w3.org/1999/xlink" x="0px" y="0px"
	 width="53.334px" height="53.334px" viewBox="0 0 53.334 53.334" enable-background="new 0 0 53.334 53.334" xml:space="preserve">
<g>
	<g>
		<g>
			<path fill="#525252" d="M18.695,36.646v-3.128l2.822-2.549c4.861-4.352,7.207-6.834,7.242-9.418c0-1.802-1.055-3.229-3.604-3.229
				c-1.904,0-3.57,0.952-4.726,1.802l-1.462-3.672c1.632-1.258,4.25-2.277,7.208-2.277c5.031,0,7.751,2.924,7.751,6.936
				c0,3.705-2.651,6.663-5.882,9.519l-2.039,1.7v0.068h8.363v4.249H18.695z"/>
		</g>
	</g>
	<g>
		<path fill="#525252" d="M26.668,53.334C11.963,53.334,0,41.372,0,26.667C0,11.962,11.963,0,26.668,0
			c14.703,0,26.666,11.963,26.666,26.667C53.334,41.372,41.372,53.334,26.668,53.334z M26.668,6C15.271,6,6,15.271,6,26.667
			c0,11.396,9.271,20.668,20.668,20.668c11.396,0,20.666-9.271,20.666-20.668C47.334,15.271,38.064,6,26.668,6z"/>
	</g>
</g>
</svg>
