<?xml version="1.0" encoding="utf-8"?>
<!-- Generator: Adobe Illustrator 16.0.3, SVG Export Plug-In . SVG Version: 6.00 Build 0)  -->
<!DOCTYPE svg PUBLIC "-//W3C//DTD SVG 1.1//EN" "http://www.w3.org/Graphics/SVG/1.1/DTD/svg11.dtd">
<svg version="1.1" id="Vrstva_1" xmlns="http://www.w3.org/2000/svg" xmlns:xlink="http://www.w3.org/1999/xlink" x="0px" y="0px"
	 width="53.335px" height="53.334px" viewBox="0 0 53.335 53.334" enable-background="new 0 0 53.335 53.334" xml:space="preserve">
<g>
	<g>
		<path fill="#525252" d="M33.413,18.798h-8.567l-0.476,3.365c0.476-0.034,0.884-0.068,1.428-0.068c2.107,0,4.283,0.477,5.813,1.598
			c1.666,1.122,2.686,2.958,2.686,5.576c0,4.113-3.535,7.751-9.485,7.751c-2.686,0-4.929-0.612-6.153-1.258l0.952-3.876
			c0.952,0.477,2.958,1.088,4.964,1.088c2.142,0,4.419-1.02,4.419-3.365c0-2.313-1.802-3.706-6.221-3.706
			c-1.225,0-2.074,0.068-2.958,0.204l1.428-11.559h12.171V18.798z"/>
	</g>
	<g>
		<path fill="#525252" d="M26.668,53.334C11.963,53.334,0,41.371,0,26.666C0,11.962,11.963,0,26.668,0
			c14.704,0,26.666,11.962,26.666,26.666C53.334,41.371,41.373,53.334,26.668,53.334z M26.668,6C15.272,6,6,15.271,6,26.666
			c0,11.396,9.271,20.668,20.668,20.668c11.396,0,20.666-9.271,20.666-20.668C47.334,15.271,38.064,6,26.668,6z"/>
	</g>
</g>
</svg>
