<?xml version="1.0" encoding="utf-8"?>
<!-- Generator: Adobe Illustrator 16.0.3, SVG Export Plug-In . SVG Version: 6.00 Build 0)  -->
<!DOCTYPE svg PUBLIC "-//W3C//DTD SVG 1.1//EN" "http://www.w3.org/Graphics/SVG/1.1/DTD/svg11.dtd">
<svg version="1.1" id="Vrstva_1" xmlns="http://www.w3.org/2000/svg" xmlns:xlink="http://www.w3.org/1999/xlink" x="0px" y="0px"
	 width="53.334px" height="53.334px" viewBox="0 0 53.334 53.334" enable-background="new 0 0 53.334 53.334" xml:space="preserve">
<g>
	<g>
		<path fill="#525252" d="M25.255,19.137h-0.068l-4.215,2.006l-0.85-3.875l5.881-2.72h4.249v22.098h-4.997V19.137z"/>
	</g>
</g>
<g>
	<path fill="#525252" d="M26.667,53.334C11.963,53.334,0,41.372,0,26.667S11.963,0,26.667,0c14.705,0,26.667,11.962,26.667,26.667
		S41.372,53.334,26.667,53.334z M26.667,6C15.271,6,6,15.271,6,26.667c0,11.396,9.271,20.668,20.667,20.668
		c11.396,0,20.667-9.271,20.667-20.668C47.334,15.271,38.063,6,26.667,6z"/>
</g>
</svg>
