<?xml version="1.0" encoding="utf-8"?>
<!-- Generator: Adobe Illustrator 16.0.3, SVG Export Plug-In . SVG Version: 6.00 Build 0)  -->
<!DOCTYPE svg PUBLIC "-//W3C//DTD SVG 1.1//EN" "http://www.w3.org/Graphics/SVG/1.1/DTD/svg11.dtd">
<svg version="1.1" id="Vrstva_1" xmlns="http://www.w3.org/2000/svg" xmlns:xlink="http://www.w3.org/1999/xlink" x="0px" y="0px"
	 width="53.334px" height="53.334px" viewBox="0 0 53.334 53.334" enable-background="new 0 0 53.334 53.334" xml:space="preserve">
<g>
	<g>
		<g>
			<path fill="#525252" d="M19.579,31.581c0.918,0.51,3.026,1.359,5.134,1.359c2.686,0,4.045-1.291,4.045-2.924
				c0-2.209-2.176-3.195-4.418-3.195H22.23v-3.705h2.006c1.734,0,3.91-0.68,3.91-2.551c0-1.325-1.055-2.311-3.264-2.311
				c-1.803,0-3.706,0.781-4.591,1.325l-1.053-3.739c1.325-0.851,3.944-1.666,6.833-1.666c4.691,0,7.311,2.481,7.311,5.508
				c0,2.346-1.326,4.215-4.047,5.133v0.068c2.652,0.476,4.795,2.481,4.795,5.405c0,3.876-3.436,6.731-9.045,6.731
				c-2.855,0-5.27-0.748-6.562-1.529L19.579,31.581z"/>
		</g>
	</g>
	<g>
		<path fill="#525252" d="M26.667,53.334C11.962,53.334,0,41.372,0,26.667C0,11.962,11.962,0,26.667,0s26.668,11.963,26.668,26.667
			C53.335,41.372,41.373,53.334,26.667,53.334z M26.667,6C15.271,6,6,15.271,6,26.667c0,11.396,9.271,20.668,20.668,20.668
			s20.668-9.271,20.668-20.668C47.335,15.271,38.064,6,26.667,6z"/>
	</g>
</g>
</svg>
